<?xml version="1.0"?>
<!DOCTYPE lmms-project>
<lmms-project creatorversion="1.2.0-rc6" type="song" version="1.0" creator="LMMS">
  <head mastervol="200" timesig_numerator="4" masterpitch="0" bpm="72" timesig_denominator="4"/>
  <song>
    <trackcontainer height="477" visible="1" type="song" x="48" maximized="0" y="41" minimized="0" width="860">
      <track muted="0" type="0" name="mda Piano" solo="0">
        <instrumenttrack pitch="0" usemasterpitch="1" fxch="1" pitchrange="1" basenote="57" pan="0">
          <vol id="4449149" scale_type="linear" value="60"/>
          <instrument name="vestige">
            <vestige param0="0:Decay   :0.45" param1="1:Release :0.598" numparams="12" param2="2:Hardness:0.626" program="6" plugin="/home/fxzjshm/lmms/plugins/vst/mda Piano.dll" param10="10:Detune  :0.387" param3="3:Vel>Hard:0.216" param11="11:Stretch :0.773" param4="4:Muffle  :0.603" param5="5:Vel>Muf.:0.624" param6="6:Vel Sens:0.288" guivisible="1" param7="7:Stereo  :0.331" param8="8:Max Poly:0.46" param9="9:Tune    :0.5"/>
          </instrument>
          <eldata ftype="0" fwet="0" fres="0.5" fcut="14000">
            <elvol lspd="0.1" pdel="0" hold="0.5" lspd_syncmode="0" userwavefile="" rel="0.1" latt="0" lspd_denominator="4" dec="0.5" lpdel="0" lamt="0" ctlenvamt="0" att="0" lspd_numerator="4" amt="0" lshp="0" sustain="0.5" x100="0"/>
            <elcut lspd="0.1" pdel="0" hold="0.5" lspd_syncmode="0" userwavefile="" rel="0.1" latt="0" lspd_denominator="4" dec="0.5" lpdel="0" lamt="0" ctlenvamt="0" att="0" lspd_numerator="4" amt="0" lshp="0" sustain="0.5" x100="0"/>
            <elres lspd="0.1" pdel="0" hold="0.5" lspd_syncmode="0" userwavefile="" rel="0.1" latt="0" lspd_denominator="4" dec="0.5" lpdel="0" lamt="0" ctlenvamt="0" att="0" lspd_numerator="4" amt="0" lshp="0" sustain="0.5" x100="0"/>
          </eldata>
          <chordcreator chordrange="1" chord="0" chord-enabled="0"/>
          <arpeggiator arpmiss="0" arpmode="0" arptime_denominator="4" arpdir="0" arp="0" arpskip="0" arptime="200" arptime_numerator="4" arpgate="100" arpcycle="0" arp-enabled="0" arptime_syncmode="0" arprange="1"/>
          <midiport outputcontroller="0" fixedoutputvelocity="-1" basevelocity="63" fixedoutputnote="-1" readable="0" writable="0" outputchannel="1" fixedinputvelocity="-1" inputchannel="0" inputcontroller="0" outputprogram="1"/>
          <fxchain numofeffects="0" enabled="0"/>
        </instrumenttrack>
        <pattern muted="0" steps="16" type="1" name="mda Piano" pos="0">
          <note len="12" key="60" vol="100" pos="0" pan="0"/>
          <note len="12" key="62" vol="100" pos="12" pan="0"/>
          <note len="12" key="64" vol="100" pos="24" pan="0"/>
          <note len="12" key="60" vol="100" pos="36" pan="0"/>
          <note len="12" key="62" vol="100" pos="48" pan="0"/>
          <note len="12" key="65" vol="100" pos="60" pan="0"/>
          <note len="12" key="64" vol="100" pos="72" pan="0"/>
          <note len="12" key="62" vol="100" pos="84" pan="0"/>
          <note len="12" key="60" vol="100" pos="96" pan="0"/>
          <note len="12" key="64" vol="100" pos="108" pan="0"/>
          <note len="12" key="62" vol="100" pos="120" pan="0"/>
          <note len="12" key="60" vol="100" pos="132" pan="0"/>
          <note len="12" key="62" vol="100" pos="144" pan="0"/>
          <note len="12" key="59" vol="100" pos="156" pan="0"/>
          <note len="12" key="62" vol="100" pos="168" pan="0"/>
          <note len="12" key="55" vol="100" pos="180" pan="0"/>
          <note len="12" key="60" vol="100" pos="192" pan="0"/>
          <note len="12" key="62" vol="100" pos="204" pan="0"/>
          <note len="12" key="64" vol="100" pos="216" pan="0"/>
          <note len="12" key="60" vol="100" pos="228" pan="0"/>
          <note len="12" key="62" vol="100" pos="240" pan="0"/>
          <note len="12" key="65" vol="100" pos="252" pan="0"/>
          <note len="12" key="64" vol="100" pos="264" pan="0"/>
          <note len="12" key="62" vol="100" pos="276" pan="0"/>
          <note len="12" key="60" vol="100" pos="288" pan="0"/>
          <note len="12" key="64" vol="100" pos="300" pan="0"/>
          <note len="12" key="62" vol="100" pos="312" pan="0"/>
          <note len="12" key="60" vol="100" pos="324" pan="0"/>
          <note len="12" key="62" vol="100" pos="336" pan="0"/>
          <note len="12" key="59" vol="100" pos="348" pan="0"/>
          <note len="12" key="62" vol="100" pos="360" pan="0"/>
          <note len="12" key="64" vol="100" pos="372" pan="0"/>
        </pattern>
        <pattern muted="0" steps="16" type="1" name="mda Piano" pos="384">
          <note len="12" key="60" vol="100" pos="0" pan="0"/>
          <note len="12" key="62" vol="100" pos="12" pan="0"/>
          <note len="12" key="64" vol="100" pos="24" pan="0"/>
          <note len="12" key="60" vol="100" pos="36" pan="0"/>
          <note len="12" key="62" vol="100" pos="48" pan="0"/>
          <note len="12" key="65" vol="100" pos="60" pan="0"/>
          <note len="12" key="64" vol="100" pos="72" pan="0"/>
          <note len="12" key="62" vol="100" pos="84" pan="0"/>
          <note len="12" key="60" vol="100" pos="96" pan="0"/>
          <note len="12" key="64" vol="100" pos="108" pan="0"/>
          <note len="12" key="62" vol="100" pos="120" pan="0"/>
          <note len="12" key="60" vol="100" pos="132" pan="0"/>
          <note len="12" key="62" vol="100" pos="144" pan="0"/>
          <note len="12" key="59" vol="100" pos="156" pan="0"/>
          <note len="12" key="62" vol="100" pos="168" pan="0"/>
          <note len="12" key="55" vol="100" pos="180" pan="0"/>
          <note len="12" key="60" vol="100" pos="192" pan="0"/>
          <note len="12" key="62" vol="100" pos="204" pan="0"/>
          <note len="12" key="64" vol="100" pos="216" pan="0"/>
          <note len="12" key="60" vol="100" pos="228" pan="0"/>
          <note len="12" key="62" vol="100" pos="240" pan="0"/>
          <note len="12" key="65" vol="100" pos="252" pan="0"/>
          <note len="12" key="64" vol="100" pos="264" pan="0"/>
          <note len="12" key="62" vol="100" pos="276" pan="0"/>
          <note len="12" key="60" vol="100" pos="288" pan="0"/>
          <note len="12" key="64" vol="100" pos="300" pan="0"/>
          <note len="12" key="62" vol="100" pos="312" pan="0"/>
          <note len="12" key="60" vol="100" pos="324" pan="0"/>
          <note len="12" key="62" vol="100" pos="336" pan="0"/>
          <note len="12" key="59" vol="100" pos="348" pan="0"/>
          <note len="12" key="62" vol="100" pos="360" pan="0"/>
          <note len="12" key="64" vol="100" pos="372" pan="0"/>
        </pattern>
        <pattern muted="0" steps="16" type="1" name="mda Piano" pos="768">
          <note len="12" key="60" vol="100" pos="0" pan="0"/>
          <note len="12" key="62" vol="100" pos="12" pan="0"/>
          <note len="12" key="64" vol="100" pos="24" pan="0"/>
          <note len="12" key="60" vol="100" pos="36" pan="0"/>
          <note len="12" key="62" vol="100" pos="48" pan="0"/>
          <note len="12" key="65" vol="100" pos="60" pan="0"/>
          <note len="12" key="64" vol="100" pos="72" pan="0"/>
          <note len="12" key="62" vol="100" pos="84" pan="0"/>
          <note len="12" key="60" vol="100" pos="96" pan="0"/>
          <note len="12" key="64" vol="100" pos="108" pan="0"/>
          <note len="12" key="62" vol="100" pos="120" pan="0"/>
          <note len="12" key="60" vol="100" pos="132" pan="0"/>
          <note len="12" key="62" vol="100" pos="144" pan="0"/>
          <note len="12" key="59" vol="100" pos="156" pan="0"/>
          <note len="12" key="62" vol="100" pos="168" pan="0"/>
          <note len="12" key="55" vol="100" pos="180" pan="0"/>
          <note len="12" key="60" vol="100" pos="192" pan="0"/>
          <note len="12" key="62" vol="100" pos="204" pan="0"/>
          <note len="12" key="64" vol="100" pos="216" pan="0"/>
          <note len="12" key="60" vol="100" pos="228" pan="0"/>
          <note len="12" key="62" vol="100" pos="240" pan="0"/>
          <note len="12" key="65" vol="100" pos="252" pan="0"/>
          <note len="12" key="64" vol="100" pos="264" pan="0"/>
          <note len="12" key="62" vol="100" pos="276" pan="0"/>
          <note len="12" key="60" vol="100" pos="288" pan="0"/>
          <note len="12" key="64" vol="100" pos="300" pan="0"/>
          <note len="12" key="62" vol="100" pos="312" pan="0"/>
          <note len="12" key="60" vol="100" pos="324" pan="0"/>
          <note len="12" key="62" vol="100" pos="336" pan="0"/>
          <note len="12" key="59" vol="100" pos="348" pan="0"/>
          <note len="12" key="62" vol="100" pos="360" pan="0"/>
          <note len="12" key="64" vol="100" pos="372" pan="0"/>
        </pattern>
        <pattern muted="0" steps="16" type="1" name="mda Piano" pos="1152">
          <note len="12" key="60" vol="100" pos="0" pan="0"/>
          <note len="12" key="62" vol="100" pos="12" pan="0"/>
          <note len="12" key="64" vol="100" pos="24" pan="0"/>
          <note len="12" key="60" vol="100" pos="36" pan="0"/>
          <note len="12" key="62" vol="100" pos="48" pan="0"/>
          <note len="12" key="65" vol="100" pos="60" pan="0"/>
          <note len="12" key="64" vol="100" pos="72" pan="0"/>
          <note len="12" key="62" vol="100" pos="84" pan="0"/>
          <note len="12" key="60" vol="100" pos="96" pan="0"/>
          <note len="12" key="64" vol="100" pos="108" pan="0"/>
          <note len="12" key="62" vol="100" pos="120" pan="0"/>
          <note len="12" key="60" vol="100" pos="132" pan="0"/>
          <note len="12" key="62" vol="100" pos="144" pan="0"/>
          <note len="12" key="59" vol="100" pos="156" pan="0"/>
          <note len="12" key="62" vol="100" pos="168" pan="0"/>
          <note len="12" key="55" vol="100" pos="180" pan="0"/>
          <note len="12" key="60" vol="100" pos="192" pan="0"/>
          <note len="12" key="62" vol="100" pos="204" pan="0"/>
          <note len="12" key="64" vol="100" pos="216" pan="0"/>
          <note len="12" key="60" vol="100" pos="228" pan="0"/>
          <note len="12" key="62" vol="100" pos="240" pan="0"/>
          <note len="12" key="65" vol="100" pos="252" pan="0"/>
          <note len="12" key="64" vol="100" pos="264" pan="0"/>
          <note len="12" key="62" vol="100" pos="276" pan="0"/>
          <note len="12" key="60" vol="100" pos="288" pan="0"/>
          <note len="12" key="64" vol="100" pos="300" pan="0"/>
          <note len="12" key="62" vol="100" pos="312" pan="0"/>
          <note len="12" key="60" vol="100" pos="324" pan="0"/>
          <note len="12" key="62" vol="100" pos="336" pan="0"/>
          <note len="12" key="59" vol="100" pos="348" pan="0"/>
          <note len="12" key="62" vol="100" pos="360" pan="0"/>
          <note len="12" key="64" vol="100" pos="372" pan="0"/>
        </pattern>
        <pattern muted="0" steps="16" type="1" name="mda Piano" pos="1536">
          <note len="12" key="60" vol="100" pos="0" pan="0"/>
          <note len="12" key="62" vol="100" pos="12" pan="0"/>
          <note len="12" key="64" vol="100" pos="24" pan="0"/>
          <note len="12" key="60" vol="100" pos="36" pan="0"/>
          <note len="12" key="62" vol="100" pos="48" pan="0"/>
          <note len="12" key="65" vol="100" pos="60" pan="0"/>
          <note len="12" key="64" vol="100" pos="72" pan="0"/>
          <note len="12" key="62" vol="100" pos="84" pan="0"/>
          <note len="12" key="60" vol="100" pos="96" pan="0"/>
          <note len="12" key="64" vol="100" pos="108" pan="0"/>
          <note len="12" key="62" vol="100" pos="120" pan="0"/>
          <note len="12" key="60" vol="100" pos="132" pan="0"/>
          <note len="12" key="62" vol="100" pos="144" pan="0"/>
          <note len="12" key="59" vol="100" pos="156" pan="0"/>
          <note len="12" key="62" vol="100" pos="168" pan="0"/>
          <note len="12" key="55" vol="100" pos="180" pan="0"/>
          <note len="12" key="60" vol="100" pos="192" pan="0"/>
          <note len="12" key="62" vol="100" pos="204" pan="0"/>
          <note len="12" key="64" vol="100" pos="216" pan="0"/>
          <note len="12" key="60" vol="100" pos="228" pan="0"/>
          <note len="12" key="62" vol="100" pos="240" pan="0"/>
          <note len="12" key="65" vol="100" pos="252" pan="0"/>
          <note len="12" key="64" vol="100" pos="264" pan="0"/>
          <note len="12" key="62" vol="100" pos="276" pan="0"/>
          <note len="12" key="60" vol="100" pos="288" pan="0"/>
          <note len="12" key="64" vol="100" pos="300" pan="0"/>
          <note len="12" key="62" vol="100" pos="312" pan="0"/>
          <note len="12" key="60" vol="100" pos="324" pan="0"/>
          <note len="12" key="62" vol="100" pos="336" pan="0"/>
          <note len="12" key="59" vol="100" pos="348" pan="0"/>
          <note len="12" key="62" vol="100" pos="360" pan="0"/>
          <note len="12" key="64" vol="100" pos="372" pan="0"/>
        </pattern>
        <pattern muted="0" steps="16" type="1" name="mda Piano" pos="1920">
          <note len="12" key="60" vol="100" pos="0" pan="0"/>
          <note len="12" key="62" vol="100" pos="12" pan="0"/>
          <note len="12" key="64" vol="100" pos="24" pan="0"/>
          <note len="12" key="60" vol="100" pos="36" pan="0"/>
          <note len="12" key="62" vol="100" pos="48" pan="0"/>
          <note len="12" key="65" vol="100" pos="60" pan="0"/>
          <note len="12" key="64" vol="100" pos="72" pan="0"/>
          <note len="12" key="62" vol="100" pos="84" pan="0"/>
          <note len="12" key="60" vol="100" pos="96" pan="0"/>
          <note len="12" key="64" vol="100" pos="108" pan="0"/>
          <note len="12" key="62" vol="100" pos="120" pan="0"/>
          <note len="12" key="60" vol="100" pos="132" pan="0"/>
          <note len="12" key="62" vol="100" pos="144" pan="0"/>
          <note len="12" key="59" vol="100" pos="156" pan="0"/>
          <note len="12" key="62" vol="100" pos="168" pan="0"/>
          <note len="12" key="55" vol="100" pos="180" pan="0"/>
          <note len="12" key="60" vol="100" pos="192" pan="0"/>
          <note len="12" key="62" vol="100" pos="204" pan="0"/>
          <note len="12" key="64" vol="100" pos="216" pan="0"/>
          <note len="12" key="60" vol="100" pos="228" pan="0"/>
          <note len="12" key="62" vol="100" pos="240" pan="0"/>
          <note len="12" key="65" vol="100" pos="252" pan="0"/>
          <note len="12" key="64" vol="100" pos="264" pan="0"/>
          <note len="12" key="62" vol="100" pos="276" pan="0"/>
          <note len="12" key="60" vol="100" pos="288" pan="0"/>
          <note len="12" key="64" vol="100" pos="300" pan="0"/>
          <note len="12" key="62" vol="100" pos="312" pan="0"/>
          <note len="12" key="60" vol="100" pos="324" pan="0"/>
          <note len="12" key="62" vol="100" pos="336" pan="0"/>
          <note len="12" key="59" vol="100" pos="348" pan="0"/>
          <note len="12" key="62" vol="100" pos="360" pan="0"/>
          <note len="12" key="64" vol="100" pos="372" pan="0"/>
        </pattern>
        <pattern muted="0" steps="16" type="1" name="mda Piano" pos="2304">
          <note len="12" key="60" vol="100" pos="0" pan="0"/>
          <note len="12" key="62" vol="100" pos="12" pan="0"/>
          <note len="12" key="64" vol="100" pos="24" pan="0"/>
          <note len="12" key="60" vol="100" pos="36" pan="0"/>
          <note len="12" key="62" vol="100" pos="48" pan="0"/>
          <note len="12" key="65" vol="100" pos="60" pan="0"/>
          <note len="12" key="64" vol="100" pos="72" pan="0"/>
          <note len="12" key="62" vol="100" pos="84" pan="0"/>
          <note len="12" key="60" vol="100" pos="96" pan="0"/>
          <note len="12" key="64" vol="100" pos="108" pan="0"/>
          <note len="12" key="62" vol="100" pos="120" pan="0"/>
          <note len="12" key="60" vol="100" pos="132" pan="0"/>
          <note len="12" key="62" vol="100" pos="144" pan="0"/>
          <note len="12" key="59" vol="100" pos="156" pan="0"/>
          <note len="12" key="62" vol="100" pos="168" pan="0"/>
          <note len="12" key="55" vol="100" pos="180" pan="0"/>
          <note len="12" key="60" vol="100" pos="192" pan="0"/>
          <note len="12" key="62" vol="100" pos="204" pan="0"/>
          <note len="12" key="64" vol="100" pos="216" pan="0"/>
          <note len="12" key="60" vol="100" pos="228" pan="0"/>
          <note len="12" key="62" vol="100" pos="240" pan="0"/>
          <note len="12" key="65" vol="100" pos="252" pan="0"/>
          <note len="12" key="64" vol="100" pos="264" pan="0"/>
          <note len="12" key="62" vol="100" pos="276" pan="0"/>
          <note len="12" key="60" vol="100" pos="288" pan="0"/>
          <note len="12" key="64" vol="100" pos="300" pan="0"/>
          <note len="12" key="62" vol="100" pos="312" pan="0"/>
          <note len="12" key="60" vol="100" pos="324" pan="0"/>
          <note len="12" key="62" vol="100" pos="336" pan="0"/>
          <note len="12" key="59" vol="100" pos="348" pan="0"/>
          <note len="12" key="62" vol="100" pos="360" pan="0"/>
          <note len="12" key="64" vol="100" pos="372" pan="0"/>
        </pattern>
        <pattern muted="0" steps="16" type="1" name="mda Piano" pos="2688">
          <note len="12" key="60" vol="100" pos="0" pan="0"/>
          <note len="12" key="62" vol="100" pos="12" pan="0"/>
          <note len="12" key="64" vol="100" pos="24" pan="0"/>
          <note len="12" key="60" vol="100" pos="36" pan="0"/>
          <note len="12" key="62" vol="100" pos="48" pan="0"/>
          <note len="12" key="65" vol="100" pos="60" pan="0"/>
          <note len="12" key="64" vol="100" pos="72" pan="0"/>
          <note len="12" key="62" vol="100" pos="84" pan="0"/>
          <note len="12" key="60" vol="100" pos="96" pan="0"/>
          <note len="12" key="64" vol="100" pos="108" pan="0"/>
          <note len="12" key="62" vol="100" pos="120" pan="0"/>
          <note len="12" key="60" vol="100" pos="132" pan="0"/>
          <note len="12" key="62" vol="100" pos="144" pan="0"/>
          <note len="12" key="59" vol="100" pos="156" pan="0"/>
          <note len="12" key="62" vol="100" pos="168" pan="0"/>
          <note len="12" key="55" vol="100" pos="180" pan="0"/>
          <note len="12" key="60" vol="100" pos="192" pan="0"/>
          <note len="12" key="62" vol="100" pos="204" pan="0"/>
          <note len="12" key="64" vol="100" pos="216" pan="0"/>
          <note len="12" key="60" vol="100" pos="228" pan="0"/>
          <note len="12" key="62" vol="100" pos="240" pan="0"/>
          <note len="12" key="65" vol="100" pos="252" pan="0"/>
          <note len="12" key="64" vol="100" pos="264" pan="0"/>
          <note len="12" key="62" vol="100" pos="276" pan="0"/>
          <note len="12" key="60" vol="100" pos="288" pan="0"/>
          <note len="12" key="64" vol="100" pos="300" pan="0"/>
          <note len="12" key="62" vol="100" pos="312" pan="0"/>
          <note len="12" key="60" vol="100" pos="324" pan="0"/>
          <note len="12" key="62" vol="100" pos="336" pan="0"/>
          <note len="12" key="59" vol="100" pos="348" pan="0"/>
          <note len="12" key="62" vol="100" pos="360" pan="0"/>
          <note len="12" key="64" vol="100" pos="372" pan="0"/>
        </pattern>
        <pattern muted="0" steps="16" type="1" name="mda Piano" pos="3072">
          <note len="12" key="60" vol="100" pos="0" pan="0"/>
          <note len="12" key="62" vol="100" pos="12" pan="0"/>
          <note len="12" key="64" vol="100" pos="24" pan="0"/>
          <note len="12" key="60" vol="100" pos="36" pan="0"/>
          <note len="12" key="62" vol="100" pos="48" pan="0"/>
          <note len="12" key="65" vol="100" pos="60" pan="0"/>
          <note len="12" key="64" vol="100" pos="72" pan="0"/>
          <note len="12" key="62" vol="100" pos="84" pan="0"/>
          <note len="12" key="60" vol="100" pos="96" pan="0"/>
          <note len="12" key="64" vol="100" pos="108" pan="0"/>
          <note len="12" key="62" vol="100" pos="120" pan="0"/>
          <note len="12" key="60" vol="100" pos="132" pan="0"/>
          <note len="12" key="62" vol="100" pos="144" pan="0"/>
          <note len="12" key="59" vol="100" pos="156" pan="0"/>
          <note len="12" key="62" vol="100" pos="168" pan="0"/>
          <note len="12" key="55" vol="100" pos="180" pan="0"/>
          <note len="12" key="60" vol="100" pos="192" pan="0"/>
          <note len="12" key="62" vol="100" pos="204" pan="0"/>
          <note len="12" key="64" vol="100" pos="216" pan="0"/>
          <note len="12" key="60" vol="100" pos="228" pan="0"/>
          <note len="12" key="62" vol="100" pos="240" pan="0"/>
          <note len="12" key="65" vol="100" pos="252" pan="0"/>
          <note len="12" key="64" vol="100" pos="264" pan="0"/>
          <note len="12" key="62" vol="100" pos="276" pan="0"/>
          <note len="12" key="60" vol="100" pos="288" pan="0"/>
          <note len="12" key="64" vol="100" pos="300" pan="0"/>
          <note len="12" key="62" vol="100" pos="312" pan="0"/>
          <note len="12" key="60" vol="100" pos="324" pan="0"/>
          <note len="12" key="62" vol="100" pos="336" pan="0"/>
          <note len="12" key="59" vol="100" pos="348" pan="0"/>
          <note len="12" key="62" vol="100" pos="360" pan="0"/>
          <note len="12" key="64" vol="100" pos="372" pan="0"/>
        </pattern>
        <pattern muted="0" steps="16" type="1" name="mda Piano" pos="3456">
          <note len="12" key="60" vol="100" pos="0" pan="0"/>
          <note len="12" key="62" vol="100" pos="12" pan="0"/>
          <note len="12" key="64" vol="100" pos="24" pan="0"/>
          <note len="12" key="60" vol="100" pos="36" pan="0"/>
          <note len="12" key="62" vol="100" pos="48" pan="0"/>
          <note len="12" key="65" vol="100" pos="60" pan="0"/>
          <note len="12" key="64" vol="100" pos="72" pan="0"/>
          <note len="12" key="62" vol="100" pos="84" pan="0"/>
          <note len="12" key="60" vol="100" pos="96" pan="0"/>
          <note len="12" key="64" vol="100" pos="108" pan="0"/>
          <note len="12" key="62" vol="100" pos="120" pan="0"/>
          <note len="12" key="60" vol="100" pos="132" pan="0"/>
          <note len="12" key="62" vol="100" pos="144" pan="0"/>
          <note len="12" key="59" vol="100" pos="156" pan="0"/>
          <note len="12" key="62" vol="100" pos="168" pan="0"/>
          <note len="12" key="55" vol="100" pos="180" pan="0"/>
          <note len="12" key="60" vol="100" pos="192" pan="0"/>
          <note len="12" key="62" vol="100" pos="204" pan="0"/>
          <note len="12" key="64" vol="100" pos="216" pan="0"/>
          <note len="12" key="60" vol="100" pos="228" pan="0"/>
          <note len="12" key="62" vol="100" pos="240" pan="0"/>
          <note len="12" key="65" vol="100" pos="252" pan="0"/>
          <note len="12" key="64" vol="100" pos="264" pan="0"/>
          <note len="12" key="62" vol="100" pos="276" pan="0"/>
          <note len="12" key="60" vol="100" pos="288" pan="0"/>
          <note len="12" key="64" vol="100" pos="300" pan="0"/>
          <note len="12" key="62" vol="100" pos="312" pan="0"/>
          <note len="12" key="60" vol="100" pos="324" pan="0"/>
          <note len="12" key="62" vol="100" pos="336" pan="0"/>
          <note len="12" key="59" vol="100" pos="348" pan="0"/>
          <note len="12" key="62" vol="100" pos="360" pan="0"/>
          <note len="12" key="64" vol="100" pos="372" pan="0"/>
        </pattern>
        <pattern muted="0" steps="16" type="1" name="mda Piano" pos="3840">
          <note len="12" key="60" vol="100" pos="0" pan="0"/>
          <note len="12" key="62" vol="100" pos="12" pan="0"/>
          <note len="12" key="64" vol="100" pos="24" pan="0"/>
          <note len="12" key="60" vol="100" pos="36" pan="0"/>
          <note len="12" key="62" vol="100" pos="48" pan="0"/>
          <note len="12" key="65" vol="100" pos="60" pan="0"/>
          <note len="12" key="64" vol="100" pos="72" pan="0"/>
          <note len="12" key="62" vol="100" pos="84" pan="0"/>
          <note len="12" key="60" vol="100" pos="96" pan="0"/>
          <note len="12" key="64" vol="100" pos="108" pan="0"/>
          <note len="12" key="62" vol="100" pos="120" pan="0"/>
          <note len="12" key="60" vol="100" pos="132" pan="0"/>
          <note len="12" key="62" vol="100" pos="144" pan="0"/>
          <note len="12" key="59" vol="100" pos="156" pan="0"/>
          <note len="12" key="62" vol="100" pos="168" pan="0"/>
          <note len="12" key="55" vol="100" pos="180" pan="0"/>
          <note len="12" key="60" vol="100" pos="192" pan="0"/>
          <note len="12" key="62" vol="100" pos="204" pan="0"/>
          <note len="12" key="64" vol="100" pos="216" pan="0"/>
          <note len="12" key="60" vol="100" pos="228" pan="0"/>
          <note len="12" key="62" vol="100" pos="240" pan="0"/>
          <note len="12" key="65" vol="100" pos="252" pan="0"/>
          <note len="12" key="64" vol="100" pos="264" pan="0"/>
          <note len="12" key="62" vol="100" pos="276" pan="0"/>
          <note len="12" key="60" vol="100" pos="288" pan="0"/>
          <note len="12" key="64" vol="100" pos="300" pan="0"/>
          <note len="12" key="62" vol="100" pos="312" pan="0"/>
          <note len="12" key="60" vol="100" pos="324" pan="0"/>
          <note len="12" key="62" vol="100" pos="336" pan="0"/>
          <note len="12" key="59" vol="100" pos="348" pan="0"/>
          <note len="12" key="62" vol="100" pos="360" pan="0"/>
          <note len="12" key="64" vol="100" pos="372" pan="0"/>
        </pattern>
        <pattern muted="0" steps="16" type="1" name="mda Piano" pos="4224">
          <note len="12" key="60" vol="100" pos="0" pan="0"/>
          <note len="12" key="62" vol="100" pos="12" pan="0"/>
          <note len="12" key="64" vol="100" pos="24" pan="0"/>
          <note len="12" key="60" vol="100" pos="36" pan="0"/>
          <note len="12" key="62" vol="100" pos="48" pan="0"/>
          <note len="12" key="65" vol="100" pos="60" pan="0"/>
          <note len="12" key="64" vol="100" pos="72" pan="0"/>
          <note len="12" key="62" vol="100" pos="84" pan="0"/>
          <note len="12" key="60" vol="100" pos="96" pan="0"/>
          <note len="12" key="64" vol="100" pos="108" pan="0"/>
          <note len="12" key="62" vol="100" pos="120" pan="0"/>
          <note len="12" key="60" vol="100" pos="132" pan="0"/>
          <note len="12" key="62" vol="100" pos="144" pan="0"/>
          <note len="12" key="59" vol="100" pos="156" pan="0"/>
          <note len="12" key="62" vol="100" pos="168" pan="0"/>
          <note len="12" key="55" vol="100" pos="180" pan="0"/>
          <note len="12" key="60" vol="100" pos="192" pan="0"/>
          <note len="12" key="62" vol="100" pos="204" pan="0"/>
          <note len="12" key="64" vol="100" pos="216" pan="0"/>
          <note len="12" key="60" vol="100" pos="228" pan="0"/>
          <note len="12" key="62" vol="100" pos="240" pan="0"/>
          <note len="12" key="65" vol="100" pos="252" pan="0"/>
          <note len="12" key="64" vol="100" pos="264" pan="0"/>
          <note len="12" key="62" vol="100" pos="276" pan="0"/>
          <note len="12" key="60" vol="100" pos="288" pan="0"/>
          <note len="12" key="64" vol="100" pos="300" pan="0"/>
          <note len="12" key="62" vol="100" pos="312" pan="0"/>
          <note len="12" key="60" vol="100" pos="324" pan="0"/>
          <note len="12" key="62" vol="100" pos="336" pan="0"/>
          <note len="12" key="59" vol="100" pos="348" pan="0"/>
          <note len="12" key="62" vol="100" pos="360" pan="0"/>
          <note len="12" key="64" vol="100" pos="372" pan="0"/>
        </pattern>
        <pattern muted="0" steps="16" type="1" name="mda Piano" pos="4608">
          <note len="12" key="60" vol="100" pos="0" pan="0"/>
          <note len="12" key="62" vol="100" pos="12" pan="0"/>
          <note len="12" key="64" vol="100" pos="24" pan="0"/>
          <note len="12" key="60" vol="100" pos="36" pan="0"/>
          <note len="12" key="62" vol="100" pos="48" pan="0"/>
          <note len="12" key="65" vol="100" pos="60" pan="0"/>
          <note len="12" key="64" vol="100" pos="72" pan="0"/>
          <note len="12" key="62" vol="100" pos="84" pan="0"/>
          <note len="12" key="60" vol="100" pos="96" pan="0"/>
          <note len="12" key="64" vol="100" pos="108" pan="0"/>
          <note len="12" key="62" vol="100" pos="120" pan="0"/>
          <note len="12" key="60" vol="100" pos="132" pan="0"/>
          <note len="12" key="62" vol="100" pos="144" pan="0"/>
          <note len="12" key="59" vol="100" pos="156" pan="0"/>
          <note len="12" key="62" vol="100" pos="168" pan="0"/>
          <note len="12" key="55" vol="100" pos="180" pan="0"/>
          <note len="12" key="60" vol="100" pos="192" pan="0"/>
          <note len="12" key="62" vol="100" pos="204" pan="0"/>
          <note len="12" key="64" vol="100" pos="216" pan="0"/>
          <note len="12" key="60" vol="100" pos="228" pan="0"/>
          <note len="12" key="62" vol="100" pos="240" pan="0"/>
          <note len="12" key="65" vol="100" pos="252" pan="0"/>
          <note len="12" key="64" vol="100" pos="264" pan="0"/>
          <note len="12" key="62" vol="100" pos="276" pan="0"/>
          <note len="12" key="60" vol="100" pos="288" pan="0"/>
          <note len="12" key="64" vol="100" pos="300" pan="0"/>
          <note len="12" key="62" vol="100" pos="312" pan="0"/>
          <note len="12" key="60" vol="100" pos="324" pan="0"/>
          <note len="12" key="62" vol="100" pos="336" pan="0"/>
          <note len="12" key="59" vol="100" pos="348" pan="0"/>
          <note len="12" key="62" vol="100" pos="360" pan="0"/>
          <note len="12" key="64" vol="100" pos="372" pan="0"/>
        </pattern>
        <pattern muted="0" steps="16" type="1" name="mda Piano" pos="4992">
          <note len="12" key="60" vol="100" pos="0" pan="0"/>
          <note len="12" key="62" vol="100" pos="12" pan="0"/>
          <note len="12" key="64" vol="100" pos="24" pan="0"/>
          <note len="12" key="60" vol="100" pos="36" pan="0"/>
          <note len="12" key="62" vol="100" pos="48" pan="0"/>
          <note len="12" key="65" vol="100" pos="60" pan="0"/>
          <note len="12" key="64" vol="100" pos="72" pan="0"/>
          <note len="12" key="62" vol="100" pos="84" pan="0"/>
          <note len="12" key="60" vol="100" pos="96" pan="0"/>
          <note len="12" key="64" vol="100" pos="108" pan="0"/>
          <note len="12" key="62" vol="100" pos="120" pan="0"/>
          <note len="12" key="60" vol="100" pos="132" pan="0"/>
          <note len="12" key="62" vol="100" pos="144" pan="0"/>
          <note len="12" key="59" vol="100" pos="156" pan="0"/>
          <note len="12" key="62" vol="100" pos="168" pan="0"/>
          <note len="12" key="55" vol="100" pos="180" pan="0"/>
          <note len="12" key="60" vol="100" pos="192" pan="0"/>
          <note len="12" key="62" vol="100" pos="204" pan="0"/>
          <note len="12" key="64" vol="100" pos="216" pan="0"/>
          <note len="12" key="60" vol="100" pos="228" pan="0"/>
          <note len="12" key="62" vol="100" pos="240" pan="0"/>
          <note len="12" key="65" vol="100" pos="252" pan="0"/>
          <note len="12" key="64" vol="100" pos="264" pan="0"/>
          <note len="12" key="62" vol="100" pos="276" pan="0"/>
          <note len="12" key="60" vol="100" pos="288" pan="0"/>
          <note len="12" key="64" vol="100" pos="300" pan="0"/>
          <note len="12" key="62" vol="100" pos="312" pan="0"/>
          <note len="12" key="60" vol="100" pos="324" pan="0"/>
          <note len="12" key="62" vol="100" pos="336" pan="0"/>
          <note len="12" key="59" vol="100" pos="348" pan="0"/>
          <note len="12" key="62" vol="100" pos="360" pan="0"/>
          <note len="12" key="64" vol="100" pos="372" pan="0"/>
        </pattern>
        <pattern muted="0" steps="16" type="1" name="mda Piano" pos="5376">
          <note len="12" key="60" vol="100" pos="0" pan="0"/>
          <note len="12" key="62" vol="100" pos="12" pan="0"/>
          <note len="12" key="64" vol="100" pos="24" pan="0"/>
          <note len="12" key="60" vol="100" pos="36" pan="0"/>
          <note len="12" key="62" vol="100" pos="48" pan="0"/>
          <note len="12" key="65" vol="100" pos="60" pan="0"/>
          <note len="12" key="64" vol="100" pos="72" pan="0"/>
          <note len="12" key="62" vol="100" pos="84" pan="0"/>
          <note len="12" key="60" vol="100" pos="96" pan="0"/>
          <note len="12" key="64" vol="100" pos="108" pan="0"/>
          <note len="12" key="62" vol="100" pos="120" pan="0"/>
          <note len="12" key="60" vol="100" pos="132" pan="0"/>
          <note len="12" key="62" vol="100" pos="144" pan="0"/>
          <note len="12" key="59" vol="100" pos="156" pan="0"/>
          <note len="12" key="62" vol="100" pos="168" pan="0"/>
          <note len="12" key="55" vol="100" pos="180" pan="0"/>
          <note len="12" key="60" vol="100" pos="192" pan="0"/>
          <note len="12" key="62" vol="100" pos="204" pan="0"/>
          <note len="12" key="64" vol="100" pos="216" pan="0"/>
          <note len="12" key="60" vol="100" pos="228" pan="0"/>
          <note len="12" key="62" vol="100" pos="240" pan="0"/>
          <note len="12" key="65" vol="100" pos="252" pan="0"/>
          <note len="12" key="64" vol="100" pos="264" pan="0"/>
          <note len="12" key="62" vol="100" pos="276" pan="0"/>
          <note len="12" key="60" vol="100" pos="288" pan="0"/>
          <note len="12" key="64" vol="100" pos="300" pan="0"/>
          <note len="12" key="62" vol="100" pos="312" pan="0"/>
          <note len="12" key="60" vol="100" pos="324" pan="0"/>
          <note len="12" key="62" vol="100" pos="336" pan="0"/>
          <note len="12" key="59" vol="100" pos="348" pan="0"/>
          <note len="12" key="62" vol="100" pos="360" pan="0"/>
          <note len="12" key="64" vol="100" pos="372" pan="0"/>
        </pattern>
        <pattern muted="0" steps="16" type="1" name="mda Piano" pos="5760">
          <note len="12" key="60" vol="100" pos="0" pan="0"/>
          <note len="12" key="62" vol="100" pos="12" pan="0"/>
          <note len="12" key="64" vol="100" pos="24" pan="0"/>
          <note len="12" key="60" vol="100" pos="36" pan="0"/>
          <note len="12" key="62" vol="100" pos="48" pan="0"/>
          <note len="12" key="65" vol="100" pos="60" pan="0"/>
          <note len="12" key="64" vol="100" pos="72" pan="0"/>
          <note len="12" key="62" vol="100" pos="84" pan="0"/>
          <note len="12" key="60" vol="100" pos="96" pan="0"/>
          <note len="12" key="64" vol="100" pos="108" pan="0"/>
          <note len="12" key="62" vol="100" pos="120" pan="0"/>
          <note len="12" key="60" vol="100" pos="132" pan="0"/>
          <note len="12" key="62" vol="100" pos="144" pan="0"/>
          <note len="12" key="59" vol="100" pos="156" pan="0"/>
          <note len="12" key="62" vol="100" pos="168" pan="0"/>
          <note len="12" key="55" vol="100" pos="180" pan="0"/>
          <note len="12" key="60" vol="100" pos="192" pan="0"/>
          <note len="12" key="62" vol="100" pos="204" pan="0"/>
          <note len="12" key="64" vol="100" pos="216" pan="0"/>
          <note len="12" key="60" vol="100" pos="228" pan="0"/>
          <note len="12" key="62" vol="100" pos="240" pan="0"/>
          <note len="12" key="65" vol="100" pos="252" pan="0"/>
          <note len="12" key="64" vol="100" pos="264" pan="0"/>
          <note len="12" key="62" vol="100" pos="276" pan="0"/>
          <note len="12" key="60" vol="100" pos="288" pan="0"/>
          <note len="12" key="64" vol="100" pos="300" pan="0"/>
          <note len="12" key="62" vol="100" pos="312" pan="0"/>
          <note len="12" key="60" vol="100" pos="324" pan="0"/>
          <note len="12" key="62" vol="100" pos="336" pan="0"/>
          <note len="12" key="59" vol="100" pos="348" pan="0"/>
          <note len="12" key="62" vol="100" pos="360" pan="0"/>
          <note len="12" key="64" vol="100" pos="372" pan="0"/>
        </pattern>
        <pattern muted="0" steps="16" type="1" name="mda Piano" pos="6144">
          <note len="12" key="60" vol="100" pos="0" pan="0"/>
          <note len="12" key="62" vol="100" pos="12" pan="0"/>
          <note len="12" key="64" vol="100" pos="24" pan="0"/>
          <note len="12" key="60" vol="100" pos="36" pan="0"/>
          <note len="12" key="62" vol="100" pos="48" pan="0"/>
          <note len="12" key="65" vol="100" pos="60" pan="0"/>
          <note len="12" key="64" vol="100" pos="72" pan="0"/>
          <note len="12" key="62" vol="100" pos="84" pan="0"/>
          <note len="12" key="60" vol="100" pos="96" pan="0"/>
          <note len="12" key="64" vol="100" pos="108" pan="0"/>
          <note len="12" key="62" vol="100" pos="120" pan="0"/>
          <note len="12" key="60" vol="100" pos="132" pan="0"/>
          <note len="12" key="62" vol="100" pos="144" pan="0"/>
          <note len="12" key="59" vol="100" pos="156" pan="0"/>
          <note len="12" key="62" vol="100" pos="168" pan="0"/>
          <note len="12" key="55" vol="100" pos="180" pan="0"/>
          <note len="12" key="60" vol="100" pos="192" pan="0"/>
          <note len="12" key="62" vol="100" pos="204" pan="0"/>
          <note len="12" key="64" vol="100" pos="216" pan="0"/>
          <note len="12" key="60" vol="100" pos="228" pan="0"/>
          <note len="12" key="62" vol="100" pos="240" pan="0"/>
          <note len="12" key="65" vol="100" pos="252" pan="0"/>
          <note len="12" key="64" vol="100" pos="264" pan="0"/>
          <note len="12" key="62" vol="100" pos="276" pan="0"/>
          <note len="12" key="60" vol="100" pos="288" pan="0"/>
          <note len="12" key="64" vol="100" pos="300" pan="0"/>
          <note len="12" key="62" vol="100" pos="312" pan="0"/>
          <note len="12" key="60" vol="100" pos="324" pan="0"/>
          <note len="12" key="62" vol="100" pos="336" pan="0"/>
          <note len="12" key="59" vol="100" pos="348" pan="0"/>
          <note len="12" key="62" vol="100" pos="360" pan="0"/>
          <note len="12" key="64" vol="100" pos="372" pan="0"/>
        </pattern>
        <pattern muted="0" steps="16" type="1" name="mda Piano" pos="6528">
          <note len="12" key="60" vol="100" pos="0" pan="0"/>
          <note len="12" key="62" vol="100" pos="12" pan="0"/>
          <note len="12" key="64" vol="100" pos="24" pan="0"/>
          <note len="12" key="60" vol="100" pos="36" pan="0"/>
          <note len="12" key="62" vol="100" pos="48" pan="0"/>
          <note len="12" key="65" vol="100" pos="60" pan="0"/>
          <note len="12" key="64" vol="100" pos="72" pan="0"/>
          <note len="12" key="62" vol="100" pos="84" pan="0"/>
          <note len="12" key="60" vol="100" pos="96" pan="0"/>
          <note len="12" key="64" vol="100" pos="108" pan="0"/>
          <note len="12" key="62" vol="100" pos="120" pan="0"/>
          <note len="12" key="60" vol="100" pos="132" pan="0"/>
          <note len="12" key="62" vol="100" pos="144" pan="0"/>
          <note len="12" key="59" vol="100" pos="156" pan="0"/>
          <note len="12" key="62" vol="100" pos="168" pan="0"/>
          <note len="12" key="55" vol="100" pos="180" pan="0"/>
          <note len="12" key="60" vol="100" pos="192" pan="0"/>
          <note len="12" key="62" vol="100" pos="204" pan="0"/>
          <note len="12" key="64" vol="100" pos="216" pan="0"/>
          <note len="12" key="60" vol="100" pos="228" pan="0"/>
          <note len="12" key="62" vol="100" pos="240" pan="0"/>
          <note len="12" key="65" vol="100" pos="252" pan="0"/>
          <note len="12" key="64" vol="100" pos="264" pan="0"/>
          <note len="12" key="62" vol="100" pos="276" pan="0"/>
          <note len="12" key="60" vol="100" pos="288" pan="0"/>
          <note len="12" key="64" vol="100" pos="300" pan="0"/>
          <note len="12" key="62" vol="100" pos="312" pan="0"/>
          <note len="12" key="60" vol="100" pos="324" pan="0"/>
          <note len="12" key="62" vol="100" pos="336" pan="0"/>
          <note len="12" key="59" vol="100" pos="348" pan="0"/>
          <note len="12" key="62" vol="100" pos="360" pan="0"/>
          <note len="12" key="64" vol="100" pos="372" pan="0"/>
        </pattern>
        <pattern muted="0" steps="16" type="1" name="mda Piano" pos="6912">
          <note len="12" key="60" vol="100" pos="0" pan="0"/>
          <note len="12" key="62" vol="100" pos="12" pan="0"/>
          <note len="12" key="64" vol="100" pos="24" pan="0"/>
          <note len="12" key="60" vol="100" pos="36" pan="0"/>
          <note len="12" key="62" vol="100" pos="48" pan="0"/>
          <note len="12" key="65" vol="100" pos="60" pan="0"/>
          <note len="12" key="64" vol="100" pos="72" pan="0"/>
          <note len="12" key="62" vol="100" pos="84" pan="0"/>
          <note len="12" key="60" vol="100" pos="96" pan="0"/>
          <note len="12" key="64" vol="100" pos="108" pan="0"/>
          <note len="12" key="62" vol="100" pos="120" pan="0"/>
          <note len="12" key="60" vol="100" pos="132" pan="0"/>
          <note len="12" key="62" vol="100" pos="144" pan="0"/>
          <note len="12" key="59" vol="100" pos="156" pan="0"/>
          <note len="12" key="62" vol="100" pos="168" pan="0"/>
          <note len="12" key="55" vol="100" pos="180" pan="0"/>
          <note len="12" key="60" vol="100" pos="192" pan="0"/>
          <note len="12" key="62" vol="100" pos="204" pan="0"/>
          <note len="12" key="64" vol="100" pos="216" pan="0"/>
          <note len="12" key="60" vol="100" pos="228" pan="0"/>
          <note len="12" key="62" vol="100" pos="240" pan="0"/>
          <note len="12" key="65" vol="100" pos="252" pan="0"/>
          <note len="12" key="64" vol="100" pos="264" pan="0"/>
          <note len="12" key="62" vol="100" pos="276" pan="0"/>
          <note len="12" key="60" vol="100" pos="288" pan="0"/>
          <note len="12" key="64" vol="100" pos="300" pan="0"/>
          <note len="12" key="62" vol="100" pos="312" pan="0"/>
          <note len="12" key="60" vol="100" pos="324" pan="0"/>
          <note len="12" key="62" vol="100" pos="336" pan="0"/>
          <note len="12" key="59" vol="100" pos="348" pan="0"/>
          <note len="12" key="62" vol="100" pos="360" pan="0"/>
          <note len="12" key="64" vol="100" pos="372" pan="0"/>
        </pattern>
        <pattern muted="0" steps="16" type="1" name="mda Piano" pos="7296">
          <note len="12" key="60" vol="100" pos="0" pan="0"/>
          <note len="12" key="62" vol="100" pos="12" pan="0"/>
          <note len="12" key="64" vol="100" pos="24" pan="0"/>
          <note len="12" key="60" vol="100" pos="36" pan="0"/>
          <note len="12" key="62" vol="100" pos="48" pan="0"/>
          <note len="12" key="65" vol="100" pos="60" pan="0"/>
          <note len="12" key="64" vol="100" pos="72" pan="0"/>
          <note len="12" key="62" vol="100" pos="84" pan="0"/>
          <note len="12" key="60" vol="100" pos="96" pan="0"/>
          <note len="12" key="64" vol="100" pos="108" pan="0"/>
          <note len="12" key="62" vol="100" pos="120" pan="0"/>
          <note len="12" key="60" vol="100" pos="132" pan="0"/>
          <note len="12" key="62" vol="100" pos="144" pan="0"/>
          <note len="12" key="59" vol="100" pos="156" pan="0"/>
          <note len="12" key="62" vol="100" pos="168" pan="0"/>
          <note len="12" key="55" vol="100" pos="180" pan="0"/>
          <note len="12" key="60" vol="100" pos="192" pan="0"/>
          <note len="12" key="62" vol="100" pos="204" pan="0"/>
          <note len="12" key="64" vol="100" pos="216" pan="0"/>
          <note len="12" key="60" vol="100" pos="228" pan="0"/>
          <note len="12" key="62" vol="100" pos="240" pan="0"/>
          <note len="12" key="65" vol="100" pos="252" pan="0"/>
          <note len="12" key="64" vol="100" pos="264" pan="0"/>
          <note len="12" key="62" vol="100" pos="276" pan="0"/>
          <note len="12" key="60" vol="100" pos="288" pan="0"/>
          <note len="12" key="64" vol="100" pos="300" pan="0"/>
          <note len="12" key="62" vol="100" pos="312" pan="0"/>
          <note len="12" key="60" vol="100" pos="324" pan="0"/>
          <note len="12" key="62" vol="100" pos="336" pan="0"/>
          <note len="12" key="59" vol="100" pos="348" pan="0"/>
          <note len="12" key="62" vol="100" pos="360" pan="0"/>
          <note len="12" key="64" vol="100" pos="372" pan="0"/>
        </pattern>
        <pattern muted="0" steps="16" type="1" name="mda Piano" pos="7680">
          <note len="12" key="60" vol="100" pos="0" pan="0"/>
          <note len="12" key="62" vol="100" pos="12" pan="0"/>
          <note len="12" key="64" vol="100" pos="24" pan="0"/>
          <note len="12" key="60" vol="100" pos="36" pan="0"/>
          <note len="12" key="62" vol="100" pos="48" pan="0"/>
          <note len="12" key="65" vol="100" pos="60" pan="0"/>
          <note len="12" key="64" vol="100" pos="72" pan="0"/>
          <note len="12" key="62" vol="100" pos="84" pan="0"/>
          <note len="12" key="60" vol="100" pos="96" pan="0"/>
          <note len="12" key="64" vol="100" pos="108" pan="0"/>
          <note len="12" key="62" vol="100" pos="120" pan="0"/>
          <note len="12" key="60" vol="100" pos="132" pan="0"/>
          <note len="12" key="62" vol="100" pos="144" pan="0"/>
          <note len="12" key="59" vol="100" pos="156" pan="0"/>
          <note len="12" key="62" vol="100" pos="168" pan="0"/>
          <note len="12" key="55" vol="100" pos="180" pan="0"/>
          <note len="12" key="60" vol="100" pos="192" pan="0"/>
          <note len="12" key="62" vol="100" pos="204" pan="0"/>
          <note len="12" key="64" vol="100" pos="216" pan="0"/>
          <note len="12" key="60" vol="100" pos="228" pan="0"/>
          <note len="12" key="62" vol="100" pos="240" pan="0"/>
          <note len="12" key="65" vol="100" pos="252" pan="0"/>
          <note len="12" key="64" vol="100" pos="264" pan="0"/>
          <note len="12" key="62" vol="100" pos="276" pan="0"/>
          <note len="12" key="60" vol="100" pos="288" pan="0"/>
          <note len="12" key="64" vol="100" pos="300" pan="0"/>
          <note len="12" key="62" vol="100" pos="312" pan="0"/>
          <note len="12" key="60" vol="100" pos="324" pan="0"/>
          <note len="12" key="62" vol="100" pos="336" pan="0"/>
          <note len="12" key="59" vol="100" pos="348" pan="0"/>
          <note len="12" key="62" vol="100" pos="360" pan="0"/>
          <note len="12" key="64" vol="100" pos="372" pan="0"/>
        </pattern>
        <pattern muted="0" steps="16" type="1" name="mda Piano" pos="8064">
          <note len="12" key="60" vol="100" pos="0" pan="0"/>
          <note len="12" key="62" vol="100" pos="12" pan="0"/>
          <note len="12" key="64" vol="100" pos="24" pan="0"/>
          <note len="12" key="60" vol="100" pos="36" pan="0"/>
          <note len="12" key="62" vol="100" pos="48" pan="0"/>
          <note len="12" key="65" vol="100" pos="60" pan="0"/>
          <note len="12" key="64" vol="100" pos="72" pan="0"/>
          <note len="12" key="62" vol="100" pos="84" pan="0"/>
          <note len="12" key="60" vol="100" pos="96" pan="0"/>
          <note len="12" key="64" vol="100" pos="108" pan="0"/>
          <note len="12" key="62" vol="100" pos="120" pan="0"/>
          <note len="12" key="60" vol="100" pos="132" pan="0"/>
          <note len="12" key="62" vol="100" pos="144" pan="0"/>
          <note len="12" key="59" vol="100" pos="156" pan="0"/>
          <note len="12" key="62" vol="100" pos="168" pan="0"/>
          <note len="12" key="55" vol="100" pos="180" pan="0"/>
          <note len="12" key="60" vol="100" pos="192" pan="0"/>
          <note len="12" key="62" vol="100" pos="204" pan="0"/>
          <note len="12" key="64" vol="100" pos="216" pan="0"/>
          <note len="12" key="60" vol="100" pos="228" pan="0"/>
          <note len="12" key="62" vol="100" pos="240" pan="0"/>
          <note len="12" key="65" vol="100" pos="252" pan="0"/>
          <note len="12" key="64" vol="100" pos="264" pan="0"/>
          <note len="12" key="62" vol="100" pos="276" pan="0"/>
          <note len="12" key="60" vol="100" pos="288" pan="0"/>
          <note len="12" key="64" vol="100" pos="300" pan="0"/>
          <note len="12" key="62" vol="100" pos="312" pan="0"/>
          <note len="12" key="60" vol="100" pos="324" pan="0"/>
          <note len="12" key="62" vol="100" pos="336" pan="0"/>
          <note len="12" key="59" vol="100" pos="348" pan="0"/>
          <note len="12" key="62" vol="100" pos="360" pan="0"/>
          <note len="12" key="64" vol="100" pos="372" pan="0"/>
        </pattern>
        <pattern muted="0" steps="16" type="1" name="mda Piano" pos="8448">
          <note len="12" key="60" vol="100" pos="0" pan="0"/>
          <note len="12" key="62" vol="100" pos="12" pan="0"/>
          <note len="12" key="64" vol="100" pos="24" pan="0"/>
          <note len="12" key="60" vol="100" pos="36" pan="0"/>
          <note len="12" key="62" vol="100" pos="48" pan="0"/>
          <note len="12" key="65" vol="100" pos="60" pan="0"/>
          <note len="12" key="64" vol="100" pos="72" pan="0"/>
          <note len="12" key="62" vol="100" pos="84" pan="0"/>
          <note len="12" key="60" vol="100" pos="96" pan="0"/>
          <note len="12" key="64" vol="100" pos="108" pan="0"/>
          <note len="12" key="62" vol="100" pos="120" pan="0"/>
          <note len="12" key="60" vol="100" pos="132" pan="0"/>
          <note len="12" key="62" vol="100" pos="144" pan="0"/>
          <note len="12" key="59" vol="100" pos="156" pan="0"/>
          <note len="12" key="62" vol="100" pos="168" pan="0"/>
          <note len="12" key="55" vol="100" pos="180" pan="0"/>
          <note len="12" key="60" vol="100" pos="192" pan="0"/>
          <note len="12" key="62" vol="100" pos="204" pan="0"/>
          <note len="12" key="64" vol="100" pos="216" pan="0"/>
          <note len="12" key="60" vol="100" pos="228" pan="0"/>
          <note len="12" key="62" vol="100" pos="240" pan="0"/>
          <note len="12" key="65" vol="100" pos="252" pan="0"/>
          <note len="12" key="64" vol="100" pos="264" pan="0"/>
          <note len="12" key="62" vol="100" pos="276" pan="0"/>
          <note len="12" key="60" vol="100" pos="288" pan="0"/>
          <note len="12" key="64" vol="100" pos="300" pan="0"/>
          <note len="12" key="62" vol="100" pos="312" pan="0"/>
          <note len="12" key="60" vol="100" pos="324" pan="0"/>
          <note len="12" key="62" vol="100" pos="336" pan="0"/>
          <note len="12" key="59" vol="100" pos="348" pan="0"/>
          <note len="12" key="62" vol="100" pos="360" pan="0"/>
          <note len="12" key="64" vol="100" pos="372" pan="0"/>
        </pattern>
        <pattern muted="0" steps="16" type="1" name="mda Piano" pos="8832">
          <note len="12" key="60" vol="100" pos="0" pan="0"/>
          <note len="12" key="62" vol="100" pos="12" pan="0"/>
          <note len="12" key="64" vol="100" pos="24" pan="0"/>
          <note len="12" key="60" vol="100" pos="36" pan="0"/>
          <note len="12" key="62" vol="100" pos="48" pan="0"/>
          <note len="12" key="65" vol="100" pos="60" pan="0"/>
          <note len="12" key="64" vol="100" pos="72" pan="0"/>
          <note len="12" key="62" vol="100" pos="84" pan="0"/>
          <note len="12" key="60" vol="100" pos="96" pan="0"/>
          <note len="12" key="64" vol="100" pos="108" pan="0"/>
          <note len="12" key="62" vol="100" pos="120" pan="0"/>
          <note len="12" key="60" vol="100" pos="132" pan="0"/>
          <note len="12" key="62" vol="100" pos="144" pan="0"/>
          <note len="12" key="59" vol="100" pos="156" pan="0"/>
          <note len="12" key="62" vol="100" pos="168" pan="0"/>
          <note len="12" key="55" vol="100" pos="180" pan="0"/>
          <note len="12" key="60" vol="100" pos="192" pan="0"/>
          <note len="12" key="62" vol="100" pos="204" pan="0"/>
          <note len="12" key="64" vol="100" pos="216" pan="0"/>
          <note len="12" key="60" vol="100" pos="228" pan="0"/>
          <note len="12" key="62" vol="100" pos="240" pan="0"/>
          <note len="12" key="65" vol="100" pos="252" pan="0"/>
          <note len="12" key="64" vol="100" pos="264" pan="0"/>
          <note len="12" key="62" vol="100" pos="276" pan="0"/>
          <note len="12" key="60" vol="100" pos="288" pan="0"/>
          <note len="12" key="64" vol="100" pos="300" pan="0"/>
          <note len="12" key="62" vol="100" pos="312" pan="0"/>
          <note len="12" key="60" vol="100" pos="324" pan="0"/>
          <note len="12" key="62" vol="100" pos="336" pan="0"/>
          <note len="12" key="59" vol="100" pos="348" pan="0"/>
          <note len="12" key="62" vol="100" pos="360" pan="0"/>
          <note len="12" key="64" vol="100" pos="372" pan="0"/>
        </pattern>
        <pattern muted="0" steps="16" type="1" name="mda Piano" pos="9216">
          <note len="12" key="60" vol="100" pos="0" pan="0"/>
          <note len="12" key="62" vol="100" pos="12" pan="0"/>
          <note len="12" key="64" vol="100" pos="24" pan="0"/>
          <note len="12" key="60" vol="100" pos="36" pan="0"/>
          <note len="12" key="62" vol="100" pos="48" pan="0"/>
          <note len="12" key="65" vol="100" pos="60" pan="0"/>
          <note len="12" key="64" vol="100" pos="72" pan="0"/>
          <note len="12" key="62" vol="100" pos="84" pan="0"/>
          <note len="12" key="60" vol="100" pos="96" pan="0"/>
          <note len="12" key="64" vol="100" pos="108" pan="0"/>
          <note len="12" key="62" vol="100" pos="120" pan="0"/>
          <note len="12" key="60" vol="100" pos="132" pan="0"/>
          <note len="12" key="62" vol="100" pos="144" pan="0"/>
          <note len="12" key="59" vol="100" pos="156" pan="0"/>
          <note len="12" key="62" vol="100" pos="168" pan="0"/>
          <note len="12" key="55" vol="100" pos="180" pan="0"/>
          <note len="12" key="60" vol="100" pos="192" pan="0"/>
          <note len="12" key="62" vol="100" pos="204" pan="0"/>
          <note len="12" key="64" vol="100" pos="216" pan="0"/>
          <note len="12" key="60" vol="100" pos="228" pan="0"/>
          <note len="12" key="62" vol="100" pos="240" pan="0"/>
          <note len="12" key="65" vol="100" pos="252" pan="0"/>
          <note len="12" key="64" vol="100" pos="264" pan="0"/>
          <note len="12" key="62" vol="100" pos="276" pan="0"/>
          <note len="12" key="60" vol="100" pos="288" pan="0"/>
          <note len="12" key="64" vol="100" pos="300" pan="0"/>
          <note len="12" key="62" vol="100" pos="312" pan="0"/>
          <note len="12" key="60" vol="100" pos="324" pan="0"/>
          <note len="12" key="62" vol="100" pos="336" pan="0"/>
          <note len="12" key="59" vol="100" pos="348" pan="0"/>
          <note len="12" key="62" vol="100" pos="360" pan="0"/>
          <note len="12" key="64" vol="100" pos="372" pan="0"/>
        </pattern>
        <pattern muted="0" steps="16" type="1" name="mda Piano" pos="10368">
          <note len="192" key="60" vol="100" pos="0" pan="0"/>
        </pattern>
        <pattern muted="0" steps="16" type="1" name="mda Piano" pos="9600">
          <note len="12" key="60" vol="100" pos="0" pan="0"/>
          <note len="12" key="62" vol="100" pos="12" pan="0"/>
          <note len="12" key="64" vol="100" pos="24" pan="0"/>
          <note len="12" key="60" vol="100" pos="36" pan="0"/>
          <note len="12" key="62" vol="100" pos="48" pan="0"/>
          <note len="12" key="65" vol="100" pos="60" pan="0"/>
          <note len="12" key="64" vol="100" pos="72" pan="0"/>
          <note len="12" key="62" vol="100" pos="84" pan="0"/>
          <note len="12" key="60" vol="100" pos="96" pan="0"/>
          <note len="12" key="64" vol="100" pos="108" pan="0"/>
          <note len="12" key="62" vol="100" pos="120" pan="0"/>
          <note len="12" key="60" vol="100" pos="132" pan="0"/>
          <note len="12" key="62" vol="100" pos="144" pan="0"/>
          <note len="12" key="59" vol="100" pos="156" pan="0"/>
          <note len="12" key="62" vol="100" pos="168" pan="0"/>
          <note len="12" key="55" vol="100" pos="180" pan="0"/>
          <note len="12" key="60" vol="100" pos="192" pan="0"/>
          <note len="12" key="62" vol="100" pos="204" pan="0"/>
          <note len="12" key="64" vol="100" pos="216" pan="0"/>
          <note len="12" key="60" vol="100" pos="228" pan="0"/>
          <note len="12" key="62" vol="100" pos="240" pan="0"/>
          <note len="12" key="65" vol="100" pos="252" pan="0"/>
          <note len="12" key="64" vol="100" pos="264" pan="0"/>
          <note len="12" key="62" vol="100" pos="276" pan="0"/>
          <note len="12" key="60" vol="100" pos="288" pan="0"/>
          <note len="12" key="64" vol="100" pos="300" pan="0"/>
          <note len="12" key="62" vol="100" pos="312" pan="0"/>
          <note len="12" key="60" vol="100" pos="324" pan="0"/>
          <note len="12" key="62" vol="100" pos="336" pan="0"/>
          <note len="12" key="59" vol="100" pos="348" pan="0"/>
          <note len="12" key="62" vol="100" pos="360" pan="0"/>
          <note len="12" key="64" vol="100" pos="372" pan="0"/>
        </pattern>
        <pattern muted="0" steps="16" type="1" name="mda Piano" pos="9984">
          <note len="12" key="60" vol="100" pos="0" pan="0"/>
          <note len="12" key="62" vol="100" pos="12" pan="0"/>
          <note len="12" key="64" vol="100" pos="24" pan="0"/>
          <note len="12" key="60" vol="100" pos="36" pan="0"/>
          <note len="12" key="62" vol="100" pos="48" pan="0"/>
          <note len="12" key="65" vol="100" pos="60" pan="0"/>
          <note len="12" key="64" vol="100" pos="72" pan="0"/>
          <note len="12" key="62" vol="100" pos="84" pan="0"/>
          <note len="12" key="60" vol="100" pos="96" pan="0"/>
          <note len="12" key="64" vol="100" pos="108" pan="0"/>
          <note len="12" key="62" vol="100" pos="120" pan="0"/>
          <note len="12" key="60" vol="100" pos="132" pan="0"/>
          <note len="12" key="62" vol="100" pos="144" pan="0"/>
          <note len="12" key="59" vol="100" pos="156" pan="0"/>
          <note len="12" key="62" vol="100" pos="168" pan="0"/>
          <note len="12" key="55" vol="100" pos="180" pan="0"/>
          <note len="12" key="60" vol="100" pos="192" pan="0"/>
          <note len="12" key="62" vol="100" pos="204" pan="0"/>
          <note len="12" key="64" vol="100" pos="216" pan="0"/>
          <note len="12" key="60" vol="100" pos="228" pan="0"/>
          <note len="12" key="62" vol="100" pos="240" pan="0"/>
          <note len="12" key="65" vol="100" pos="252" pan="0"/>
          <note len="12" key="64" vol="100" pos="264" pan="0"/>
          <note len="12" key="62" vol="100" pos="276" pan="0"/>
          <note len="12" key="60" vol="100" pos="288" pan="0"/>
          <note len="12" key="64" vol="100" pos="300" pan="0"/>
          <note len="12" key="62" vol="100" pos="312" pan="0"/>
          <note len="12" key="60" vol="100" pos="324" pan="0"/>
          <note len="12" key="62" vol="100" pos="336" pan="0"/>
          <note len="12" key="59" vol="100" pos="348" pan="0"/>
          <note len="12" key="62" vol="100" pos="360" pan="0"/>
          <note len="12" key="64" vol="100" pos="372" pan="0"/>
        </pattern>
      </track>
      <track muted="0" type="1" name="Beat/Bassline 0" solo="0">
        <bbtrack>
          <trackcontainer height="400" visible="1" type="bbtrackcontainer" x="272" maximized="0" y="425" minimized="0" width="700">
            <track muted="1" type="0" name="clap01.ogg" solo="0">
              <instrumenttrack pitch="0" usemasterpitch="1" vol="50" fxch="0" pitchrange="1" basenote="63" pan="0">
                <instrument name="audiofileprocessor">
                  <audiofileprocessor amp="100" stutter="0" interp="1" looped="0" sframe="0" reversed="0" lframe="0" eframe="1" src="drums/clap01.ogg"/>
                </instrument>
                <eldata ftype="0" fwet="0" fres="0.5" fcut="14000">
                  <elvol lspd="0.1" pdel="0" hold="0.5" lspd_syncmode="0" userwavefile="" rel="0.1" latt="0" lspd_denominator="4" dec="0.5" lpdel="0" lamt="0" ctlenvamt="0" att="0" lspd_numerator="4" amt="0" lshp="0" sustain="0.5" x100="0"/>
                  <elcut lspd="0.1" pdel="0" hold="0.5" lspd_syncmode="0" userwavefile="" rel="0.1" latt="0" lspd_denominator="4" dec="0.5" lpdel="0" lamt="0" ctlenvamt="0" att="0" lspd_numerator="4" amt="0" lshp="0" sustain="0.5" x100="0"/>
                  <elres lspd="0.1" pdel="0" hold="0.5" lspd_syncmode="0" userwavefile="" rel="0.1" latt="0" lspd_denominator="4" dec="0.5" lpdel="0" lamt="0" ctlenvamt="0" att="0" lspd_numerator="4" amt="0" lshp="0" sustain="0.5" x100="0"/>
                </eldata>
                <chordcreator chordrange="1" chord="0" chord-enabled="0"/>
                <arpeggiator arpmiss="0" arpmode="0" arptime_denominator="4" arpdir="0" arp="0" arpskip="0" arptime="200" arptime_numerator="4" arpgate="100" arpcycle="0" arp-enabled="0" arptime_syncmode="0" arprange="1"/>
                <midiport outputcontroller="0" fixedoutputvelocity="-1" basevelocity="63" fixedoutputnote="-1" readable="0" writable="0" outputchannel="1" fixedinputvelocity="-1" inputchannel="0" inputcontroller="0" outputprogram="1"/>
                <fxchain numofeffects="0" enabled="0"/>
              </instrumenttrack>
              <pattern muted="0" steps="16" type="0" name="clap01.ogg" pos="0"/>
              <pattern muted="0" steps="16" type="0" name="clap01.ogg" pos="192">
                <note len="-192" key="57" vol="100" pos="12" pan="0"/>
                <note len="-192" key="57" vol="100" pos="60" pan="0"/>
                <note len="-192" key="57" vol="100" pos="108" pan="0"/>
                <note len="-192" key="57" vol="100" pos="156" pan="0"/>
              </pattern>
              <pattern muted="0" steps="16" type="0" name="clap01.ogg" pos="384"/>
            </track>
            <track muted="0" type="0" name="bassdrum04.ogg" solo="0">
              <instrumenttrack pitch="0" usemasterpitch="1" fxch="0" pitchrange="1" basenote="57" pan="0">
                <vol id="2366751" scale_type="linear" value="25"/>
                <instrument name="audiofileprocessor">
                  <audiofileprocessor amp="100" stutter="0" interp="1" looped="0" sframe="0" reversed="0" lframe="0" eframe="1" src="drums/bassdrum04.ogg"/>
                </instrument>
                <eldata ftype="0" fwet="0" fres="0.5" fcut="14000">
                  <elvol lspd="0.1" pdel="0" hold="0.5" lspd_syncmode="0" userwavefile="" rel="0.1" latt="0" lspd_denominator="4" dec="0.5" lpdel="0" lamt="0" ctlenvamt="0" att="0" lspd_numerator="4" amt="0" lshp="0" sustain="0.5" x100="0"/>
                  <elcut lspd="0.1" pdel="0" hold="0.5" lspd_syncmode="0" userwavefile="" rel="0.1" latt="0" lspd_denominator="4" dec="0.5" lpdel="0" lamt="0" ctlenvamt="0" att="0" lspd_numerator="4" amt="0" lshp="0" sustain="0.5" x100="0"/>
                  <elres lspd="0.1" pdel="0" hold="0.5" lspd_syncmode="0" userwavefile="" rel="0.1" latt="0" lspd_denominator="4" dec="0.5" lpdel="0" lamt="0" ctlenvamt="0" att="0" lspd_numerator="4" amt="0" lshp="0" sustain="0.5" x100="0"/>
                </eldata>
                <chordcreator chordrange="1" chord="0" chord-enabled="0"/>
                <arpeggiator arpmiss="0" arpmode="0" arptime_denominator="4" arpdir="0" arp="0" arpskip="0" arptime="200" arptime_numerator="4" arpgate="100" arpcycle="0" arp-enabled="0" arptime_syncmode="0" arprange="1"/>
                <midiport outputcontroller="0" fixedoutputvelocity="-1" basevelocity="63" fixedoutputnote="-1" readable="0" writable="0" outputchannel="1" fixedinputvelocity="-1" inputchannel="0" inputcontroller="0" outputprogram="1"/>
                <fxchain numofeffects="0" enabled="0"/>
              </instrumenttrack>
              <pattern muted="0" steps="16" type="0" name="bassdrum04.ogg" pos="0">
                <note len="-192" key="57" vol="100" pos="0" pan="0"/>
                <note len="-192" key="57" vol="100" pos="48" pan="0"/>
                <note len="-192" key="57" vol="100" pos="96" pan="0"/>
                <note len="-192" key="57" vol="100" pos="144" pan="0"/>
              </pattern>
              <pattern muted="0" steps="16" type="0" name="bassdrum04.ogg" pos="192"/>
              <pattern muted="0" steps="16" type="0" name="bassdrum04.ogg" pos="384"/>
            </track>
            <track muted="0" type="0" name="hihat_closed01.ogg" solo="0">
              <instrumenttrack pitch="0" usemasterpitch="1" vol="11" fxch="3" pitchrange="1" basenote="57" pan="0">
                <instrument name="audiofileprocessor">
                  <audiofileprocessor amp="100" stutter="0" interp="1" looped="0" sframe="0" reversed="0" lframe="0" eframe="1" src="drums/hihat_closed01.ogg"/>
                </instrument>
                <eldata ftype="0" fwet="0" fres="0.5" fcut="14000">
                  <elvol lspd="0.1" pdel="0" hold="0.5" lspd_syncmode="0" userwavefile="" rel="0.1" latt="0" lspd_denominator="4" dec="0.5" lpdel="0" lamt="0" ctlenvamt="0" att="0" lspd_numerator="4" amt="0" lshp="0" sustain="0.5" x100="0"/>
                  <elcut lspd="0.1" pdel="0" hold="0.5" lspd_syncmode="0" userwavefile="" rel="0.1" latt="0" lspd_denominator="4" dec="0.5" lpdel="0" lamt="0" ctlenvamt="0" att="0" lspd_numerator="4" amt="0" lshp="0" sustain="0.5" x100="0"/>
                  <elres lspd="0.1" pdel="0" hold="0.5" lspd_syncmode="0" userwavefile="" rel="0.1" latt="0" lspd_denominator="4" dec="0.5" lpdel="0" lamt="0" ctlenvamt="0" att="0" lspd_numerator="4" amt="0" lshp="0" sustain="0.5" x100="0"/>
                </eldata>
                <chordcreator chordrange="1" chord="0" chord-enabled="0"/>
                <arpeggiator arpmiss="0" arpmode="0" arptime_denominator="4" arpdir="0" arp="0" arpskip="0" arptime="200" arptime_numerator="4" arpgate="100" arpcycle="0" arp-enabled="0" arptime_syncmode="0" arprange="1"/>
                <midiport outputcontroller="0" fixedoutputvelocity="-1" basevelocity="63" fixedoutputnote="-1" readable="0" writable="0" outputchannel="1" fixedinputvelocity="-1" inputchannel="0" inputcontroller="0" outputprogram="1"/>
                <fxchain numofeffects="0" enabled="0"/>
              </instrumenttrack>
              <pattern muted="0" steps="16" type="0" name="hihat_closed01.ogg" pos="0"/>
              <pattern muted="0" steps="16" type="0" name="hihat_closed01.ogg" pos="192"/>
              <pattern muted="0" steps="16" type="0" name="hihat_closed01.ogg" pos="384">
                <note len="-192" key="57" vol="100" pos="36" pan="0"/>
                <note len="-192" key="57" vol="100" pos="72" pan="0"/>
                <note len="-192" key="57" vol="100" pos="132" pan="0"/>
                <note len="-192" key="57" vol="100" pos="168" pan="0"/>
              </pattern>
            </track>
            <track muted="0" type="0" name="hihat_opened01.ogg" solo="0">
              <instrumenttrack pitch="0" usemasterpitch="1" vol="11" fxch="3" pitchrange="1" basenote="57" pan="0">
                <instrument name="audiofileprocessor">
                  <audiofileprocessor amp="100" stutter="0" interp="1" looped="0" sframe="0" reversed="0" lframe="0" eframe="1" src="drums/hihat_opened01.ogg"/>
                </instrument>
                <eldata ftype="0" fwet="0" fres="0.5" fcut="14000">
                  <elvol lspd="0.1" pdel="0" hold="0.5" lspd_syncmode="0" userwavefile="" rel="0.1" latt="0" lspd_denominator="4" dec="0.5" lpdel="0" lamt="0" ctlenvamt="0" att="0" lspd_numerator="4" amt="0" lshp="0" sustain="0.5" x100="0"/>
                  <elcut lspd="0.1" pdel="0" hold="0.5" lspd_syncmode="0" userwavefile="" rel="0.1" latt="0" lspd_denominator="4" dec="0.5" lpdel="0" lamt="0" ctlenvamt="0" att="0" lspd_numerator="4" amt="0" lshp="0" sustain="0.5" x100="0"/>
                  <elres lspd="0.1" pdel="0" hold="0.5" lspd_syncmode="0" userwavefile="" rel="0.1" latt="0" lspd_denominator="4" dec="0.5" lpdel="0" lamt="0" ctlenvamt="0" att="0" lspd_numerator="4" amt="0" lshp="0" sustain="0.5" x100="0"/>
                </eldata>
                <chordcreator chordrange="1" chord="0" chord-enabled="0"/>
                <arpeggiator arpmiss="0" arpmode="0" arptime_denominator="4" arpdir="0" arp="0" arpskip="0" arptime="200" arptime_numerator="4" arpgate="100" arpcycle="0" arp-enabled="0" arptime_syncmode="0" arprange="1"/>
                <midiport outputcontroller="0" fixedoutputvelocity="-1" basevelocity="63" fixedoutputnote="-1" readable="0" writable="0" outputchannel="1" fixedinputvelocity="-1" inputchannel="0" inputcontroller="0" outputprogram="1"/>
                <fxchain numofeffects="0" enabled="0"/>
              </instrumenttrack>
              <pattern muted="0" steps="16" type="0" name="hihat_opened01.ogg" pos="0"/>
              <pattern muted="0" steps="16" type="0" name="hihat_opened01.ogg" pos="192"/>
              <pattern muted="0" steps="16" type="0" name="hihat_opened01.ogg" pos="384">
                <note len="-192" key="57" vol="100" pos="24" pan="0"/>
                <note len="-192" key="57" vol="100" pos="84" pan="0"/>
                <note len="-192" key="57" vol="100" pos="120" pan="0"/>
                <note len="-192" key="57" vol="100" pos="180" pan="0"/>
              </pattern>
            </track>
            <track muted="0" type="0" name="clap01.ogg" solo="0">
              <instrumenttrack pitch="0" usemasterpitch="1" vol="33.3" fxch="3" pitchrange="1" basenote="63" pan="0">
                <instrument name="audiofileprocessor">
                  <audiofileprocessor amp="100" stutter="0" interp="1" looped="0" sframe="0" reversed="0" lframe="0" eframe="1" src="drums/clap01.ogg"/>
                </instrument>
                <eldata ftype="0" fwet="0" fres="0.5" fcut="14000">
                  <elvol lspd="0.1" pdel="0" hold="0.5" lspd_syncmode="0" userwavefile="" rel="0.1" latt="0" lspd_denominator="4" dec="0.5" lpdel="0" lamt="0" ctlenvamt="0" att="0" lspd_numerator="4" amt="0" lshp="0" sustain="0.5" x100="0"/>
                  <elcut lspd="0.1" pdel="0" hold="0.5" lspd_syncmode="0" userwavefile="" rel="0.1" latt="0" lspd_denominator="4" dec="0.5" lpdel="0" lamt="0" ctlenvamt="0" att="0" lspd_numerator="4" amt="0" lshp="0" sustain="0.5" x100="0"/>
                  <elres lspd="0.1" pdel="0" hold="0.5" lspd_syncmode="0" userwavefile="" rel="0.1" latt="0" lspd_denominator="4" dec="0.5" lpdel="0" lamt="0" ctlenvamt="0" att="0" lspd_numerator="4" amt="0" lshp="0" sustain="0.5" x100="0"/>
                </eldata>
                <chordcreator chordrange="1" chord="0" chord-enabled="0"/>
                <arpeggiator arpmiss="0" arpmode="0" arptime_denominator="4" arpdir="0" arp="0" arpskip="0" arptime="200" arptime_numerator="4" arpgate="100" arpcycle="0" arp-enabled="0" arptime_syncmode="0" arprange="1"/>
                <midiport outputcontroller="0" fixedoutputvelocity="-1" basevelocity="63" fixedoutputnote="-1" readable="0" writable="0" outputchannel="1" fixedinputvelocity="-1" inputchannel="0" inputcontroller="0" outputprogram="1"/>
                <fxchain numofeffects="0" enabled="0"/>
              </instrumenttrack>
              <pattern muted="0" steps="16" type="0" name="clap01.ogg" pos="0"/>
              <pattern muted="0" steps="16" type="0" name="clap01.ogg" pos="192">
                <note len="-192" key="57" vol="100" pos="24" pan="0"/>
                <note len="-192" key="57" vol="100" pos="72" pan="0"/>
                <note len="-192" key="57" vol="100" pos="120" pan="0"/>
                <note len="-192" key="57" vol="100" pos="168" pan="0"/>
              </pattern>
              <pattern muted="0" steps="16" type="0" name="clap01.ogg" pos="384"/>
            </track>
          </trackcontainer>
        </bbtrack>
        <bbtco usestyle="1" len="192" muted="0" name="" pos="768" color="4286611584"/>
        <bbtco usestyle="1" len="192" muted="0" name="" pos="960" color="4286611584"/>
        <bbtco usestyle="1" len="192" muted="0" name="" pos="1152" color="4286611584"/>
        <bbtco usestyle="1" len="192" muted="0" name="" pos="1344" color="4286611584"/>
        <bbtco usestyle="1" len="192" muted="0" name="" pos="1536" color="4286611584"/>
        <bbtco usestyle="1" len="192" muted="0" name="" pos="1728" color="4286611584"/>
        <bbtco usestyle="1" len="192" muted="0" name="" pos="1920" color="4286611584"/>
        <bbtco usestyle="1" len="192" muted="0" name="" pos="2112" color="4286611584"/>
        <bbtco usestyle="1" len="192" muted="0" name="" pos="2304" color="4286611584"/>
        <bbtco usestyle="1" len="192" muted="0" name="" pos="2496" color="4286611584"/>
        <bbtco usestyle="1" len="192" muted="0" name="" pos="2688" color="4286611584"/>
        <bbtco usestyle="1" len="192" muted="0" name="" pos="2880" color="4286611584"/>
        <bbtco usestyle="1" len="192" muted="0" name="" pos="3072" color="4286611584"/>
        <bbtco usestyle="1" len="192" muted="0" name="" pos="3264" color="4286611584"/>
        <bbtco usestyle="1" len="192" muted="0" name="" pos="3456" color="4286611584"/>
        <bbtco usestyle="1" len="192" muted="0" name="" pos="3648" color="4286611584"/>
        <bbtco usestyle="1" len="192" muted="0" name="" pos="3840" color="4286611584"/>
        <bbtco usestyle="1" len="192" muted="0" name="" pos="4032" color="4286611584"/>
        <bbtco usestyle="1" len="192" muted="0" name="" pos="4224" color="4286611584"/>
        <bbtco usestyle="1" len="192" muted="0" name="" pos="4416" color="4286611584"/>
        <bbtco usestyle="1" len="192" muted="0" name="" pos="4608" color="4286611584"/>
        <bbtco usestyle="1" len="192" muted="0" name="" pos="4800" color="4286611584"/>
        <bbtco usestyle="1" len="192" muted="0" name="" pos="4992" color="4286611584"/>
        <bbtco usestyle="1" len="192" muted="0" name="" pos="5184" color="4286611584"/>
        <bbtco usestyle="1" len="192" muted="0" name="" pos="5376" color="4286611584"/>
        <bbtco usestyle="1" len="192" muted="0" name="" pos="5568" color="4286611584"/>
        <bbtco usestyle="1" len="192" muted="0" name="" pos="5760" color="4286611584"/>
        <bbtco usestyle="1" len="192" muted="0" name="" pos="5952" color="4286611584"/>
        <bbtco usestyle="1" len="192" muted="0" name="" pos="6144" color="4286611584"/>
        <bbtco usestyle="1" len="192" muted="0" name="" pos="6336" color="4286611584"/>
        <bbtco usestyle="1" len="192" muted="0" name="" pos="6528" color="4286611584"/>
        <bbtco usestyle="1" len="192" muted="0" name="" pos="6720" color="4286611584"/>
        <bbtco usestyle="1" len="192" muted="0" name="" pos="6912" color="4286611584"/>
        <bbtco usestyle="1" len="192" muted="0" name="" pos="7104" color="4286611584"/>
        <bbtco usestyle="1" len="192" muted="0" name="" pos="7296" color="4286611584"/>
        <bbtco usestyle="1" len="192" muted="0" name="" pos="7488" color="4286611584"/>
        <bbtco usestyle="1" len="192" muted="0" name="" pos="8256" color="4286611584"/>
        <bbtco usestyle="1" len="192" muted="0" name="" pos="8064" color="4286611584"/>
        <bbtco usestyle="1" len="192" muted="0" name="" pos="7872" color="4286611584"/>
        <bbtco usestyle="1" len="192" muted="0" name="" pos="7680" color="4286611584"/>
        <bbtco usestyle="1" len="192" muted="0" name="" pos="8448" color="4286611584"/>
        <bbtco usestyle="1" len="192" muted="0" name="" pos="8640" color="4286611584"/>
        <bbtco usestyle="1" len="192" muted="0" name="" pos="8832" color="4286611584"/>
        <bbtco usestyle="1" len="192" muted="0" name="" pos="9024" color="4286611584"/>
        <bbtco usestyle="1" len="192" muted="0" name="" pos="9216" color="4286611584"/>
        <bbtco usestyle="1" len="192" muted="0" name="" pos="9408" color="4286611584"/>
        <bbtco usestyle="1" len="192" muted="0" name="" pos="9600" color="4286611584"/>
        <bbtco usestyle="1" len="192" muted="0" name="" pos="9792" color="4286611584"/>
      </track>
      <track muted="0" type="1" name="/Bassline 1" solo="0">
        <bbtrack/>
        <bbtco usestyle="1" len="192" muted="0" name="" pos="1536" color="4286611584"/>
        <bbtco usestyle="1" len="192" muted="0" name="" pos="1728" color="4286611584"/>
        <bbtco usestyle="1" len="192" muted="0" name="" pos="1920" color="4286611584"/>
        <bbtco usestyle="1" len="192" muted="0" name="" pos="2112" color="4286611584"/>
        <bbtco usestyle="1" len="192" muted="0" name="" pos="2304" color="4286611584"/>
        <bbtco usestyle="1" len="192" muted="0" name="" pos="2496" color="4286611584"/>
        <bbtco usestyle="1" len="192" muted="0" name="" pos="2688" color="4286611584"/>
        <bbtco usestyle="1" len="192" muted="0" name="" pos="2880" color="4286611584"/>
        <bbtco usestyle="1" len="192" muted="0" name="" pos="3072" color="4286611584"/>
        <bbtco usestyle="1" len="192" muted="0" name="" pos="3264" color="4286611584"/>
        <bbtco usestyle="1" len="192" muted="0" name="" pos="3456" color="4286611584"/>
        <bbtco usestyle="1" len="192" muted="0" name="" pos="3648" color="4286611584"/>
        <bbtco usestyle="1" len="192" muted="0" name="" pos="3840" color="4286611584"/>
        <bbtco usestyle="1" len="192" muted="0" name="" pos="4032" color="4286611584"/>
        <bbtco usestyle="1" len="192" muted="0" name="" pos="4224" color="4286611584"/>
        <bbtco usestyle="1" len="192" muted="0" name="" pos="4416" color="4286611584"/>
        <bbtco usestyle="1" len="192" muted="0" name="" pos="1152" color="4286611584"/>
        <bbtco usestyle="1" len="192" muted="0" name="" pos="1344" color="4286611584"/>
        <bbtco usestyle="1" len="192" muted="0" name="" pos="4800" color="4286611584"/>
        <bbtco usestyle="1" len="192" muted="0" name="" pos="4608" color="4286611584"/>
        <bbtco usestyle="1" len="192" muted="0" name="" pos="4992" color="4286611584"/>
        <bbtco usestyle="1" len="192" muted="0" name="" pos="5184" color="4286611584"/>
        <bbtco usestyle="1" len="192" muted="0" name="" pos="6720" color="4286611584"/>
        <bbtco usestyle="1" len="192" muted="0" name="" pos="6528" color="4286611584"/>
        <bbtco usestyle="1" len="192" muted="0" name="" pos="6336" color="4286611584"/>
        <bbtco usestyle="1" len="192" muted="0" name="" pos="6144" color="4286611584"/>
        <bbtco usestyle="1" len="192" muted="0" name="" pos="5952" color="4286611584"/>
        <bbtco usestyle="1" len="192" muted="0" name="" pos="5760" color="4286611584"/>
        <bbtco usestyle="1" len="192" muted="0" name="" pos="5568" color="4286611584"/>
        <bbtco usestyle="1" len="192" muted="0" name="" pos="5376" color="4286611584"/>
        <bbtco usestyle="1" len="192" muted="0" name="" pos="6912" color="4286611584"/>
        <bbtco usestyle="1" len="192" muted="0" name="" pos="7104" color="4286611584"/>
        <bbtco usestyle="1" len="192" muted="0" name="" pos="7296" color="4286611584"/>
        <bbtco usestyle="1" len="192" muted="0" name="" pos="7488" color="4286611584"/>
        <bbtco usestyle="1" len="192" muted="0" name="" pos="7680" color="4286611584"/>
        <bbtco usestyle="1" len="192" muted="0" name="" pos="8064" color="4286611584"/>
        <bbtco usestyle="1" len="192" muted="0" name="" pos="8256" color="4286611584"/>
        <bbtco usestyle="1" len="192" muted="0" name="" pos="7872" color="4286611584"/>
        <bbtco usestyle="1" len="192" muted="0" name="" pos="8448" color="4286611584"/>
        <bbtco usestyle="1" len="192" muted="0" name="" pos="8640" color="4286611584"/>
        <bbtco usestyle="1" len="192" muted="0" name="" pos="8832" color="4286611584"/>
        <bbtco usestyle="1" len="192" muted="0" name="" pos="9024" color="4286611584"/>
        <bbtco usestyle="1" len="192" muted="0" name="" pos="9216" color="4286611584"/>
        <bbtco usestyle="1" len="192" muted="0" name="" pos="9408" color="4286611584"/>
      </track>
      <track muted="0" type="1" name="/Bassline 2" solo="0">
        <bbtrack/>
        <bbtco usestyle="1" len="192" muted="0" name="" pos="1920" color="4286611584"/>
        <bbtco usestyle="1" len="192" muted="0" name="" pos="2112" color="4286611584"/>
        <bbtco usestyle="1" len="192" muted="0" name="" pos="2304" color="4286611584"/>
        <bbtco usestyle="1" len="192" muted="0" name="" pos="2496" color="4286611584"/>
        <bbtco usestyle="1" len="192" muted="0" name="" pos="2688" color="4286611584"/>
        <bbtco usestyle="1" len="192" muted="0" name="" pos="2880" color="4286611584"/>
        <bbtco usestyle="1" len="192" muted="0" name="" pos="3072" color="4286611584"/>
        <bbtco usestyle="1" len="192" muted="0" name="" pos="3264" color="4286611584"/>
        <bbtco usestyle="1" len="192" muted="0" name="" pos="3456" color="4286611584"/>
        <bbtco usestyle="1" len="192" muted="0" name="" pos="3648" color="4286611584"/>
        <bbtco usestyle="1" len="192" muted="0" name="" pos="3840" color="4286611584"/>
        <bbtco usestyle="1" len="192" muted="0" name="" pos="4032" color="4286611584"/>
        <bbtco usestyle="1" len="192" muted="0" name="" pos="4224" color="4286611584"/>
        <bbtco usestyle="1" len="192" muted="0" name="" pos="4416" color="4286611584"/>
        <bbtco usestyle="1" len="192" muted="0" name="" pos="1728" color="4286611584"/>
        <bbtco usestyle="1" len="192" muted="0" name="" pos="1536" color="4286611584"/>
        <bbtco usestyle="1" len="192" muted="0" name="" pos="4608" color="4286611584"/>
        <bbtco usestyle="1" len="192" muted="0" name="" pos="4800" color="4286611584"/>
        <bbtco usestyle="1" len="192" muted="0" name="" pos="4992" color="4286611584"/>
        <bbtco usestyle="1" len="192" muted="0" name="" pos="5184" color="4286611584"/>
        <bbtco usestyle="1" len="192" muted="0" name="" pos="5376" color="4286611584"/>
        <bbtco usestyle="1" len="192" muted="0" name="" pos="5568" color="4286611584"/>
        <bbtco usestyle="1" len="192" muted="0" name="" pos="5760" color="4286611584"/>
        <bbtco usestyle="1" len="192" muted="0" name="" pos="5952" color="4286611584"/>
        <bbtco usestyle="1" len="192" muted="0" name="" pos="6144" color="4286611584"/>
        <bbtco usestyle="1" len="192" muted="0" name="" pos="6336" color="4286611584"/>
        <bbtco usestyle="1" len="192" muted="0" name="" pos="6528" color="4286611584"/>
        <bbtco usestyle="1" len="192" muted="0" name="" pos="6720" color="4286611584"/>
        <bbtco usestyle="1" len="192" muted="0" name="" pos="6912" color="4286611584"/>
        <bbtco usestyle="1" len="192" muted="0" name="" pos="7104" color="4286611584"/>
        <bbtco usestyle="1" len="192" muted="0" name="" pos="7296" color="4286611584"/>
        <bbtco usestyle="1" len="192" muted="0" name="" pos="7488" color="4286611584"/>
        <bbtco usestyle="1" len="192" muted="0" name="" pos="7680" color="4286611584"/>
        <bbtco usestyle="1" len="192" muted="0" name="" pos="8064" color="4286611584"/>
        <bbtco usestyle="1" len="192" muted="0" name="" pos="8256" color="4286611584"/>
        <bbtco usestyle="1" len="192" muted="0" name="" pos="7872" color="4286611584"/>
        <bbtco usestyle="1" len="192" muted="0" name="" pos="8448" color="4286611584"/>
        <bbtco usestyle="1" len="192" muted="0" name="" pos="8640" color="4286611584"/>
        <bbtco usestyle="1" len="192" muted="0" name="" pos="8832" color="4286611584"/>
        <bbtco usestyle="1" len="192" muted="0" name="" pos="9024" color="4286611584"/>
      </track>
      <track muted="0" type="0" name="DSK AsianZ DreamZ" solo="0">
        <instrumenttrack pitch="0" usemasterpitch="1" fxch="0" pitchrange="1" basenote="57" pan="0">
          <vol id="6407387" scale_type="linear" value="30.6"/>
          <instrument name="vestige">
            <vestige program="0" plugin="/home/fxzjshm/lmms/plugins/vst/DSK Asian DreamZ.dll" chunk="zgANAAsAAAAGTQAA4UoAALtmAADWLAAA3lQAACkAAABDZAAAi0IAAGs2AACQXwAAAAAAAIAAAAD//v8EUABpAHAAYQD//v8MUABpAHAAYQAgAHQAcgBlAG0AbwBsAG8A//7/BEwAdQBhAG4A//7/BkcAdQB6AGgAZQBuAP/+/wRFAHIAaAB1AP/+/wZCAGEAbgAgAGQAaQD//v8KUABlAHIAYwB1AHMAcwBpAG8AbgD//v8A//7/CVAAYQB0AGMAaAAgACAAIAA5AP/+/wlQAGEAdABjAGgAIAAgADEAMAD//v8JUABhAHQAYwBoACAAIAAxADEA//7/CVAAYQB0AGMAaAAgACAAMQAyAP/+/wlQAGEAdABjAGgAIAAgADEAMwD//v8JUABhAHQAYwBoACAAIAAxADQA//7/CVAAYQB0AGMAaAAgACAAMQA1AP/+/wlQAGEAdABjAGgAIAAgADEANgD//v8JUABhAHQAYwBoACAAIAAxADcA//7/CVAAYQB0AGMAaAAgACAAMQA4AP/+/wlQAGEAdABjAGgAIAAgADEAOQD//v8JUABhAHQAYwBoACAAIAAyADAA//7/CVAAYQB0AGMAaAAgACAAMgAxAP/+/wlQAGEAdABjAGgAIAAgADIAMgD//v8JUABhAHQAYwBoACAAIAAyADMA//7/CVAAYQB0AGMAaAAgACAAMgA0AP/+/wlQAGEAdABjAGgAIAAgADIANQD//v8JUABhAHQAYwBoACAAIAAyADYA//7/CVAAYQB0AGMAaAAgACAAMgA3AP/+/wlQAGEAdABjAGgAIAAgADIAOAD//v8JUABhAHQAYwBoACAAIAAyADkA//7/CVAAYQB0AGMAaAAgACAAMwAwAP/+/wlQAGEAdABjAGgAIAAgADMAMQD//v8JUABhAHQAYwBoACAAIAAzADIA//7/CVAAYQB0AGMAaAAgACAAMwAzAP/+/wlQAGEAdABjAGgAIAAgADMANAD//v8JUABhAHQAYwBoACAAIAAzADUA//7/CVAAYQB0AGMAaAAgACAAMwA2AP/+/wlQAGEAdABjAGgAIAAgADMANwD//v8JUABhAHQAYwBoACAAIAAzADgA//7/CVAAYQB0AGMAaAAgACAAMwA5AP/+/wlQAGEAdABjAGgAIAAgADQAMAD//v8JUABhAHQAYwBoACAAIAA0ADEA//7/CVAAYQB0AGMAaAAgACAANAAyAP/+/wlQAGEAdABjAGgAIAAgADQAMwD//v8JUABhAHQAYwBoACAAIAA0ADQA//7/CVAAYQB0AGMAaAAgACAANAA1AP/+/wlQAGEAdABjAGgAIAAgADQANgD//v8JUABhAHQAYwBoACAAIAA0ADcA//7/CVAAYQB0AGMAaAAgACAANAA4AP/+/wlQAGEAdABjAGgAIAAgADQAOQD//v8JUABhAHQAYwBoACAAIAA1ADAA//7/CVAAYQB0AGMAaAAgACAANQAxAP/+/wlQAGEAdABjAGgAIAAgADUAMgD//v8JUABhAHQAYwBoACAAIAA1ADMA//7/CVAAYQB0AGMAaAAgACAANQA0AP/+/wlQAGEAdABjAGgAIAAgADUANQD//v8JUABhAHQAYwBoACAAIAA1ADYA//7/CVAAYQB0AGMAaAAgACAANQA3AP/+/wlQAGEAdABjAGgAIAAgADUAOAD//v8JUABhAHQAYwBoACAAIAA1ADkA//7/CVAAYQB0AGMAaAAgACAANgAwAP/+/wlQAGEAdABjAGgAIAAgADYAMQD//v8JUABhAHQAYwBoACAAIAA2ADIA//7/CVAAYQB0AGMAaAAgACAANgAzAP/+/wlQAGEAdABjAGgAIAAgADYANAD//v8JUABhAHQAYwBoACAAIAA2ADUA//7/CVAAYQB0AGMAaAAgACAANgA2AP/+/wlQAGEAdABjAGgAIAAgADYANwD//v8JUABhAHQAYwBoACAAIAA2ADgA//7/CVAAYQB0AGMAaAAgACAANgA5AP/+/wlQAGEAdABjAGgAIAAgADcAMAD//v8JUABhAHQAYwBoACAAIAA3ADEA//7/CVAAYQB0AGMAaAAgACAANwAyAP/+/wlQAGEAdABjAGgAIAAgADcAMwD//v8JUABhAHQAYwBoACAAIAA3ADQA//7/CVAAYQB0AGMAaAAgACAANwA1AP/+/wlQAGEAdABjAGgAIAAgADcANgD//v8JUABhAHQAYwBoACAAIAA3ADcA//7/CVAAYQB0AGMAaAAgACAANwA4AP/+/wlQAGEAdABjAGgAIAAgADcAOQD//v8JUABhAHQAYwBoACAAIAA4ADAA//7/CVAAYQB0AGMAaAAgACAAOAAxAP/+/wlQAGEAdABjAGgAIAAgADgAMgD//v8JUABhAHQAYwBoACAAIAA4ADMA//7/CVAAYQB0AGMAaAAgACAAOAA0AP/+/wlQAGEAdABjAGgAIAAgADgANQD//v8JUABhAHQAYwBoACAAIAA4ADYA//7/CVAAYQB0AGMAaAAgACAAOAA3AP/+/wlQAGEAdABjAGgAIAAgADgAOAD//v8JUABhAHQAYwBoACAAIAA4ADkA//7/CVAAYQB0AGMAaAAgACAAOQAwAP/+/wlQAGEAdABjAGgAIAAgADkAMQD//v8JUABhAHQAYwBoACAAIAA5ADIA//7/CVAAYQB0AGMAaAAgACAAOQAzAP/+/wlQAGEAdABjAGgAIAAgADkANAD//v8JUABhAHQAYwBoACAAIAA5ADUA//7/CVAAYQB0AGMAaAAgACAAOQA2AP/+/wlQAGEAdABjAGgAIAAgADkANwD//v8JUABhAHQAYwBoACAAIAA5ADgA//7/CVAAYQB0AGMAaAAgACAAOQA5AP/+/wlQAGEAdABjAGgAIAAxADAAMAD//v8JUABhAHQAYwBoACAAMQAwADEA//7/CVAAYQB0AGMAaAAgADEAMAAyAP/+/wlQAGEAdABjAGgAIAAxADAAMwD//v8JUABhAHQAYwBoACAAMQAwADQA//7/CVAAYQB0AGMAaAAgADEAMAA1AP/+/wlQAGEAdABjAGgAIAAxADAANgD//v8JUABhAHQAYwBoACAAMQAwADcA//7/CVAAYQB0AGMAaAAgADEAMAA4AP/+/wlQAGEAdABjAGgAIAAxADAAOQD//v8JUABhAHQAYwBoACAAMQAxADAA//7/CVAAYQB0AGMAaAAgADEAMQAxAP/+/wlQAGEAdABjAGgAIAAxADEAMgD//v8JUABhAHQAYwBoACAAMQAxADMA//7/CVAAYQB0AGMAaAAgADEAMQA0AP/+/wlQAGEAdABjAGgAIAAxADEANQD//v8JUABhAHQAYwBoACAAMQAxADYA//7/CVAAYQB0AGMAaAAgADEAMQA3AP/+/wlQAGEAdABjAGgAIAAxADEAOAD//v8JUABhAHQAYwBoACAAMQAxADkA//7/CVAAYQB0AGMAaAAgADEAMgAwAP/+/wlQAGEAdABjAGgAIAAxADIAMQD//v8JUABhAHQAYwBoACAAMQAyADIA//7/CVAAYQB0AGMAaAAgADEAMgAzAP/+/wlQAGEAdABjAGgAIAAxADIANAD//v8JUABhAHQAYwBoACAAMQAyADUA//7/CVAAYQB0AGMAaAAgADEAMgA2AP/+/wlQAGEAdABjAGgAIAAxADIANwD//v8JUABhAHQAYwBoACAAMQAyADgABgAAAIAAAAAAAAAAAAAAAAAAAAAAAAAAAAAAAAAAAAAAAAAAAAAAAAAAAAAAAAAAAAAAAAAAAAAAAAAAAAAAAAAAAAAAAAAAAAAAAAAAAAAAAAAAAAAAAAAAAAAAAAAAAAAAAAAAAAAAAAAAAAAAAAAAAAAAAAAAAAAAAAAAAAAAAAAAAAAAAAAAAAAAAAAAAAAAAAAAAAAAAAAAAAAAAAAAAAAAAAAAAAAAAAAAAAAAAAAAAAAAAAAAAAAAAAAAAAAAAAAAAAAAAAAAAAAAAAAAAAAAAAAAAAAAAAAAAAAAAAAAAAAAAAAAAAAAAAAAAAAAAAAAAAAAAAAAAAAAAAAAAAAAAAAAAAAAAAAAAAAAAAAAAAAAAAAAAAAAAAAAAAAAAAAAAAAAAAAAAAAAAAAAAAAAAAAAAAAAAAAAAAAAAAAAAAAAAAAAAAAAAAAAAAAAAAAAAAAAAAAAAAAAAAAAAAAAAAAAAAAAAAAAAAAAAAAAAAAAAAAAAAAAAAAAAAAAAAAAAAAAAAAAAAAAAAAAAAAAAAAAAAAAAAAAAAAAAAAAAAAAAAAAAAAAAAAAAAAAAAAAAAAAAAAAAAAAAAAAAAAAAAAAAAAAAAAAAAAAAAAAAAAAAAAAAAAAAAAAAAAAAAAAAAAAAAAAAAAAAAAAAAAAAAAAAAAAAAAAAAAAAAAAAAAAAP///////v8ABgAAAIAAAADEzLxACDPrQAgz60AIM+tACDPrQAgz60AHM+tACDPrQAgz60AIM+tACDPrQAgz60AIM+tACDPrQAgz60AIM+tACDPrQAgz60AIM+tACDPrQAgz60AIM+tACDPrQAgz60AIM+tACDPrQAgz60AIM+tACDPrQAgz60AIM+tACDPrQAgz60AIM+tACDPrQAgz60AIM+tACDPrQAgz60AIM+tACDPrQAgz60AIM+tACDPrQAgz60AIM+tACDPrQAgz60AIM+tACDPrQAgz60AIM+tACDPrQAgz60AIM+tACDPrQAgz60AIM+tACDPrQAgz60AIM+tACDPrQAgz60AIM+tACDPrQAgz60AIM+tACDPrQAgz60AIM+tACDPrQAgz60AIM+tACDPrQAgz60AIM+tACDPrQAgz60AIM+tACDPrQAgz60AIM+tACDPrQAgz60AIM+tACDPrQAgz60AIM+tACDPrQAgz60AIM+tACDPrQAgz60AIM+tACDPrQAgz60AIM+tACDPrQAgz60AIM+tACDPrQAgz60AIM+tACDPrQAgz60AIM+tACDPrQAgz60AIM+tACDPrQAgz60AIM+tACDPrQAgz60AIM+tACDPrQAgz60AIM+tACDPrQAgz60AIM+tACDPrQAgz60AIM+tACDPrQAgz60AIM+tACDPrQP///////v8ABgAAAIAAAAB0q4xAdKuMQHSrjEB0q4xAdKuMQHSrjEBzq4xAdKuMQHSrjEB0q4xAdKuMQHSrjEB0q4xAdKuMQHSrjEB0q4xAdKuMQHSrjEB0q4xAdKuMQHSrjEB0q4xAdKuMQHSrjEB0q4xAdKuMQHSrjEB0q4xAdKuMQHSrjEB0q4xAdKuMQHSrjEB0q4xAdKuMQHSrjEB0q4xAdKuMQHSrjEB0q4xAdKuMQHSrjEB0q4xAdKuMQHSrjEB0q4xAdKuMQHSrjEB0q4xAdKuMQHSrjEB0q4xAdKuMQHSrjEB0q4xAdKuMQHSrjEB0q4xAdKuMQHSrjEB0q4xAdKuMQHSrjEB0q4xAdKuMQHSrjEB0q4xAdKuMQHSrjEB0q4xAdKuMQHSrjEB0q4xAdKuMQHSrjEB0q4xAdKuMQHSrjEB0q4xAdKuMQHSrjEB0q4xAdKuMQHSrjEB0q4xAdKuMQHSrjEB0q4xAdKuMQHSrjEB0q4xAdKuMQHSrjEB0q4xAdKuMQHSrjEB0q4xAdKuMQHSrjEB0q4xAdKuMQHSrjEB0q4xAdKuMQHSrjEB0q4xAdKuMQHSrjEB0q4xAdKuMQHSrjEB0q4xAdKuMQHSrjEB0q4xAdKuMQHSrjEB0q4xAdKuMQHSrjEB0q4xAdKuMQHSrjEB0q4xAdKuMQHSrjEB0q4xAdKuMQP///////v8ABgAAAIAAAAAAAAAA////P///f0AAAKBAMjPTQM3MBEEAACBBAAAgQQAAIEEAACBBAAAgQQAAIEEAACBBAAAgQQAAIEEAACBBAAAgQQAAIEEAACBBAAAgQQAAIEEAACBBAAAgQQAAIEEAACBBAAAgQQAAIEEAACBBAAAgQQAAIEEAACBBAAAgQQAAIEEAACBBAAAgQQAAIEEAACBBAAAgQQAAIEEAACBBAAAgQQAAIEEAACBBAAAgQQAAIEEAACBBAAAgQQAAIEEAACBBAAAgQQAAIEEAACBBAAAgQQAAIEEAACBBAAAgQQAAIEEAACBBAAAgQQAAIEEAACBBAAAgQQAAIEEAACBBAAAgQQAAIEEAACBBAAAgQQAAIEEAACBBAAAgQQAAIEEAACBBAAAgQQAAIEEAACBBAAAgQQAAIEEAACBBAAAgQQAAIEEAACBBAAAgQQAAIEEAACBBAAAgQQAAIEEAACBBAAAgQQAAIEEAACBBAAAgQQAAIEEAACBBAAAgQQAAIEEAACBBAAAgQQAAIEEAACBBAAAgQQAAIEEAACBBAAAgQQAAIEEAACBBAAAgQQAAIEEAACBBAAAgQQAAIEEAACBBAAAgQQAAIEEAACBBAAAgQQAAIEEAACBBAAAgQQAAIEEAACBBAAAgQQAAIEEAACBBAAAgQQAAIEEAACBBAAAgQf///////v8ABgAAAIAAAAD+/69A/v+vQP7/r0D+/69A/v+vQP7/r0D+/69A/v+vQP7/r0D+/69A/v+vQP7/r0D+/69A/v+vQP7/r0D+/69A/v+vQP7/r0D+/69A/v+vQP7/r0D+/69A/v+vQP7/r0D+/69A/v+vQP7/r0D+/69A/v+vQP7/r0D+/69A/v+vQP7/r0D+/69A/v+vQP7/r0D+/69A/v+vQP7/r0D+/69A/v+vQP7/r0D+/69A/v+vQP7/r0D+/69A/v+vQP7/r0D+/69A/v+vQP7/r0D+/69A/v+vQP7/r0D+/69A/v+vQP7/r0D+/69A/v+vQP7/r0D+/69A/v+vQP7/r0D+/69A/v+vQP7/r0D+/69A/v+vQP7/r0D+/69A/v+vQP7/r0D+/69A/v+vQP7/r0D+/69A/v+vQP7/r0D+/69A/v+vQP7/r0D+/69A/v+vQP7/r0D+/69A/v+vQP7/r0D+/69A/v+vQP7/r0D+/69A/v+vQP7/r0D+/69A/v+vQP7/r0D+/69A/v+vQP7/r0D+/69A/v+vQP7/r0D+/69A/v+vQP7/r0D+/69A/v+vQP7/r0D+/69A/v+vQP7/r0D+/69A/v+vQP7/r0D+/69A/v+vQP7/r0D+/69A/v+vQP7/r0D+/69A/v+vQP7/r0D+/69A/v+vQP7/r0D+/69A/v+vQP///////v8ABgAAAIAAAAAyM7M+MjOzPjIzsz4yM7M+MjOzPjIzsz4zM7M+MjOzPjIzsz4yM7M+MjOzPjIzsz4yM7M+MjOzPjIzsz4yM7M+MjOzPjIzsz4yM7M+MjOzPjIzsz4yM7M+MjOzPjIzsz4yM7M+MjOzPjIzsz4yM7M+MjOzPjIzsz4yM7M+MjOzPjIzsz4yM7M+MjOzPjIzsz4yM7M+MjOzPjIzsz4yM7M+MjOzPjIzsz4yM7M+MjOzPjIzsz4yM7M+MjOzPjIzsz4yM7M+MjOzPjIzsz4yM7M+MjOzPjIzsz4yM7M+MjOzPjIzsz4yM7M+MjOzPjIzsz4yM7M+MjOzPjIzsz4yM7M+MjOzPjIzsz4yM7M+MjOzPjIzsz4yM7M+MjOzPjIzsz4yM7M+MjOzPjIzsz4yM7M+MjOzPjIzsz4yM7M+MjOzPjIzsz4yM7M+MjOzPjIzsz4yM7M+MjOzPjIzsz4yM7M+MjOzPjIzsz4yM7M+MjOzPjIzsz4yM7M+MjOzPjIzsz4yM7M+MjOzPjIzsz4yM7M+MjOzPjIzsz4yM7M+MjOzPjIzsz4yM7M+MjOzPjIzsz4yM7M+MjOzPjIzsz4yM7M+MjOzPjIzsz4yM7M+MjOzPjIzsz4yM7M+MjOzPjIzsz4yM7M+MjOzPjIzsz4yM7M+MjOzPjIzsz4yM7M+MjOzPv///////v8ABgAAAIAAAAA6+K1ASPitQEj4rUBI+K1ASPitQEj4rUBI+K1ASPitQEj4rUBI+K1ASPitQEj4rUBI+K1ASPitQEj4rUBI+K1ASPitQEj4rUBI+K1ASPitQEj4rUBI+K1ASPitQEj4rUBI+K1ASPitQEj4rUBI+K1ASPitQEj4rUBI+K1ASPitQEj4rUBI+K1ASPitQEj4rUBI+K1ASPitQEj4rUBI+K1ASPitQEj4rUBI+K1ASPitQEj4rUBI+K1ASPitQEj4rUBI+K1ASPitQEj4rUBI+K1ASPitQEj4rUBI+K1ASPitQEj4rUBI+K1ASPitQEj4rUBI+K1ASPitQEj4rUBI+K1ASPitQEj4rUBI+K1ASPitQEj4rUBI+K1ASPitQEj4rUBI+K1ASPitQEj4rUBI+K1ASPitQEj4rUBI+K1ASPitQEj4rUBI+K1ASPitQEj4rUBI+K1ASPitQEj4rUBI+K1ASPitQEj4rUBI+K1ASPitQEj4rUBI+K1ASPitQEj4rUBI+K1ASPitQEj4rUBI+K1ASPitQEj4rUBI+K1ASPitQEj4rUBI+K1ASPitQEj4rUBI+K1ASPitQEj4rUBI+K1ASPitQEj4rUBI+K1ASPitQEj4rUBI+K1ASPitQEj4rUBI+K1ASPitQEj4rUBI+K1ASPitQEj4rUBI+K1ASPitQP///////v8AAQAAAAEAAAD//v/cRAA6AFwAVgBhAHIAaQBvAHMAXABTAHkAbgB0AGgAZQBkAGkAdABcAHMAawBpAG4AcwBcAEQAUwBLACAAQQBzAGkAYQBuAFoAIABEAHIAZQBhAG0AWgBcAF8ARABTAEsAIABBAHMAaQBhAG4AWgAuAFMARgAyACwAIAAgADAAIAAgACAAMAAgADEALAAyADUANQAgACAALQAxACAAMQAsADIANQA1ACAAIAAtADEAIAAxACwAMgA1ADUAIAAgAC0AMQAgADEALAAyADUANQAgACAALQAxACAAMQAsADIANQA1ACAAIAAtADEAIAAxACwAMgA1ADUAIAAgAC0AMQAgADEALAAyADUANQAgACAALQAxACAAMQAsADIANQA1ACAAIAAtADEAIAAxACwAMQAyADgAIAAgAC0AMQAgADEALAAyADUANQAgACAALQAxACAAMQAsADIANQA1ACAAIAAtADEAIAAxACwAMgA1ADUAIAAgAC0AMQAgADEALAAyADUANQAgACAALQAxACAAMQAsADIANQA1ACAAIAAtADEAIAAxACwAMgA1ADUAIAAgAC0AMQAgADEALAD///////7/AAYAAACAAAAAvTeGtQAAAAAAAAAAAAAAAAAAAAAAAAAAAAAAAAAAAAAAAAAAAAAAAAAAAAAAAAAAAAAAAAAAAAAAAAAAAAAAAAAAAAAAAAAAAAAAAAAAAAAAAAAAAAAAAAAAAAAAAAAAAAAAAAAAAAAAAAAAAAAAAAAAAAAAAAAAAAAAAAAAAAAAAAAAAAAAAAAAAAAAAAAAAAAAAAAAAAAAAAAAAAAAAAAAAAAAAAAAAAAAAAAAAAAAAAAAAAAAAAAAAAAAAAAAAAAAAAAAAAAAAAAAAAAAAAAAAAAAAAAAAAAAAAAAAAAAAAAAAAAAAAAAAAAAAAAAAAAAAAAAAAAAAAAAAAAAAAAAAAAAAAAAAAAAAAAAAAAAAAAAAAAAAAAAAAAAAAAAAAAAAAAAAAAAAAAAAAAAAAAAAAAAAAAAAAAAAAAAAAAAAAAAAAAAAAAAAAAAAAAAAAAAAAAAAAAAAAAAAAAAAAAAAAAAAAAAAAAAAAAAAAAAAAAAAAAAAAAAAAAAAAAAAAAAAAAAAAAAAAAAAAAAAAAAAAAAAAAAAAAAAAAAAAAAAAAAAAAAAAAAAAAAAAAAAAAAAAAAAAAAAAAAAAAAAAAAAAAAAAAAAAAAAAAAAAAAAAAAAAAAAAAAAAAAAAAAAAAAAAAAAAAAAAAAAAAAAAAAAAAAAAAAAAAAAAAAAAD///////7/AAYAAACAAAAA9v/nQK4yc0CuMnNArjJzQK4yc0CuMnNArTJzQK4yc0CuMnNArjJzQK4yc0CuMnNArjJzQK4yc0CuMnNArjJzQK4yc0CuMnNArjJzQK4yc0CuMnNArjJzQK4yc0CuMnNArjJzQK4yc0CuMnNArjJzQK4yc0CuMnNArjJzQK4yc0CuMnNArjJzQK4yc0CuMnNArjJzQK4yc0CuMnNArjJzQK4yc0CuMnNArjJzQK4yc0CuMnNArjJzQK4yc0CuMnNArjJzQK4yc0CuMnNArjJzQK4yc0CuMnNArjJzQK4yc0CuMnNArjJzQK4yc0CuMnNArjJzQK4yc0CuMnNArjJzQK4yc0CuMnNArjJzQK4yc0CuMnNArjJzQK4yc0CuMnNArjJzQK4yc0CuMnNArjJzQK4yc0CuMnNArjJzQK4yc0CuMnNArjJzQK4yc0CuMnNArjJzQK4yc0CuMnNArjJzQK4yc0CuMnNArjJzQK4yc0CuMnNArjJzQK4yc0CuMnNArjJzQK4yc0CuMnNArjJzQK4yc0CuMnNArjJzQK4yc0CuMnNArjJzQK4yc0CuMnNArjJzQK4yc0CuMnNArjJzQK4yc0CuMnNArjJzQK4yc0CuMnNArjJzQK4yc0CuMnNArjJzQK4yc0CuMnNArjJzQK4yc0CuMnNArjJzQK4yc0D///////7/AAAAAACAAAAAAAAAAAAAAAAAAAAAAAAAAAAAAAAAAAAAAAAAAAAAAAAAAAAAAAAAAAAAAAAAAAAAAAAAAAAAAAAAAAAAAAAAAAAAAAAAAAAAAAAAAAAAAAAAAAAAAAAAAAAAAAAAAAAAAAAAAAAAAAAAAAAAAAAAAAAAAAAAAAAAAAAAAAAAAAAAAAAAAAAAAAAAAAAAAAAAAAAAAAAAAAAAAAAAAAAAAAAAAAAAAAAAAAAAAAAAAAAAAAAAAAAAAAAAAAAAAAAAAAAAAAAAAAAAAAAAAAAAAAAAAAAAAAAAAAAAAAAAAAAAAAAAAAAAAAAAAAAAAAAAAAAAAAAAAAAAAAAAAAAAAAAAAAAAAAAAAAAAAAAAAAAAAAAAAAAAAAAAAAAAAAAAAAAAAAAAAAAAAAAAAAAAAAAAAAAAAAAAAAAAAAAAAAAAAAAAAAAAAAAAAAAAAAAAAAAAAAAAAAAAAAAAAAAAAAAAAAAAAAAAAAAAAAAAAAAAAAAAAAAAAAAAAAAAAAAAAAAAAAAAAAAAAAAAAAAAAAAAAAAAAAAAAAAAAAAAAAAAAAAAAAAAAAAAAAAAAAAAAAAAAAAAAAAAAAAAAAAAAAAAAAAAAAAAAAAAAAAAAAAAAAAAAAAAAAAAAAAAAAAAAAAAAAAAAAAAAAAAAAAAAAAAAAAAAAAAAAAAAAAAAAD///////7/AA==" guivisible="1"/>
          </instrument>
          <eldata ftype="0" fwet="0" fres="0.5" fcut="14000">
            <elvol lspd="0.1" pdel="0" hold="0.5" lspd_syncmode="0" userwavefile="" rel="0.1" latt="0" lspd_denominator="4" dec="0.5" lpdel="0" lamt="0" ctlenvamt="0" att="0" lspd_numerator="4" amt="0" lshp="0" sustain="0.5" x100="0"/>
            <elcut lspd="0.1" pdel="0" hold="0.5" lspd_syncmode="0" userwavefile="" rel="0.1" latt="0" lspd_denominator="4" dec="0.5" lpdel="0" lamt="0" ctlenvamt="0" att="0" lspd_numerator="4" amt="0" lshp="0" sustain="0.5" x100="0"/>
            <elres lspd="0.1" pdel="0" hold="0.5" lspd_syncmode="0" userwavefile="" rel="0.1" latt="0" lspd_denominator="4" dec="0.5" lpdel="0" lamt="0" ctlenvamt="0" att="0" lspd_numerator="4" amt="0" lshp="0" sustain="0.5" x100="0"/>
          </eldata>
          <chordcreator chordrange="1" chord="0" chord-enabled="0"/>
          <arpeggiator arpmiss="0" arpmode="0" arptime_denominator="4" arpdir="0" arp="0" arpskip="0" arptime="200" arptime_numerator="4" arpgate="100" arpcycle="0" arp-enabled="0" arptime_syncmode="0" arprange="1"/>
          <midiport outputcontroller="0" fixedoutputvelocity="-1" basevelocity="63" fixedoutputnote="-1" readable="0" writable="0" outputchannel="1" fixedinputvelocity="-1" inputchannel="0" inputcontroller="0" outputprogram="1"/>
          <fxchain numofeffects="0" enabled="0"/>
        </instrumenttrack>
        <pattern muted="0" steps="16" type="1" name="DSK AsianZ DreamZ" pos="3840">
          <note len="12" key="81" vol="100" pos="0" pan="95"/>
          <note len="12" key="79" vol="100" pos="12" pan="95"/>
          <note len="12" key="81" vol="100" pos="24" pan="95"/>
          <note len="12" key="84" vol="100" pos="36" pan="95"/>
          <note len="12" key="84" vol="100" pos="60" pan="95"/>
          <note len="12" key="84" vol="100" pos="84" pan="95"/>
          <note len="12" key="83" vol="100" pos="96" pan="95"/>
          <note len="12" key="83" vol="100" pos="120" pan="95"/>
          <note len="12" key="81" vol="100" pos="132" pan="95"/>
          <note len="12" key="83" vol="100" pos="144" pan="95"/>
          <note len="12" key="81" vol="100" pos="156" pan="95"/>
          <note len="12" key="79" vol="100" pos="168" pan="95"/>
          <note len="12" key="76" vol="100" pos="180" pan="95"/>
          <note len="12" key="81" vol="100" pos="192" pan="95"/>
          <note len="12" key="79" vol="100" pos="204" pan="95"/>
          <note len="12" key="81" vol="100" pos="216" pan="95"/>
          <note len="12" key="84" vol="100" pos="228" pan="95"/>
          <note len="12" key="84" vol="100" pos="252" pan="95"/>
          <note len="12" key="84" vol="100" pos="276" pan="95"/>
          <note len="12" key="83" vol="100" pos="288" pan="95"/>
          <note len="12" key="83" vol="100" pos="312" pan="95"/>
          <note len="12" key="81" vol="100" pos="324" pan="95"/>
          <note len="12" key="83" vol="100" pos="336" pan="95"/>
          <note len="12" key="84" vol="100" pos="348" pan="95"/>
          <note len="12" key="86" vol="100" pos="360" pan="95"/>
          <note len="12" key="88" vol="100" pos="372" pan="95"/>
        </pattern>
        <pattern muted="0" steps="16" type="1" name="DSK AsianZ DreamZ" pos="4608">
          <note len="12" key="81" vol="100" pos="0" pan="95"/>
          <note len="12" key="79" vol="100" pos="12" pan="95"/>
          <note len="12" key="81" vol="100" pos="24" pan="95"/>
          <note len="12" key="84" vol="100" pos="36" pan="95"/>
          <note len="12" key="84" vol="100" pos="60" pan="95"/>
          <note len="12" key="84" vol="100" pos="84" pan="95"/>
          <note len="12" key="83" vol="100" pos="96" pan="95"/>
          <note len="12" key="83" vol="100" pos="120" pan="95"/>
          <note len="12" key="81" vol="100" pos="132" pan="95"/>
          <note len="12" key="83" vol="100" pos="144" pan="95"/>
          <note len="12" key="81" vol="100" pos="156" pan="95"/>
          <note len="12" key="79" vol="100" pos="168" pan="95"/>
          <note len="12" key="76" vol="100" pos="180" pan="95"/>
          <note len="12" key="81" vol="100" pos="192" pan="95"/>
          <note len="12" key="79" vol="100" pos="204" pan="95"/>
          <note len="12" key="81" vol="100" pos="216" pan="95"/>
          <note len="12" key="84" vol="100" pos="228" pan="95"/>
          <note len="12" key="84" vol="100" pos="252" pan="95"/>
          <note len="12" key="84" vol="100" pos="276" pan="95"/>
          <note len="12" key="83" vol="100" pos="288" pan="95"/>
          <note len="12" key="83" vol="100" pos="312" pan="95"/>
          <note len="12" key="81" vol="100" pos="324" pan="95"/>
          <note len="12" key="83" vol="100" pos="336" pan="95"/>
          <note len="12" key="84" vol="100" pos="348" pan="95"/>
          <note len="12" key="86" vol="100" pos="360" pan="95"/>
          <note len="12" key="88" vol="100" pos="372" pan="95"/>
        </pattern>
        <pattern muted="0" steps="16" type="1" name="DSK AsianZ DreamZ" pos="4992">
          <note len="12" key="81" vol="100" pos="0" pan="95"/>
          <note len="12" key="79" vol="100" pos="12" pan="95"/>
          <note len="12" key="81" vol="100" pos="24" pan="95"/>
          <note len="12" key="84" vol="100" pos="36" pan="95"/>
          <note len="12" key="84" vol="100" pos="60" pan="95"/>
          <note len="12" key="84" vol="100" pos="84" pan="95"/>
          <note len="12" key="83" vol="100" pos="96" pan="95"/>
          <note len="12" key="83" vol="100" pos="120" pan="95"/>
          <note len="12" key="81" vol="100" pos="132" pan="95"/>
          <note len="12" key="83" vol="100" pos="144" pan="95"/>
          <note len="12" key="81" vol="100" pos="156" pan="95"/>
          <note len="12" key="79" vol="100" pos="168" pan="95"/>
          <note len="12" key="76" vol="100" pos="180" pan="95"/>
          <note len="12" key="81" vol="100" pos="192" pan="95"/>
          <note len="12" key="79" vol="100" pos="204" pan="95"/>
          <note len="12" key="81" vol="100" pos="216" pan="95"/>
          <note len="12" key="84" vol="100" pos="228" pan="95"/>
          <note len="12" key="84" vol="100" pos="252" pan="95"/>
          <note len="12" key="84" vol="100" pos="276" pan="95"/>
          <note len="12" key="83" vol="100" pos="288" pan="95"/>
          <note len="12" key="83" vol="100" pos="312" pan="95"/>
          <note len="12" key="81" vol="100" pos="324" pan="95"/>
          <note len="12" key="83" vol="100" pos="336" pan="95"/>
          <note len="12" key="84" vol="100" pos="348" pan="95"/>
          <note len="12" key="86" vol="100" pos="360" pan="95"/>
          <note len="12" key="88" vol="100" pos="372" pan="95"/>
        </pattern>
        <pattern muted="0" steps="16" type="1" name="DSK AsianZ DreamZ" pos="5376">
          <note len="12" key="81" vol="100" pos="0" pan="95"/>
          <note len="12" key="79" vol="100" pos="12" pan="95"/>
          <note len="12" key="81" vol="100" pos="24" pan="95"/>
          <note len="12" key="84" vol="100" pos="36" pan="95"/>
          <note len="12" key="84" vol="100" pos="60" pan="95"/>
          <note len="12" key="84" vol="100" pos="84" pan="95"/>
          <note len="12" key="83" vol="100" pos="96" pan="95"/>
          <note len="12" key="83" vol="100" pos="120" pan="95"/>
          <note len="12" key="81" vol="100" pos="132" pan="95"/>
          <note len="12" key="83" vol="100" pos="144" pan="95"/>
          <note len="12" key="81" vol="100" pos="156" pan="95"/>
          <note len="12" key="79" vol="100" pos="168" pan="95"/>
          <note len="12" key="76" vol="100" pos="180" pan="95"/>
          <note len="12" key="81" vol="100" pos="192" pan="95"/>
          <note len="12" key="79" vol="100" pos="204" pan="95"/>
          <note len="12" key="81" vol="100" pos="216" pan="95"/>
          <note len="12" key="84" vol="100" pos="228" pan="95"/>
          <note len="12" key="84" vol="100" pos="252" pan="95"/>
          <note len="12" key="84" vol="100" pos="276" pan="95"/>
          <note len="12" key="83" vol="100" pos="288" pan="95"/>
          <note len="12" key="83" vol="100" pos="312" pan="95"/>
          <note len="12" key="81" vol="100" pos="324" pan="95"/>
          <note len="12" key="83" vol="100" pos="336" pan="95"/>
          <note len="12" key="84" vol="100" pos="348" pan="95"/>
          <note len="12" key="86" vol="100" pos="360" pan="95"/>
          <note len="12" key="88" vol="100" pos="372" pan="95"/>
        </pattern>
        <pattern muted="0" steps="16" type="1" name="DSK AsianZ DreamZ" pos="5760">
          <note len="12" key="81" vol="100" pos="0" pan="95"/>
          <note len="12" key="79" vol="100" pos="12" pan="95"/>
          <note len="12" key="81" vol="100" pos="24" pan="95"/>
          <note len="12" key="84" vol="100" pos="36" pan="95"/>
          <note len="12" key="84" vol="100" pos="60" pan="95"/>
          <note len="12" key="84" vol="100" pos="84" pan="95"/>
          <note len="12" key="83" vol="100" pos="96" pan="95"/>
          <note len="12" key="83" vol="100" pos="120" pan="95"/>
          <note len="12" key="81" vol="100" pos="132" pan="95"/>
          <note len="12" key="83" vol="100" pos="144" pan="95"/>
          <note len="12" key="81" vol="100" pos="156" pan="95"/>
          <note len="12" key="79" vol="100" pos="168" pan="95"/>
          <note len="12" key="76" vol="100" pos="180" pan="95"/>
          <note len="12" key="81" vol="100" pos="192" pan="95"/>
          <note len="12" key="79" vol="100" pos="204" pan="95"/>
          <note len="12" key="81" vol="100" pos="216" pan="95"/>
          <note len="12" key="84" vol="100" pos="228" pan="95"/>
          <note len="12" key="84" vol="100" pos="252" pan="95"/>
          <note len="12" key="84" vol="100" pos="276" pan="95"/>
          <note len="12" key="83" vol="100" pos="288" pan="95"/>
          <note len="12" key="83" vol="100" pos="312" pan="95"/>
          <note len="12" key="81" vol="100" pos="324" pan="95"/>
          <note len="12" key="83" vol="100" pos="336" pan="95"/>
          <note len="12" key="84" vol="100" pos="348" pan="95"/>
          <note len="12" key="86" vol="100" pos="360" pan="95"/>
          <note len="12" key="88" vol="100" pos="372" pan="95"/>
        </pattern>
        <pattern muted="0" steps="16" type="1" name="DSK AsianZ DreamZ" pos="6144">
          <note len="12" key="81" vol="100" pos="0" pan="95"/>
          <note len="12" key="79" vol="100" pos="12" pan="95"/>
          <note len="12" key="81" vol="100" pos="24" pan="95"/>
          <note len="12" key="84" vol="100" pos="36" pan="95"/>
          <note len="12" key="84" vol="100" pos="60" pan="95"/>
          <note len="12" key="84" vol="100" pos="84" pan="95"/>
          <note len="12" key="83" vol="100" pos="96" pan="95"/>
          <note len="12" key="83" vol="100" pos="120" pan="95"/>
          <note len="12" key="81" vol="100" pos="132" pan="95"/>
          <note len="12" key="83" vol="100" pos="144" pan="95"/>
          <note len="12" key="81" vol="100" pos="156" pan="95"/>
          <note len="12" key="79" vol="100" pos="168" pan="95"/>
          <note len="12" key="76" vol="100" pos="180" pan="95"/>
          <note len="12" key="81" vol="100" pos="192" pan="95"/>
          <note len="12" key="79" vol="100" pos="204" pan="95"/>
          <note len="12" key="81" vol="100" pos="216" pan="95"/>
          <note len="12" key="84" vol="100" pos="228" pan="95"/>
          <note len="12" key="84" vol="100" pos="252" pan="95"/>
          <note len="12" key="84" vol="100" pos="276" pan="95"/>
          <note len="12" key="83" vol="100" pos="288" pan="95"/>
          <note len="12" key="83" vol="100" pos="312" pan="95"/>
          <note len="12" key="81" vol="100" pos="324" pan="95"/>
          <note len="12" key="83" vol="100" pos="336" pan="95"/>
          <note len="12" key="84" vol="100" pos="348" pan="95"/>
          <note len="12" key="86" vol="100" pos="360" pan="95"/>
          <note len="12" key="88" vol="100" pos="372" pan="95"/>
        </pattern>
        <pattern muted="0" steps="16" type="1" name="DSK AsianZ DreamZ" pos="4224">
          <note len="12" key="81" vol="100" pos="0" pan="95"/>
          <note len="12" key="79" vol="100" pos="12" pan="95"/>
          <note len="12" key="81" vol="100" pos="24" pan="95"/>
          <note len="12" key="84" vol="100" pos="36" pan="95"/>
          <note len="12" key="84" vol="100" pos="60" pan="95"/>
          <note len="12" key="84" vol="100" pos="84" pan="95"/>
          <note len="12" key="83" vol="100" pos="96" pan="95"/>
          <note len="12" key="83" vol="100" pos="120" pan="95"/>
          <note len="12" key="81" vol="100" pos="132" pan="95"/>
          <note len="12" key="83" vol="100" pos="144" pan="95"/>
          <note len="12" key="81" vol="100" pos="156" pan="95"/>
          <note len="12" key="79" vol="100" pos="168" pan="95"/>
          <note len="12" key="76" vol="100" pos="180" pan="95"/>
          <note len="12" key="81" vol="100" pos="192" pan="95"/>
          <note len="12" key="79" vol="100" pos="204" pan="95"/>
          <note len="12" key="81" vol="100" pos="216" pan="95"/>
          <note len="12" key="84" vol="100" pos="228" pan="95"/>
          <note len="12" key="84" vol="100" pos="252" pan="95"/>
          <note len="12" key="84" vol="100" pos="276" pan="95"/>
          <note len="12" key="83" vol="100" pos="288" pan="95"/>
          <note len="12" key="83" vol="100" pos="312" pan="95"/>
          <note len="12" key="81" vol="100" pos="324" pan="95"/>
          <note len="12" key="83" vol="100" pos="336" pan="95"/>
          <note len="12" key="84" vol="100" pos="348" pan="95"/>
          <note len="12" key="86" vol="100" pos="360" pan="95"/>
          <note len="12" key="88" vol="100" pos="372" pan="95"/>
        </pattern>
        <pattern muted="0" steps="16" type="1" name="DSK AsianZ DreamZ" pos="6528">
          <note len="12" key="81" vol="100" pos="0" pan="95"/>
          <note len="12" key="79" vol="100" pos="12" pan="95"/>
          <note len="12" key="81" vol="100" pos="24" pan="95"/>
          <note len="12" key="84" vol="100" pos="36" pan="95"/>
          <note len="12" key="84" vol="100" pos="60" pan="95"/>
          <note len="12" key="84" vol="100" pos="84" pan="95"/>
          <note len="12" key="83" vol="100" pos="96" pan="95"/>
          <note len="12" key="83" vol="100" pos="120" pan="95"/>
          <note len="12" key="81" vol="100" pos="132" pan="95"/>
          <note len="12" key="83" vol="100" pos="144" pan="95"/>
          <note len="12" key="81" vol="100" pos="156" pan="95"/>
          <note len="12" key="79" vol="100" pos="168" pan="95"/>
          <note len="12" key="76" vol="100" pos="180" pan="95"/>
          <note len="12" key="81" vol="100" pos="192" pan="95"/>
          <note len="12" key="79" vol="100" pos="204" pan="95"/>
          <note len="12" key="81" vol="100" pos="216" pan="95"/>
          <note len="12" key="84" vol="100" pos="228" pan="95"/>
          <note len="12" key="84" vol="100" pos="252" pan="95"/>
          <note len="12" key="84" vol="100" pos="276" pan="95"/>
          <note len="12" key="83" vol="100" pos="288" pan="95"/>
          <note len="12" key="83" vol="100" pos="312" pan="95"/>
          <note len="12" key="81" vol="100" pos="324" pan="95"/>
          <note len="12" key="83" vol="100" pos="336" pan="95"/>
          <note len="12" key="84" vol="100" pos="348" pan="95"/>
          <note len="12" key="86" vol="100" pos="360" pan="95"/>
          <note len="12" key="88" vol="100" pos="372" pan="95"/>
        </pattern>
        <pattern muted="0" steps="16" type="1" name="DSK AsianZ DreamZ" pos="6912">
          <note len="12" key="81" vol="100" pos="0" pan="95"/>
          <note len="12" key="79" vol="100" pos="12" pan="95"/>
          <note len="12" key="81" vol="100" pos="24" pan="95"/>
          <note len="12" key="84" vol="100" pos="36" pan="95"/>
          <note len="12" key="84" vol="100" pos="60" pan="95"/>
          <note len="12" key="84" vol="100" pos="84" pan="95"/>
          <note len="12" key="83" vol="100" pos="96" pan="95"/>
          <note len="12" key="83" vol="100" pos="120" pan="95"/>
          <note len="12" key="81" vol="100" pos="132" pan="95"/>
          <note len="12" key="83" vol="100" pos="144" pan="95"/>
          <note len="12" key="81" vol="100" pos="156" pan="95"/>
          <note len="12" key="79" vol="100" pos="168" pan="95"/>
          <note len="12" key="76" vol="100" pos="180" pan="95"/>
          <note len="12" key="81" vol="100" pos="192" pan="95"/>
          <note len="12" key="79" vol="100" pos="204" pan="95"/>
          <note len="12" key="81" vol="100" pos="216" pan="95"/>
          <note len="12" key="84" vol="100" pos="228" pan="95"/>
          <note len="12" key="84" vol="100" pos="252" pan="95"/>
          <note len="12" key="84" vol="100" pos="276" pan="95"/>
          <note len="12" key="83" vol="100" pos="288" pan="95"/>
          <note len="12" key="83" vol="100" pos="312" pan="95"/>
          <note len="12" key="81" vol="100" pos="324" pan="95"/>
          <note len="12" key="83" vol="100" pos="336" pan="95"/>
          <note len="12" key="84" vol="100" pos="348" pan="95"/>
          <note len="12" key="86" vol="100" pos="360" pan="95"/>
          <note len="12" key="88" vol="100" pos="372" pan="95"/>
        </pattern>
        <pattern muted="0" steps="16" type="1" name="DSK AsianZ DreamZ" pos="7296">
          <note len="12" key="81" vol="100" pos="0" pan="95"/>
          <note len="12" key="79" vol="100" pos="12" pan="95"/>
          <note len="12" key="81" vol="100" pos="24" pan="95"/>
          <note len="12" key="84" vol="100" pos="36" pan="95"/>
          <note len="12" key="84" vol="100" pos="60" pan="95"/>
          <note len="12" key="84" vol="100" pos="84" pan="95"/>
          <note len="12" key="83" vol="100" pos="96" pan="95"/>
          <note len="12" key="83" vol="100" pos="120" pan="95"/>
          <note len="12" key="81" vol="100" pos="132" pan="95"/>
          <note len="12" key="83" vol="100" pos="144" pan="95"/>
          <note len="12" key="81" vol="100" pos="156" pan="95"/>
          <note len="12" key="79" vol="100" pos="168" pan="95"/>
          <note len="12" key="76" vol="100" pos="180" pan="95"/>
          <note len="12" key="81" vol="100" pos="192" pan="95"/>
          <note len="12" key="79" vol="100" pos="204" pan="95"/>
          <note len="12" key="81" vol="100" pos="216" pan="95"/>
          <note len="12" key="84" vol="100" pos="228" pan="95"/>
          <note len="12" key="84" vol="100" pos="252" pan="95"/>
          <note len="12" key="84" vol="100" pos="276" pan="95"/>
          <note len="12" key="83" vol="100" pos="288" pan="95"/>
          <note len="12" key="83" vol="100" pos="312" pan="95"/>
          <note len="12" key="81" vol="100" pos="324" pan="95"/>
          <note len="12" key="83" vol="100" pos="336" pan="95"/>
          <note len="12" key="84" vol="100" pos="348" pan="95"/>
          <note len="12" key="86" vol="100" pos="360" pan="95"/>
          <note len="12" key="88" vol="100" pos="372" pan="95"/>
        </pattern>
        <pattern muted="0" steps="16" type="1" name="DSK AsianZ DreamZ" pos="7680">
          <note len="12" key="81" vol="100" pos="0" pan="95"/>
          <note len="12" key="79" vol="100" pos="12" pan="95"/>
          <note len="12" key="81" vol="100" pos="24" pan="95"/>
          <note len="12" key="84" vol="100" pos="36" pan="95"/>
          <note len="12" key="84" vol="100" pos="60" pan="95"/>
          <note len="12" key="84" vol="100" pos="84" pan="95"/>
          <note len="12" key="83" vol="100" pos="96" pan="95"/>
          <note len="12" key="83" vol="100" pos="120" pan="95"/>
          <note len="12" key="81" vol="100" pos="132" pan="95"/>
          <note len="12" key="83" vol="100" pos="144" pan="95"/>
          <note len="12" key="81" vol="100" pos="156" pan="95"/>
          <note len="12" key="79" vol="100" pos="168" pan="95"/>
          <note len="12" key="76" vol="100" pos="180" pan="95"/>
          <note len="12" key="81" vol="100" pos="192" pan="95"/>
          <note len="12" key="79" vol="100" pos="204" pan="95"/>
          <note len="12" key="81" vol="100" pos="216" pan="95"/>
          <note len="12" key="84" vol="100" pos="228" pan="95"/>
          <note len="12" key="84" vol="100" pos="252" pan="95"/>
          <note len="12" key="84" vol="100" pos="276" pan="95"/>
          <note len="12" key="83" vol="100" pos="288" pan="95"/>
          <note len="12" key="83" vol="100" pos="312" pan="95"/>
          <note len="12" key="81" vol="100" pos="324" pan="95"/>
          <note len="12" key="83" vol="100" pos="336" pan="95"/>
          <note len="12" key="84" vol="100" pos="348" pan="95"/>
          <note len="12" key="86" vol="100" pos="360" pan="95"/>
          <note len="12" key="88" vol="100" pos="372" pan="95"/>
        </pattern>
        <pattern muted="0" steps="16" type="1" name="DSK AsianZ DreamZ" pos="2304">
          <note len="12" key="81" vol="100" pos="0" pan="95"/>
          <note len="12" key="79" vol="100" pos="12" pan="95"/>
          <note len="12" key="81" vol="100" pos="24" pan="95"/>
          <note len="12" key="84" vol="100" pos="36" pan="95"/>
          <note len="12" key="84" vol="100" pos="60" pan="95"/>
          <note len="12" key="84" vol="100" pos="84" pan="95"/>
          <note len="12" key="83" vol="100" pos="96" pan="95"/>
          <note len="12" key="83" vol="100" pos="120" pan="95"/>
          <note len="12" key="81" vol="100" pos="132" pan="95"/>
          <note len="12" key="83" vol="100" pos="144" pan="95"/>
          <note len="12" key="81" vol="100" pos="156" pan="95"/>
          <note len="12" key="79" vol="100" pos="168" pan="95"/>
          <note len="12" key="76" vol="100" pos="180" pan="95"/>
          <note len="12" key="81" vol="100" pos="192" pan="95"/>
          <note len="12" key="79" vol="100" pos="204" pan="95"/>
          <note len="12" key="81" vol="100" pos="216" pan="95"/>
          <note len="12" key="84" vol="100" pos="228" pan="95"/>
          <note len="12" key="84" vol="100" pos="252" pan="95"/>
          <note len="12" key="84" vol="100" pos="276" pan="95"/>
          <note len="12" key="83" vol="100" pos="288" pan="95"/>
          <note len="12" key="83" vol="100" pos="312" pan="95"/>
          <note len="12" key="81" vol="100" pos="324" pan="95"/>
          <note len="12" key="83" vol="100" pos="336" pan="95"/>
          <note len="12" key="84" vol="100" pos="348" pan="95"/>
          <note len="12" key="86" vol="100" pos="360" pan="95"/>
          <note len="12" key="88" vol="100" pos="372" pan="95"/>
        </pattern>
        <pattern muted="0" steps="16" type="1" name="DSK AsianZ DreamZ" pos="2688">
          <note len="12" key="81" vol="100" pos="0" pan="95"/>
          <note len="12" key="79" vol="100" pos="12" pan="95"/>
          <note len="12" key="81" vol="100" pos="24" pan="95"/>
          <note len="12" key="84" vol="100" pos="36" pan="95"/>
          <note len="12" key="84" vol="100" pos="60" pan="95"/>
          <note len="12" key="84" vol="100" pos="84" pan="95"/>
          <note len="12" key="83" vol="100" pos="96" pan="95"/>
          <note len="12" key="83" vol="100" pos="120" pan="95"/>
          <note len="12" key="81" vol="100" pos="132" pan="95"/>
          <note len="12" key="83" vol="100" pos="144" pan="95"/>
          <note len="12" key="81" vol="100" pos="156" pan="95"/>
          <note len="12" key="79" vol="100" pos="168" pan="95"/>
          <note len="12" key="76" vol="100" pos="180" pan="95"/>
          <note len="12" key="81" vol="100" pos="192" pan="95"/>
          <note len="12" key="79" vol="100" pos="204" pan="95"/>
          <note len="12" key="81" vol="100" pos="216" pan="95"/>
          <note len="12" key="84" vol="100" pos="228" pan="95"/>
          <note len="12" key="84" vol="100" pos="252" pan="95"/>
          <note len="12" key="84" vol="100" pos="276" pan="95"/>
          <note len="12" key="83" vol="100" pos="288" pan="95"/>
          <note len="12" key="83" vol="100" pos="312" pan="95"/>
          <note len="12" key="81" vol="100" pos="324" pan="95"/>
          <note len="12" key="83" vol="100" pos="336" pan="95"/>
          <note len="12" key="84" vol="100" pos="348" pan="95"/>
          <note len="12" key="86" vol="100" pos="360" pan="95"/>
          <note len="12" key="88" vol="100" pos="372" pan="95"/>
        </pattern>
        <pattern muted="0" steps="16" type="1" name="DSK AsianZ DreamZ" pos="3072">
          <note len="12" key="81" vol="100" pos="0" pan="95"/>
          <note len="12" key="79" vol="100" pos="12" pan="95"/>
          <note len="12" key="81" vol="100" pos="24" pan="95"/>
          <note len="12" key="84" vol="100" pos="36" pan="95"/>
          <note len="12" key="84" vol="100" pos="60" pan="95"/>
          <note len="12" key="84" vol="100" pos="84" pan="95"/>
          <note len="12" key="83" vol="100" pos="96" pan="95"/>
          <note len="12" key="83" vol="100" pos="120" pan="95"/>
          <note len="12" key="81" vol="100" pos="132" pan="95"/>
          <note len="12" key="83" vol="100" pos="144" pan="95"/>
          <note len="12" key="81" vol="100" pos="156" pan="95"/>
          <note len="12" key="79" vol="100" pos="168" pan="95"/>
          <note len="12" key="76" vol="100" pos="180" pan="95"/>
          <note len="12" key="81" vol="100" pos="192" pan="95"/>
          <note len="12" key="79" vol="100" pos="204" pan="95"/>
          <note len="12" key="81" vol="100" pos="216" pan="95"/>
          <note len="12" key="84" vol="100" pos="228" pan="95"/>
          <note len="12" key="84" vol="100" pos="252" pan="95"/>
          <note len="12" key="84" vol="100" pos="276" pan="95"/>
          <note len="12" key="83" vol="100" pos="288" pan="95"/>
          <note len="12" key="83" vol="100" pos="312" pan="95"/>
          <note len="12" key="81" vol="100" pos="324" pan="95"/>
          <note len="12" key="83" vol="100" pos="336" pan="95"/>
          <note len="12" key="84" vol="100" pos="348" pan="95"/>
          <note len="12" key="86" vol="100" pos="360" pan="95"/>
          <note len="12" key="88" vol="100" pos="372" pan="95"/>
        </pattern>
        <pattern muted="0" steps="16" type="1" name="DSK AsianZ DreamZ" pos="3456">
          <note len="12" key="81" vol="100" pos="0" pan="95"/>
          <note len="12" key="79" vol="100" pos="12" pan="95"/>
          <note len="12" key="81" vol="100" pos="24" pan="95"/>
          <note len="12" key="84" vol="100" pos="36" pan="95"/>
          <note len="12" key="84" vol="100" pos="60" pan="95"/>
          <note len="12" key="84" vol="100" pos="84" pan="95"/>
          <note len="12" key="83" vol="100" pos="96" pan="95"/>
          <note len="12" key="83" vol="100" pos="120" pan="95"/>
          <note len="12" key="81" vol="100" pos="132" pan="95"/>
          <note len="12" key="83" vol="100" pos="144" pan="95"/>
          <note len="12" key="81" vol="100" pos="156" pan="95"/>
          <note len="12" key="79" vol="100" pos="168" pan="95"/>
          <note len="12" key="76" vol="100" pos="180" pan="95"/>
          <note len="12" key="81" vol="100" pos="192" pan="95"/>
          <note len="12" key="79" vol="100" pos="204" pan="95"/>
          <note len="12" key="81" vol="100" pos="216" pan="95"/>
          <note len="12" key="84" vol="100" pos="228" pan="95"/>
          <note len="12" key="84" vol="100" pos="252" pan="95"/>
          <note len="12" key="84" vol="100" pos="276" pan="95"/>
          <note len="12" key="83" vol="100" pos="288" pan="95"/>
          <note len="12" key="83" vol="100" pos="312" pan="95"/>
          <note len="12" key="81" vol="100" pos="324" pan="95"/>
          <note len="12" key="83" vol="100" pos="336" pan="95"/>
          <note len="12" key="84" vol="100" pos="348" pan="95"/>
          <note len="12" key="86" vol="100" pos="360" pan="95"/>
          <note len="12" key="88" vol="100" pos="372" pan="95"/>
        </pattern>
        <pattern muted="0" steps="16" type="1" name="DSK AsianZ DreamZ" pos="8064">
          <note len="12" key="81" vol="100" pos="0" pan="95"/>
          <note len="12" key="79" vol="100" pos="12" pan="95"/>
          <note len="12" key="81" vol="100" pos="24" pan="95"/>
          <note len="12" key="84" vol="100" pos="36" pan="95"/>
          <note len="12" key="84" vol="100" pos="60" pan="95"/>
          <note len="12" key="84" vol="100" pos="84" pan="95"/>
          <note len="12" key="83" vol="100" pos="96" pan="95"/>
          <note len="12" key="83" vol="100" pos="120" pan="95"/>
          <note len="12" key="81" vol="100" pos="132" pan="95"/>
          <note len="12" key="83" vol="100" pos="144" pan="95"/>
          <note len="12" key="81" vol="100" pos="156" pan="95"/>
          <note len="12" key="79" vol="100" pos="168" pan="95"/>
          <note len="12" key="76" vol="100" pos="180" pan="95"/>
          <note len="12" key="81" vol="100" pos="192" pan="95"/>
          <note len="12" key="79" vol="100" pos="204" pan="95"/>
          <note len="12" key="81" vol="100" pos="216" pan="95"/>
          <note len="12" key="84" vol="100" pos="228" pan="95"/>
          <note len="12" key="84" vol="100" pos="252" pan="95"/>
          <note len="12" key="84" vol="100" pos="276" pan="95"/>
          <note len="12" key="83" vol="100" pos="288" pan="95"/>
          <note len="12" key="83" vol="100" pos="312" pan="95"/>
          <note len="12" key="81" vol="100" pos="324" pan="95"/>
          <note len="12" key="83" vol="100" pos="336" pan="95"/>
          <note len="12" key="84" vol="100" pos="348" pan="95"/>
          <note len="12" key="86" vol="100" pos="360" pan="95"/>
          <note len="12" key="88" vol="100" pos="372" pan="95"/>
        </pattern>
        <pattern muted="0" steps="16" type="1" name="DSK AsianZ DreamZ" pos="1920">
          <note len="12" key="81" vol="100" pos="0" pan="95"/>
          <note len="12" key="79" vol="100" pos="12" pan="95"/>
          <note len="12" key="81" vol="100" pos="24" pan="95"/>
          <note len="12" key="84" vol="100" pos="36" pan="95"/>
          <note len="12" key="84" vol="100" pos="60" pan="95"/>
          <note len="12" key="84" vol="100" pos="84" pan="95"/>
          <note len="12" key="83" vol="100" pos="96" pan="95"/>
          <note len="12" key="83" vol="100" pos="120" pan="95"/>
          <note len="12" key="81" vol="100" pos="132" pan="95"/>
          <note len="12" key="83" vol="100" pos="144" pan="95"/>
          <note len="12" key="81" vol="100" pos="156" pan="95"/>
          <note len="12" key="79" vol="100" pos="168" pan="95"/>
          <note len="12" key="76" vol="100" pos="180" pan="95"/>
          <note len="12" key="81" vol="100" pos="192" pan="95"/>
          <note len="12" key="79" vol="100" pos="204" pan="95"/>
          <note len="12" key="81" vol="100" pos="216" pan="95"/>
          <note len="12" key="84" vol="100" pos="228" pan="95"/>
          <note len="12" key="84" vol="100" pos="252" pan="95"/>
          <note len="12" key="84" vol="100" pos="276" pan="95"/>
          <note len="12" key="83" vol="100" pos="288" pan="95"/>
          <note len="12" key="83" vol="100" pos="312" pan="95"/>
          <note len="12" key="81" vol="100" pos="324" pan="95"/>
          <note len="12" key="83" vol="100" pos="336" pan="95"/>
          <note len="12" key="84" vol="100" pos="348" pan="95"/>
          <note len="12" key="86" vol="100" pos="360" pan="95"/>
          <note len="12" key="88" vol="100" pos="372" pan="95"/>
        </pattern>
        <pattern muted="0" steps="16" type="1" name="DSK AsianZ DreamZ" pos="8448">
          <note len="12" key="81" vol="100" pos="0" pan="95"/>
          <note len="12" key="79" vol="100" pos="12" pan="95"/>
          <note len="12" key="81" vol="100" pos="24" pan="95"/>
          <note len="12" key="84" vol="100" pos="36" pan="95"/>
          <note len="12" key="84" vol="100" pos="60" pan="95"/>
          <note len="12" key="84" vol="100" pos="84" pan="95"/>
          <note len="12" key="83" vol="100" pos="96" pan="95"/>
          <note len="12" key="83" vol="100" pos="120" pan="95"/>
          <note len="12" key="81" vol="100" pos="132" pan="95"/>
          <note len="12" key="83" vol="100" pos="144" pan="95"/>
          <note len="12" key="81" vol="100" pos="156" pan="95"/>
          <note len="12" key="79" vol="100" pos="168" pan="95"/>
          <note len="12" key="76" vol="100" pos="180" pan="95"/>
          <note len="12" key="81" vol="100" pos="192" pan="95"/>
          <note len="12" key="79" vol="100" pos="204" pan="95"/>
          <note len="12" key="81" vol="100" pos="216" pan="95"/>
          <note len="12" key="84" vol="100" pos="228" pan="95"/>
          <note len="12" key="84" vol="100" pos="252" pan="95"/>
          <note len="12" key="84" vol="100" pos="276" pan="95"/>
          <note len="12" key="83" vol="100" pos="288" pan="95"/>
          <note len="12" key="83" vol="100" pos="312" pan="95"/>
          <note len="12" key="81" vol="100" pos="324" pan="95"/>
          <note len="12" key="83" vol="100" pos="336" pan="95"/>
          <note len="12" key="84" vol="100" pos="348" pan="95"/>
          <note len="12" key="86" vol="100" pos="360" pan="95"/>
          <note len="12" key="88" vol="100" pos="372" pan="95"/>
        </pattern>
      </track>
      <track muted="0" type="0" name="Mini_DiZi" solo="0">
        <instrumenttrack pitch="0" usemasterpitch="1" fxch="0" pitchrange="1" basenote="3" pan="0">
          <vol id="6945345" scale_type="linear" value="10"/>
          <instrument name="vestige">
            <vestige program="0" plugin="/home/fxzjshm/lmms/plugins/vst/Mini_DiZi.dll" chunk="ywANABEAAAAHAAAAUmkAAA4AAADpJgAAeQAgANYsAAANAAAAI0gAABEAAAAAAAAA8VoAAEkWAAAFAAAAkF8AAAIAAAAHAAAAvhgAAPFtAAAAAAAAmQAAABItAACmLgAA4UoAAAZNAACQXwAAgAAAAAxEaVppX1Rlbm9yXzEMRGlaaV9UZW5vcl8yEERpWmlfVGVub3JfVHJpbGwQRGlaaV9UZW5vcl9TaG9ydBNEaVppX1Rlbm9yX1RyaWxsb25lC0RpWmlfQmFzc18xDkRpWmlfQmFzc19YaWFvDURpWmlfVHJlYmxlXzENRGlaaV9UcmVibGVfMglEaVppX0F0dGMMRGlaaV9BcnRmaWxsDyhDb3B5IDExKSBFbXB0eQ8oQ29weSAxMikgRW1wdHkPKENvcHkgMTMpIEVtcHR5DyhDb3B5IDE0KSBFbXB0eQ8oQ29weSAxNSkgRW1wdHkPKENvcHkgMTYpIEVtcHR5DyhDb3B5IDE3KSBFbXB0eQ8oQ29weSAxOCkgRW1wdHkPKENvcHkgMTkpIEVtcHR5DyhDb3B5IDIwKSBFbXB0eQ8oQ29weSAyMSkgRW1wdHkPKENvcHkgMjIpIEVtcHR5DyhDb3B5IDIzKSBFbXB0eQ8oQ29weSAyNCkgRW1wdHkPKENvcHkgMjUpIEVtcHR5DyhDb3B5IDI2KSBFbXB0eQ8oQ29weSAyNykgRW1wdHkPKENvcHkgMjgpIEVtcHR5DyhDb3B5IDI5KSBFbXB0eQ8oQ29weSAzMCkgRW1wdHkPKENvcHkgMzEpIEVtcHR5DyhDb3B5IDMyKSBFbXB0eQ8oQ29weSAzMykgRW1wdHkPKENvcHkgMzQpIEVtcHR5DyhDb3B5IDM1KSBFbXB0eQ8oQ29weSAzNikgRW1wdHkPKENvcHkgMzcpIEVtcHR5DyhDb3B5IDM4KSBFbXB0eQ8oQ29weSAzOSkgRW1wdHkPKENvcHkgNDApIEVtcHR5DyhDb3B5IDQxKSBFbXB0eQ8oQ29weSA0MikgRW1wdHkPKENvcHkgNDMpIEVtcHR5DyhDb3B5IDQ0KSBFbXB0eQ8oQ29weSA0NSkgRW1wdHkPKENvcHkgNDYpIEVtcHR5DyhDb3B5IDQ3KSBFbXB0eQ8oQ29weSA0OCkgRW1wdHkPKENvcHkgNDkpIEVtcHR5DyhDb3B5IDUwKSBFbXB0eQ8oQ29weSA1MSkgRW1wdHkPKENvcHkgNTIpIEVtcHR5DyhDb3B5IDUzKSBFbXB0eQ8oQ29weSA1NCkgRW1wdHkPKENvcHkgNTUpIEVtcHR5DyhDb3B5IDU2KSBFbXB0eQ8oQ29weSA1NykgRW1wdHkPKENvcHkgNTgpIEVtcHR5DyhDb3B5IDU5KSBFbXB0eQ8oQ29weSA2MCkgRW1wdHkPKENvcHkgNjEpIEVtcHR5DyhDb3B5IDYyKSBFbXB0eQ8oQ29weSA2MykgRW1wdHkPKENvcHkgNjQpIEVtcHR5DyhDb3B5IDY1KSBFbXB0eQ8oQ29weSA2NikgRW1wdHkPKENvcHkgNjcpIEVtcHR5DyhDb3B5IDY4KSBFbXB0eQ8oQ29weSA2OSkgRW1wdHkPKENvcHkgNzApIEVtcHR5DyhDb3B5IDcxKSBFbXB0eQ8oQ29weSA3MikgRW1wdHkPKENvcHkgNzMpIEVtcHR5DyhDb3B5IDc0KSBFbXB0eQ8oQ29weSA3NSkgRW1wdHkPKENvcHkgNzYpIEVtcHR5DyhDb3B5IDc3KSBFbXB0eQ8oQ29weSA3OCkgRW1wdHkPKENvcHkgNzkpIEVtcHR5DyhDb3B5IDgwKSBFbXB0eQ8oQ29weSA4MSkgRW1wdHkPKENvcHkgODIpIEVtcHR5DyhDb3B5IDgzKSBFbXB0eQ8oQ29weSA4NCkgRW1wdHkPKENvcHkgODUpIEVtcHR5DyhDb3B5IDg2KSBFbXB0eQ8oQ29weSA4NykgRW1wdHkPKENvcHkgODgpIEVtcHR5DyhDb3B5IDg5KSBFbXB0eQ8oQ29weSA5MCkgRW1wdHkPKENvcHkgOTEpIEVtcHR5DyhDb3B5IDkyKSBFbXB0eQ8oQ29weSA5MykgRW1wdHkPKENvcHkgOTQpIEVtcHR5DyhDb3B5IDk1KSBFbXB0eQ8oQ29weSA5NikgRW1wdHkPKENvcHkgOTcpIEVtcHR5DyhDb3B5IDk4KSBFbXB0eQ8oQ29weSA5OSkgRW1wdHkQKENvcHkgMTAwKSBFbXB0eRAoQ29weSAxMDEpIEVtcHR5EChDb3B5IDEwMikgRW1wdHkQKENvcHkgMTAzKSBFbXB0eRAoQ29weSAxMDQpIEVtcHR5EChDb3B5IDEwNSkgRW1wdHkQKENvcHkgMTA2KSBFbXB0eRAoQ29weSAxMDcpIEVtcHR5EChDb3B5IDEwOCkgRW1wdHkQKENvcHkgMTA5KSBFbXB0eRAoQ29weSAxMTApIEVtcHR5EChDb3B5IDExMSkgRW1wdHkQKENvcHkgMTEyKSBFbXB0eRAoQ29weSAxMTMpIEVtcHR5EChDb3B5IDExNCkgRW1wdHkQKENvcHkgMTE1KSBFbXB0eRAoQ29weSAxMTYpIEVtcHR5EChDb3B5IDExNykgRW1wdHkQKENvcHkgMTE4KSBFbXB0eRAoQ29weSAxMTkpIEVtcHR5EChDb3B5IDEyMCkgRW1wdHkQKENvcHkgMTIxKSBFbXB0eRAoQ29weSAxMjIpIEVtcHR5EChDb3B5IDEyMykgRW1wdHkQKENvcHkgMTI0KSBFbXB0eRAoQ29weSAxMjUpIEVtcHR5EChDb3B5IDEyNikgRW1wdHkQKENvcHkgMTI3KSBFbXB0eQYtNC40MDAGLTUuMDAwBi01LjAwMAYtNS4wMDAGLTUuMDAwBi0wLjIzNwQyLjU0Bi0yLjE1MAYtMy44MDAGLTUuMDAwBi01LjAwMAYtNS4wMDAGLTUuMDAwBi01LjAwMAYtNS4wMDAGLTUuMDAwBi01LjAwMAYtNS4wMDAGLTUuMDAwBi01LjAwMAYtNS4wMDAGLTUuMDAwBi01LjAwMAYtNS4wMDAGLTUuMDAwBi01LjAwMAYtNS4wMDAGLTUuMDAwBi01LjAwMAYtNS4wMDAGLTUuMDAwBi01LjAwMAYtNS4wMDAGLTUuMDAwBi01LjAwMAYtNS4wMDAGLTUuMDAwBi01LjAwMAYtNS4wMDAGLTUuMDAwBi01LjAwMAYtNS4wMDAGLTUuMDAwBi01LjAwMAYtNS4wMDAGLTUuMDAwBi01LjAwMAYtNS4wMDAGLTUuMDAwBi01LjAwMAYtNS4wMDAGLTUuMDAwBi01LjAwMAYtNS4wMDAGLTUuMDAwBi01LjAwMAYtNS4wMDAGLTUuMDAwBi01LjAwMAYtNS4wMDAGLTUuMDAwBi01LjAwMAYtNS4wMDAGLTUuMDAwBi01LjAwMAYtNS4wMDAGLTUuMDAwBi01LjAwMAYtNS4wMDAGLTUuMDAwBi01LjAwMAYtNS4wMDAGLTUuMDAwBi01LjAwMAYtNS4wMDAGLTUuMDAwBi01LjAwMAYtNS4wMDAGLTUuMDAwBi01LjAwMAYtNS4wMDAGLTUuMDAwBi01LjAwMAYtNS4wMDAGLTUuMDAwBi01LjAwMAYtNS4wMDAGLTUuMDAwBi01LjAwMAYtNS4wMDAGLTUuMDAwBi01LjAwMAYtNS4wMDAGLTUuMDAwBi01LjAwMAYtNS4wMDAGLTUuMDAwBi01LjAwMAYtNS4wMDAGLTUuMDAwBi01LjAwMAYtNS4wMDAGLTUuMDAwBi01LjAwMAYtNS4wMDAGLTUuMDAwBi01LjAwMAYtNS4wMDAGLTUuMDAwBi01LjAwMAYtNS4wMDAGLTUuMDAwBi01LjAwMAYtNS4wMDAGLTUuMDAwBi01LjAwMAYtNS4wMDAGLTUuMDAwBi01LjAwMAYtNS4wMDAGLTUuMDAwBi01LjAwMAYtNS4wMDAGLTUuMDAwBi01LjAwMAYtNS4wMDAGLTUuMDAwBi01LjAwMAUxMC4wMAUxMC4wMAUxMC4wMAUxMC4wMAUxMC4wMAUxMC4wMAUxMC4wMAUxMC4wMAUxMC4wMAQ0LjgwBTEwLjAwBTEwLjAwBTEwLjAwBTEwLjAwBTEwLjAwBTEwLjAwBTEwLjAwBTEwLjAwBTEwLjAwBTEwLjAwBTEwLjAwBTEwLjAwBTEwLjAwBTEwLjAwBTEwLjAwBTEwLjAwBTEwLjAwBTEwLjAwBTEwLjAwBTEwLjAwBTEwLjAwBTEwLjAwBTEwLjAwBTEwLjAwBTEwLjAwBTEwLjAwBTEwLjAwBTEwLjAwBTEwLjAwBTEwLjAwBTEwLjAwBTEwLjAwBTEwLjAwBTEwLjAwBTEwLjAwBTEwLjAwBTEwLjAwBTEwLjAwBTEwLjAwBTEwLjAwBTEwLjAwBTEwLjAwBTEwLjAwBTEwLjAwBTEwLjAwBTEwLjAwBTEwLjAwBTEwLjAwBTEwLjAwBTEwLjAwBTEwLjAwBTEwLjAwBTEwLjAwBTEwLjAwBTEwLjAwBTEwLjAwBTEwLjAwBTEwLjAwBTEwLjAwBTEwLjAwBTEwLjAwBTEwLjAwBTEwLjAwBTEwLjAwBTEwLjAwBTEwLjAwBTEwLjAwBTEwLjAwBTEwLjAwBTEwLjAwBTEwLjAwBTEwLjAwBTEwLjAwBTEwLjAwBTEwLjAwBTEwLjAwBTEwLjAwBTEwLjAwBTEwLjAwBTEwLjAwBTEwLjAwBTEwLjAwBTEwLjAwBTEwLjAwBTEwLjAwBTEwLjAwBTEwLjAwBTEwLjAwBTEwLjAwBTEwLjAwBTEwLjAwBTEwLjAwBTEwLjAwBTEwLjAwBTEwLjAwBTEwLjAwBTEwLjAwBTEwLjAwBTEwLjAwBTEwLjAwBTEwLjAwBTEwLjAwBTEwLjAwBTEwLjAwBTEwLjAwBTEwLjAwBTEwLjAwBTEwLjAwBTEwLjAwBTEwLjAwBTEwLjAwBTEwLjAwBTEwLjAwBTEwLjAwBTEwLjAwBTEwLjAwBTEwLjAwBTEwLjAwBi00LjA1NgYtMy44MjEGLTMuNjE3Bi0zLjIyOQYtMy4xNDUGLTMuMzM0Bi0zLjE5MwYtMi45MTcGLTMuNTQzBi0yLjMxMAYtMi44MDcGLTIuNTA5BDUuMDAENS4wMAQ1LjAwBDUuMDAENS4wMAQ1LjAwBDUuMDAENS4wMAQ1LjAwBDUuMDAENS4wMAQ1LjAwBDUuMDAENS4wMAQ1LjAwBDUuMDAENS4wMAQ1LjAwBDUuMDAENS4wMAQ1LjAwBDUuMDAENS4wMAQ1LjAwBDUuMDAENS4wMAQ1LjAwBDUuMDAENS4wMAQ1LjAwBDUuMDAENS4wMAQ1LjAwBDUuMDAENS4wMAQ1LjAwBDUuMDAENS4wMAQ1LjAwBDUuMDAENS4wMAQ1LjAwBDUuMDAENS4wMAQ1LjAwBDUuMDAENS4wMAQ1LjAwBDUuMDAENS4wMAQ1LjAwBDUuMDAENS4wMAQ1LjAwBDUuMDAENS4wMAQ1LjAwBDUuMDAENS4wMAQ1LjAwBDUuMDAENS4wMAQ1LjAwBDUuMDAENS4wMAQ1LjAwBDUuMDAENS4wMAQ1LjAwBDUuMDAENS4wMAQ1LjAwBDUuMDAENS4wMAQ1LjAwBDUuMDAENS4wMAQ1LjAwBDUuMDAENS4wMAQ1LjAwBDUuMDAENS4wMAQ1LjAwBDUuMDAENS4wMAQ1LjAwBDUuMDAENS4wMAQ1LjAwBDUuMDAENS4wMAQ1LjAwBDUuMDAENS4wMAQ1LjAwBDUuMDAENS4wMAQ1LjAwBDUuMDAENS4wMAQ1LjAwBDUuMDAENS4wMAQ1LjAwBDUuMDAENS4wMAQ1LjAwBDUuMDAENS4wMAQ1LjAwBDUuMDAENS4wMAQ1LjAwBDUuMDAENS4wMAUxMC4wMAUxMC4wMAUxMC4wMAUxMC4wMAUxMC4wMAUxMC4wMAUxMC4wMAUxMC4wMAUxMC4wMAUxMC4wMAUxMC4wMAUxMC4wMAUxMC4wMAUxMC4wMAUxMC4wMAUxMC4wMAUxMC4wMAUxMC4wMAUxMC4wMAUxMC4wMAUxMC4wMAUxMC4wMAUxMC4wMAUxMC4wMAUxMC4wMAUxMC4wMAUxMC4wMAUxMC4wMAUxMC4wMAUxMC4wMAUxMC4wMAUxMC4wMAUxMC4wMAUxMC4wMAUxMC4wMAUxMC4wMAUxMC4wMAUxMC4wMAUxMC4wMAUxMC4wMAUxMC4wMAUxMC4wMAUxMC4wMAUxMC4wMAUxMC4wMAUxMC4wMAUxMC4wMAUxMC4wMAUxMC4wMAUxMC4wMAUxMC4wMAUxMC4wMAUxMC4wMAUxMC4wMAUxMC4wMAUxMC4wMAUxMC4wMAUxMC4wMAUxMC4wMAUxMC4wMAUxMC4wMAUxMC4wMAUxMC4wMAUxMC4wMAUxMC4wMAUxMC4wMAUxMC4wMAUxMC4wMAUxMC4wMAUxMC4wMAUxMC4wMAUxMC4wMAUxMC4wMAUxMC4wMAUxMC4wMAUxMC4wMAUxMC4wMAUxMC4wMAUxMC4wMAUxMC4wMAUxMC4wMAUxMC4wMAUxMC4wMAUxMC4wMAUxMC4wMAUxMC4wMAUxMC4wMAUxMC4wMAUxMC4wMAUxMC4wMAUxMC4wMAUxMC4wMAUxMC4wMAUxMC4wMAUxMC4wMAUxMC4wMAUxMC4wMAUxMC4wMAUxMC4wMAUxMC4wMAUxMC4wMAUxMC4wMAUxMC4wMAUxMC4wMAUxMC4wMAUxMC4wMAUxMC4wMAUxMC4wMAUxMC4wMAUxMC4wMAUxMC4wMAUxMC4wMAUxMC4wMAUxMC4wMAUxMC4wMAUxMC4wMAUxMC4wMAUxMC4wMAUxMC4wMAUxMC4wMAUxMC4wMAUxMC4wMAUxMC4wMAUxMC4wMAUxMC4wMAUxMC4wMAUxMC4wMAUxMC4wMAYtMC4wMDEFMC4wMDEGLTAuMDAxBi0wLjAwMQYtMC4wMDEGLTAuMDAxBi0wLjAwMQYtMC4wMDIGLTAuMDE0Bi0wLjAwMQYtMC4wMDMGLTAuMDAxBi0wLjAwMQYtMC4wMDEGLTAuMDAxBi0wLjAwMQYtMC4wMDEGLTAuMDAxBi0wLjAwMQYtMC4wMDEGLTAuMDAxBi0wLjAwMQYtMC4wMDEGLTAuMDAxBi0wLjAwMQYtMC4wMDEGLTAuMDAxBi0wLjAwMQYtMC4wMDEGLTAuMDAxBi0wLjAwMQYtMC4wMDEGLTAuMDAxBi0wLjAwMQYtMC4wMDEGLTAuMDAxBi0wLjAwMQYtMC4wMDEGLTAuMDAxBi0wLjAwMQYtMC4wMDEGLTAuMDAxBi0wLjAwMQYtMC4wMDEGLTAuMDAxBi0wLjAwMQYtMC4wMDEGLTAuMDAxBi0wLjAwMQYtMC4wMDEGLTAuMDAxBi0wLjAwMQYtMC4wMDEGLTAuMDAxBi0wLjAwMQYtMC4wMDEGLTAuMDAxBi0wLjAwMQYtMC4wMDEGLTAuMDAxBi0wLjAwMQYtMC4wMDEGLTAuMDAxBi0wLjAwMQYtMC4wMDEGLTAuMDAxBi0wLjAwMQYtMC4wMDEGLTAuMDAxBi0wLjAwMQYtMC4wMDEGLTAuMDAxBi0wLjAwMQYtMC4wMDEGLTAuMDAxBi0wLjAwMQYtMC4wMDEGLTAuMDAxBi0wLjAwMQYtMC4wMDEGLTAuMDAxBi0wLjAwMQYtMC4wMDEGLTAuMDAxBi0wLjAwMQYtMC4wMDEGLTAuMDAxBi0wLjAwMQYtMC4wMDEGLTAuMDAxBi0wLjAwMQYtMC4wMDEGLTAuMDAxBi0wLjAwMQYtMC4wMDEGLTAuMDAxBi0wLjAwMQYtMC4wMDEGLTAuMDAxBi0wLjAwMQYtMC4wMDEGLTAuMDAxBi0wLjAwMQYtMC4wMDEGLTAuMDAxBi0wLjAwMQYtMC4wMDEGLTAuMDAxBi0wLjAwMQYtMC4wMDEGLTAuMDAxBi0wLjAwMQYtMC4wMDEGLTAuMDAxBi0wLjAwMQYtMC4wMDEGLTAuMDAxBi0wLjAwMQYtMC4wMDEGLTAuMDAxBi0wLjAwMQYtMC4wMDEGLTAuMDAxBi0wLjAwMQYtMC4wMDEGLTAuMDAxBi0wLjAwMQYtMC4wMDEFMC4wMDAFMC4wMDAFMC4wMDAFMC4wMDAFMC4wMDAFMC4wMDAFMC4wMDAFMC4wMDAFMC4wMDAFMC4wMDAFMC4wMDAFMC4wMDAFMC4wMDAFMC4wMDAFMC4wMDAFMC4wMDAFMC4wMDAFMC4wMDAFMC4wMDAFMC4wMDAFMC4wMDAFMC4wMDAFMC4wMDAFMC4wMDAFMC4wMDAFMC4wMDAFMC4wMDAFMC4wMDAFMC4wMDAFMC4wMDAFMC4wMDAFMC4wMDAFMC4wMDAFMC4wMDAFMC4wMDAFMC4wMDAFMC4wMDAFMC4wMDAFMC4wMDAFMC4wMDAFMC4wMDAFMC4wMDAFMC4wMDAFMC4wMDAFMC4wMDAFMC4wMDAFMC4wMDAFMC4wMDAFMC4wMDAFMC4wMDAFMC4wMDAFMC4wMDAFMC4wMDAFMC4wMDAFMC4wMDAFMC4wMDAFMC4wMDAFMC4wMDAFMC4wMDAFMC4wMDAFMC4wMDAFMC4wMDAFMC4wMDAFMC4wMDAFMC4wMDAFMC4wMDAFMC4wMDAFMC4wMDAFMC4wMDAFMC4wMDAFMC4wMDAFMC4wMDAFMC4wMDAFMC4wMDAFMC4wMDAFMC4wMDAFMC4wMDAFMC4wMDAFMC4wMDAFMC4wMDAFMC4wMDAFMC4wMDAFMC4wMDAFMC4wMDAFMC4wMDAFMC4wMDAFMC4wMDAFMC4wMDAFMC4wMDAFMC4wMDAFMC4wMDAFMC4wMDAFMC4wMDAFMC4wMDAFMC4wMDAFMC4wMDAFMC4wMDAFMC4wMDAFMC4wMDAFMC4wMDAFMC4wMDAFMC4wMDAFMC4wMDAFMC4wMDAFMC4wMDAFMC4wMDAFMC4wMDAFMC4wMDAFMC4wMDAFMC4wMDAFMC4wMDAFMC4wMDAFMC4wMDAFMC4wMDAFMC4wMDAFMC4wMDAFMC4wMDAFMC4wMDAFMC4wMDAFMC4wMDAFMC4wMDAFMC4wMDAFMC4wMDAFMC4wMDAFMC4wMDAFMC4wMDAFMC4wMDAFMC4wMDAFMTEuOTgFMTEuOTgFMTEuOTgFMTEuOTgFMTEuOTgFMTEuOTgFMTEuOTgFMTEuOTgFMTEuOTgFMTEuOTgFMTEuOTgFMTEuOTgFMTEuOTgFMTEuOTgFMTEuOTgFMTEuOTgFMTEuOTgFMTEuOTgFMTEuOTgFMTEuOTgFMTEuOTgFMTEuOTgFMTEuOTgFMTEuOTgFMTEuOTgFMTEuOTgFMTEuOTgFMTEuOTgFMTEuOTgFMTEuOTgFMTEuOTgFMTEuOTgFMTEuOTgFMTEuOTgFMTEuOTgFMTEuOTgFMTEuOTgFMTEuOTgFMTEuOTgFMTEuOTgFMTEuOTgFMTEuOTgFMTEuOTgFMTEuOTgFMTEuOTgFMTEuOTgFMTEuOTgFMTEuOTgFMTEuOTgFMTEuOTgFMTEuOTgFMTEuOTgFMTEuOTgFMTEuOTgFMTEuOTgFMTEuOTgFMTEuOTgFMTEuOTgFMTEuOTgFMTEuOTgFMTEuOTgFMTEuOTgFMTEuOTgFMTEuOTgFMTEuOTgFMTEuOTgFMTEuOTgFMTEuOTgFMTEuOTgFMTEuOTgFMTEuOTgFMTEuOTgFMTEuOTgFMTEuOTgFMTEuOTgFMTEuOTgFMTEuOTgFMTEuOTgFMTEuOTgFMTEuOTgFMTEuOTgFMTEuOTgFMTEuOTgFMTEuOTgFMTEuOTgFMTEuOTgFMTEuOTgFMTEuOTgFMTEuOTgFMTEuOTgFMTEuOTgFMTEuOTgFMTEuOTgFMTEuOTgFMTEuOTgFMTEuOTgFMTEuOTgFMTEuOTgFMTEuOTgFMTEuOTgFMTEuOTgFMTEuOTgFMTEuOTgFMTEuOTgFMTEuOTgFMTEuOTgFMTEuOTgFMTEuOTgFMTEuOTgFMTEuOTgFMTEuOTgFMTEuOTgFMTEuOTgFMTEuOTgFMTEuOTgFMTEuOTgFMTEuOTgFMTEuOTgFMTEuOTgFMTEuOTgFMTEuOTgFMTEuOTgFMTEuOTgFMTEuOTgFMTEuOTgFMTEuOTgFMTEuOTgFMTEuOTiyQ1dTX0RpWmlfRnJlZS5zZjIsICAwICAgMCAxLDI1NSAgLTEgMSwyNTUgIC0xIDEsMjU1ICAtMSAxLDI1NSAgLTEgMSwyNTUgIC0xIDEsMjU1ICAtMSAxLDI1NSAgLTEgMSwyNTUgIC0xIDEsMTI4ICAtMSAxLDI1NSAgLTEgMSwyNTUgIC0xIDEsMjU1ICAtMSAxLDI1NSAgLTEgMSwyNTUgIC0xIDEsMjU1ICAtMSAxLLJDV1NfRGlaaV9GcmVlLnNmMiwgIDAgICAxIDEsMjU1ICAtMSAxLDI1NSAgLTEgMSwyNTUgIC0xIDEsMjU1ICAtMSAxLDI1NSAgLTEgMSwyNTUgIC0xIDEsMjU1ICAtMSAxLDI1NSAgLTEgMSwxMjggIC0xIDEsMjU1ICAtMSAxLDI1NSAgLTEgMSwyNTUgIC0xIDEsMjU1ICAtMSAxLDI1NSAgLTEgMSwyNTUgIC0xIDEsskNXU19EaVppX0ZyZWUuc2YyLCAgMCAgIDIgMSwyNTUgIC0xIDEsMjU1ICAtMSAxLDI1NSAgLTEgMSwyNTUgIC0xIDEsMjU1ICAtMSAxLDI1NSAgLTEgMSwyNTUgIC0xIDEsMjU1ICAtMSAxLDEyOCAgLTEgMSwyNTUgIC0xIDEsMjU1ICAtMSAxLDI1NSAgLTEgMSwyNTUgIC0xIDEsMjU1ICAtMSAxLDI1NSAgLTEgMSyyQ1dTX0RpWmlfRnJlZS5zZjIsICAwICAgMyAxLDI1NSAgLTEgMSwyNTUgIC0xIDEsMjU1ICAtMSAxLDI1NSAgLTEgMSwyNTUgIC0xIDEsMjU1ICAtMSAxLDI1NSAgLTEgMSwyNTUgIC0xIDEsMTI4ICAtMSAxLDI1NSAgLTEgMSwyNTUgIC0xIDEsMjU1ICAtMSAxLDI1NSAgLTEgMSwyNTUgIC0xIDEsMjU1ICAtMSAxLLJDV1NfRGlaaV9GcmVlLnNmMiwgIDAgICA0IDEsMjU1ICAtMSAxLDI1NSAgLTEgMSwyNTUgIC0xIDEsMjU1ICAtMSAxLDI1NSAgLTEgMSwyNTUgIC0xIDEsMjU1ICAtMSAxLDI1NSAgLTEgMSwxMjggIC0xIDEsMjU1ICAtMSAxLDI1NSAgLTEgMSwyNTUgIC0xIDEsMjU1ICAtMSAxLDI1NSAgLTEgMSwyNTUgIC0xIDEsskNXU19EaVppX0ZyZWUuc2YyLCAgMCAgIDUgMSwyNTUgIC0xIDEsMjU1ICAtMSAxLDI1NSAgLTEgMSwyNTUgIC0xIDEsMjU1ICAtMSAxLDI1NSAgLTEgMSwyNTUgIC0xIDEsMjU1ICAtMSAxLDEyOCAgLTEgMSwyNTUgIC0xIDEsMjU1ICAtMSAxLDI1NSAgLTEgMSwyNTUgIC0xIDEsMjU1ICAtMSAxLDI1NSAgLTEgMSyyQ1dTX0RpWmlfRnJlZS5zZjIsICAwICAgNiAxLDI1NSAgLTEgMSwyNTUgIC0xIDEsMjU1ICAtMSAxLDI1NSAgLTEgMSwyNTUgIC0xIDEsMjU1ICAtMSAxLDI1NSAgLTEgMSwyNTUgIC0xIDEsMTI4ICAtMSAxLDI1NSAgLTEgMSwyNTUgIC0xIDEsMjU1ICAtMSAxLDI1NSAgLTEgMSwyNTUgIC0xIDEsMjU1ICAtMSAxLLJDV1NfRGlaaV9GcmVlLnNmMiwgIDAgICA3IDEsMjU1ICAtMSAxLDI1NSAgLTEgMSwyNTUgIC0xIDEsMjU1ICAtMSAxLDI1NSAgLTEgMSwyNTUgIC0xIDEsMjU1ICAtMSAxLDI1NSAgLTEgMSwxMjggIC0xIDEsMjU1ICAtMSAxLDI1NSAgLTEgMSwyNTUgIC0xIDEsMjU1ICAtMSAxLDI1NSAgLTEgMSwyNTUgIC0xIDEsskNXU19EaVppX0ZyZWUuc2YyLCAgMCAgIDggMSwyNTUgIC0xIDEsMjU1ICAtMSAxLDI1NSAgLTEgMSwyNTUgIC0xIDEsMjU1ICAtMSAxLDI1NSAgLTEgMSwyNTUgIC0xIDEsMjU1ICAtMSAxLDEyOCAgLTEgMSwyNTUgIC0xIDEsMjU1ICAtMSAxLDI1NSAgLTEgMSwyNTUgIC0xIDEsMjU1ICAtMSAxLDI1NSAgLTEgMSyyQ1dTX0RpWmlfRnJlZS5zZjIsICAwICAgOSAxLDI1NSAgLTEgMSwyNTUgIC0xIDEsMjU1ICAtMSAxLDI1NSAgLTEgMSwyNTUgIC0xIDEsMjU1ICAtMSAxLDI1NSAgLTEgMSwyNTUgIC0xIDEsMTI4ICAtMSAxLDI1NSAgLTEgMSwyNTUgIC0xIDEsMjU1ICAtMSAxLDI1NSAgLTEgMSwyNTUgIC0xIDEsMjU1ICAtMSAxLLJDV1NfRGlaaV9GcmVlLnNmMiwgIDAgIDEwIDEsMjU1ICAtMSAxLDI1NSAgLTEgMSwyNTUgIC0xIDEsMjU1ICAtMSAxLDI1NSAgLTEgMSwyNTUgIC0xIDEsMjU1ICAtMSAxLDI1NSAgLTEgMSwxMjggIC0xIDEsMjU1ICAtMSAxLDI1NSAgLTEgMSwyNTUgIC0xIDEsMjU1ICAtMSAxLDI1NSAgLTEgMSwyNTUgIC0xIDEsAAAAAAAAAAAAAAAAAAAAAAAAAAAAAAAAAAAAAAAAAAAAAAAAAAAAAAAAAAAAAAAAAAAAAAAAAAAAAAAAAAAAAAAAAAAAAAAAAAAAAAAAAAAAAAAAAAAAAAAAAAAAAAAAAAAAAAAAAAAAAAAAAAAAAAAAAAAABTEwLjAwBTEwLjAwBTEwLjAwBTEwLjAwBTEwLjAwBTEwLjAwBTEwLjAwBTEwLjAwBTEwLjAwBTEwLjAwBTEwLjAwBTEwLjAwBTEwLjAwBTEwLjAwBTEwLjAwBTEwLjAwBTEwLjAwBTEwLjAwBTEwLjAwBTEwLjAwBTEwLjAwBTEwLjAwBTEwLjAwBTEwLjAwBTEwLjAwBTEwLjAwBTEwLjAwBTEwLjAwBTEwLjAwBTEwLjAwBTEwLjAwBTEwLjAwBTEwLjAwBTEwLjAwBTEwLjAwBTEwLjAwBTEwLjAwBTEwLjAwBTEwLjAwBTEwLjAwBTEwLjAwBTEwLjAwBTEwLjAwBTEwLjAwBTEwLjAwBTEwLjAwBTEwLjAwBTEwLjAwBTEwLjAwBTEwLjAwBTEwLjAwBTEwLjAwBTEwLjAwBTEwLjAwBTEwLjAwBTEwLjAwBTEwLjAwBTEwLjAwBTEwLjAwBTEwLjAwBTEwLjAwBTEwLjAwBTEwLjAwBTEwLjAwBTEwLjAwBTEwLjAwBTEwLjAwBTEwLjAwBTEwLjAwBTEwLjAwBTEwLjAwBTEwLjAwBTEwLjAwBTEwLjAwBTEwLjAwBTEwLjAwBTEwLjAwBTEwLjAwBTEwLjAwBTEwLjAwBTEwLjAwBTEwLjAwBTEwLjAwBTEwLjAwBTEwLjAwBTEwLjAwBTEwLjAwBTEwLjAwBTEwLjAwBTEwLjAwBTEwLjAwBTEwLjAwBTEwLjAwBTEwLjAwBTEwLjAwBTEwLjAwBTEwLjAwBTEwLjAwBTEwLjAwBTEwLjAwBTEwLjAwBTEwLjAwBTEwLjAwBTEwLjAwBTEwLjAwBTEwLjAwBTEwLjAwBTEwLjAwBTEwLjAwBTEwLjAwBTEwLjAwBTEwLjAwBTEwLjAwBTEwLjAwBTEwLjAwBTEwLjAwBTEwLjAwBTEwLjAwBTEwLjAwBTEwLjAwBTEwLjAwBTEwLjAwBTEwLjAwBTEwLjAwBTEwLjAwBTEwLjAwBTEwLjAwBTEwLjAwBTAuMDUwBTAuMDUwBTAuMDUwBTAuMDUwBTAuMDUwBTAuMDUwBTAuMDUwBTAuMDUwBTAuMDUwBTAuMDUwBTAuMDUwBTAuMDUwBTAuMDUwBTAuMDUwBTAuMDUwBTAuMDUwBTAuMDUwBTAuMDUwBTAuMDUwBTAuMDUwBTAuMDUwBTAuMDUwBTAuMDUwBTAuMDUwBTAuMDUwBTAuMDUwBTAuMDUwBTAuMDUwBTAuMDUwBTAuMDUwBTAuMDUwBTAuMDUwBTAuMDUwBTAuMDUwBTAuMDUwBTAuMDUwBTAuMDUwBTAuMDUwBTAuMDUwBTAuMDUwBTAuMDUwBTAuMDUwBTAuMDUwBTAuMDUwBTAuMDUwBTAuMDUwBTAuMDUwBTAuMDUwBTAuMDUwBTAuMDUwBTAuMDUwBTAuMDUwBTAuMDUwBTAuMDUwBTAuMDUwBTAuMDUwBTAuMDUwBTAuMDUwBTAuMDUwBTAuMDUwBTAuMDUwBTAuMDUwBTAuMDUwBTAuMDUwBTAuMDUwBTAuMDUwBTAuMDUwBTAuMDUwBTAuMDUwBTAuMDUwBTAuMDUwBTAuMDUwBTAuMDUwBTAuMDUwBTAuMDUwBTAuMDUwBTAuMDUwBTAuMDUwBTAuMDUwBTAuMDUwBTAuMDUwBTAuMDUwBTAuMDUwBTAuMDUwBTAuMDUwBTAuMDUwBTAuMDUwBTAuMDUwBTAuMDUwBTAuMDUwBTAuMDUwBTAuMDUwBTAuMDUwBTAuMDUwBTAuMDUwBTAuMDUwBTAuMDUwBTAuMDUwBTAuMDUwBTAuMDUwBTAuMDUwBTAuMDUwBTAuMDUwBTAuMDUwBTAuMDUwBTAuMDUwBTAuMDUwBTAuMDUwBTAuMDUwBTAuMDUwBTAuMDUwBTAuMDUwBTAuMDUwBTAuMDUwBTAuMDUwBTAuMDUwBTAuMDUwBTAuMDUwBTAuMDUwBTAuMDUwBTAuMDUwBTAuMDUwBTAuMDUwBTAuMDUwBTAuMDUwBTAuMDUwBTAuMDUwBTAuMDUwBDUuMDQENi42NgQ0LjMxBDUuNTcENi42OAQ1LjkxBDMuNjMEMy40OQQ2LjE0BDUuNTYENS42MgQ1LjAwBDUuMDAENS4wMAQ1LjAwBDUuMDAENS4wMAQ1LjAwBDUuMDAENS4wMAQ1LjAwBDUuMDAENS4wMAQ1LjAwBDUuMDAENS4wMAQ1LjAwBDUuMDAENS4wMAQ1LjAwBDUuMDAENS4wMAQ1LjAwBDUuMDAENS4wMAQ1LjAwBDUuMDAENS4wMAQ1LjAwBDUuMDAENS4wMAQ1LjAwBDUuMDAENS4wMAQ1LjAwBDUuMDAENS4wMAQ1LjAwBDUuMDAENS4wMAQ1LjAwBDUuMDAENS4wMAQ1LjAwBDUuMDAENS4wMAQ1LjAwBDUuMDAENS4wMAQ1LjAwBDUuMDAENS4wMAQ1LjAwBDUuMDAENS4wMAQ1LjAwBDUuMDAENS4wMAQ1LjAwBDUuMDAENS4wMAQ1LjAwBDUuMDAENS4wMAQ1LjAwBDUuMDAENS4wMAQ1LjAwBDUuMDAENS4wMAQ1LjAwBDUuMDAENS4wMAQ1LjAwBDUuMDAENS4wMAQ1LjAwBDUuMDAENS4wMAQ1LjAwBDUuMDAENS4wMAQ1LjAwBDUuMDAENS4wMAQ1LjAwBDUuMDAENS4wMAQ1LjAwBDUuMDAENS4wMAQ1LjAwBDUuMDAENS4wMAQ1LjAwBDUuMDAENS4wMAQ1LjAwBDUuMDAENS4wMAQ1LjAwBDUuMDAENS4wMAQ1LjAwBDUuMDAENS4wMAQ1LjAwBDUuMDAENS4wMAQ1LjAwBDUuMDAENS4wMAQ1LjAwBDUuMDAENS4wMAQ1LjAwBDUuMDAENS4wMAQyLjU0BDIuMzcEMS41MAQxLjA0BTAuMDAwBDIuMjYEMS41MAQxLjUwBDEuNjgEMS4zMAQxLjUwBDEuNTAEMS41MAQxLjUwBDEuNTAEMS41MAQxLjUwBDEuNTAEMS41MAQxLjUwBDEuNTAEMS41MAQxLjUwBDEuNTAEMS41MAQxLjUwBDEuNTAEMS41MAQxLjUwBDEuNTAEMS41MAQxLjUwBDEuNTAEMS41MAQxLjUwBDEuNTAEMS41MAQxLjUwBDEuNTAEMS41MAQxLjUwBDEuNTAEMS41MAQxLjUwBDEuNTAEMS41MAQxLjUwBDEuNTAEMS41MAQxLjUwBDEuNTAEMS41MAQxLjUwBDEuNTAEMS41MAQxLjUwBDEuNTAEMS41MAQxLjUwBDEuNTAEMS41MAQxLjUwBDEuNTAEMS41MAQxLjUwBDEuNTAEMS41MAQxLjUwBDEuNTAEMS41MAQxLjUwBDEuNTAEMS41MAQxLjUwBDEuNTAEMS41MAQxLjUwBDEuNTAEMS41MAQxLjUwBDEuNTAEMS41MAQxLjUwBDEuNTAEMS41MAQxLjUwBDEuNTAEMS41MAQxLjUwBDEuNTAEMS41MAQxLjUwBDEuNTAEMS41MAQxLjUwBDEuNTAEMS41MAQxLjUwBDEuNTAEMS41MAQxLjUwBDEuNTAEMS41MAQxLjUwBDEuNTAEMS41MAQxLjUwBDEuNTAEMS41MAQxLjUwBDEuNTAEMS41MAQxLjUwBDEuNTAEMS41MAQxLjUwBDEuNTAEMS41MAQxLjUwBDEuNTAEMS41MAQxLjUwBDEuNTAEMS41MAQxLjUwBDEuNTAEMS41MAQxLjUwBDUuMjMENC43NwQ2Ljk2BDUuMTEENC44NQQ2LjgwBDYuNzcENC4wMQQ0LjgwBDIuMzQENy4zMwUwLjAwMAUwLjAwMAUwLjAwMAUwLjAwMAUwLjAwMAUwLjAwMAUwLjAwMAUwLjAwMAUwLjAwMAUwLjAwMAUwLjAwMAUwLjAwMAUwLjAwMAUwLjAwMAUwLjAwMAUwLjAwMAUwLjAwMAUwLjAwMAUwLjAwMAUwLjAwMAUwLjAwMAUwLjAwMAUwLjAwMAUwLjAwMAUwLjAwMAUwLjAwMAUwLjAwMAUwLjAwMAUwLjAwMAUwLjAwMAUwLjAwMAUwLjAwMAUwLjAwMAUwLjAwMAUwLjAwMAUwLjAwMAUwLjAwMAUwLjAwMAUwLjAwMAUwLjAwMAUwLjAwMAUwLjAwMAUwLjAwMAUwLjAwMAUwLjAwMAUwLjAwMAUwLjAwMAUwLjAwMAUwLjAwMAUwLjAwMAUwLjAwMAUwLjAwMAUwLjAwMAUwLjAwMAUwLjAwMAUwLjAwMAUwLjAwMAUwLjAwMAUwLjAwMAUwLjAwMAUwLjAwMAUwLjAwMAUwLjAwMAUwLjAwMAUwLjAwMAUwLjAwMAUwLjAwMAUwLjAwMAUwLjAwMAUwLjAwMAUwLjAwMAUwLjAwMAUwLjAwMAUwLjAwMAUwLjAwMAUwLjAwMAUwLjAwMAUwLjAwMAUwLjAwMAUwLjAwMAUwLjAwMAUwLjAwMAUwLjAwMAUwLjAwMAUwLjAwMAUwLjAwMAUwLjAwMAUwLjAwMAUwLjAwMAUwLjAwMAUwLjAwMAUwLjAwMAUwLjAwMAUwLjAwMAUwLjAwMAUwLjAwMAUwLjAwMAUwLjAwMAUwLjAwMAUwLjAwMAUwLjAwMAUwLjAwMAUwLjAwMAUwLjAwMAUwLjAwMAUwLjAwMAUwLjAwMAUwLjAwMAUwLjAwMAUwLjAwMAUwLjAwMAUwLjAwMAUwLjAwMAUwLjAwMAUwLjAwMAUwLjAwMAUwLjAwMAUwLjAwMAUwLjAwMQUwLjAwMQUwLjAwMQUwLjAwMQUwLjAwMQUwLjAwMQUwLjAwMQUwLjAwMQUwLjAwMQUwLjAwMQUwLjAwMQUwLjAwMQUwLjAwMQUwLjAwMQUwLjAwMQUwLjAwMQUwLjAwMQUwLjAwMQUwLjAwMQUwLjAwMQUwLjAwMQUwLjAwMQUwLjAwMQUwLjAwMQUwLjAwMQUwLjAwMQUwLjAwMQUwLjAwMQUwLjAwMQUwLjAwMQUwLjAwMQUwLjAwMQUwLjAwMQUwLjAwMQUwLjAwMQUwLjAwMQUwLjAwMQUwLjAwMQUwLjAwMQUwLjAwMQUwLjAwMQUwLjAwMQUwLjAwMQUwLjAwMQUwLjAwMQUwLjAwMQUwLjAwMQUwLjAwMQUwLjAwMQUwLjAwMQUwLjAwMQUwLjAwMQUwLjAwMQUwLjAwMQUwLjAwMQUwLjAwMQUwLjAwMQUwLjAwMQUwLjAwMQUwLjAwMQUwLjAwMQUwLjAwMQUwLjAwMQUwLjAwMQUwLjAwMQUwLjAwMQUwLjAwMQUwLjAwMQUwLjAwMQUwLjAwMQUwLjAwMQUwLjAwMQUwLjAwMQUwLjAwMQUwLjAwMQUwLjAwMQUwLjAwMQUwLjAwMQUwLjAwMQUwLjAwMQUwLjAwMQUwLjAwMQUwLjAwMQUwLjAwMQUwLjAwMQUwLjAwMQUwLjAwMQUwLjAwMQUwLjAwMQUwLjAwMQUwLjAwMQUwLjAwMQUwLjAwMQUwLjAwMQUwLjAwMQUwLjAwMQUwLjAwMQUwLjAwMQUwLjAwMQUwLjAwMQUwLjAwMQUwLjAwMQUwLjAwMQUwLjAwMQUwLjAwMQUwLjAwMQUwLjAwMQUwLjAwMQUwLjAwMQUwLjAwMQUwLjAwMQUwLjAwMQUwLjAwMQUwLjAwMQUwLjAwMQUwLjAwMQUwLjAwMQUwLjAwMQUwLjAwMQUwLjAwMQUwLjAwMQUwLjAwMQUwLjAwMQUwLjAwMQUwLjAwMQUwLjAwMQUwLjAwMQQ1LjAwBDUuMDAENS4wMAQ1LjAwBDUuMDAENS4wMAQ1LjAwBDUuMDAENS4wMAQ1LjAwBDUuMDAENS4wMAQ1LjAwBDUuMDAENS4wMAQ1LjAwBDUuMDAENS4wMAQ1LjAwBDUuMDAENS4wMAQ1LjAwBDUuMDAENS4wMAQ1LjAwBDUuMDAENS4wMAQ1LjAwBDUuMDAENS4wMAQ1LjAwBDUuMDAENS4wMAQ1LjAwBDUuMDAENS4wMAQ1LjAwBDUuMDAENS4wMAQ1LjAwBDUuMDAENS4wMAQ1LjAwBDUuMDAENS4wMAQ1LjAwBDUuMDAENS4wMAQ1LjAwBDUuMDAENS4wMAQ1LjAwBDUuMDAENS4wMAQ1LjAwBDUuMDAENS4wMAQ1LjAwBDUuMDAENS4wMAQ1LjAwBDUuMDAENS4wMAQ1LjAwBDUuMDAENS4wMAQ1LjAwBDUuMDAENS4wMAQ1LjAwBDUuMDAENS4wMAQ1LjAwBDUuMDAENS4wMAQ1LjAwBDUuMDAENS4wMAQ1LjAwBDUuMDAENS4wMAQ1LjAwBDUuMDAENS4wMAQ1LjAwBDUuMDAENS4wMAQ1LjAwBDUuMDAENS4wMAQ1LjAwBDUuMDAENS4wMAQ1LjAwBDUuMDAENS4wMAQ1LjAwBDUuMDAENS4wMAQ1LjAwBDUuMDAENS4wMAQ1LjAwBDUuMDAENS4wMAQ1LjAwBDUuMDAENS4wMAQ1LjAwBDUuMDAENS4wMAQ1LjAwBDUuMDAENS4wMAQ1LjAwBDUuMDAENS4wMAQ1LjAwBDUuMDAENS4wMAQ1LjAwBDUuMDAENS4wMAQ1LjAwBDUuMDAENS4wMAQ1LjAwBDUuMDAEMi45MAQyLjkwBDIuOTAEMi45MAQyLjkwBDIuOTAEMi45MAQyLjkwBDIuOTAEMi45MAQyLjkwBDIuOTAEMi45MAQyLjkwBDIuOTAEMi45MAQyLjkwBDIuOTAEMi45MAQyLjkwBDIuOTAEMi45MAQyLjkwBDIuOTAEMi45MAQyLjkwBDIuOTAEMi45MAQyLjkwBDIuOTAEMi45MAQyLjkwBDIuOTAEMi45MAQyLjkwBDIuOTAEMi45MAQyLjkwBDIuOTAEMi45MAQyLjkwBDIuOTAEMi45MAQyLjkwBDIuOTAEMi45MAQyLjkwBDIuOTAEMi45MAQyLjkwBDIuOTAEMi45MAQyLjkwBDIuOTAEMi45MAQyLjkwBDIuOTAEMi45MAQyLjkwBDIuOTAEMi45MAQyLjkwBDIuOTAEMi45MAQyLjkwBDIuOTAEMi45MAQyLjkwBDIuOTAEMi45MAQyLjkwBDIuOTAEMi45MAQyLjkwBDIuOTAEMi45MAQyLjkwBDIuOTAEMi45MAQyLjkwBDIuOTAEMi45MAQyLjkwBDIuOTAEMi45MAQyLjkwBDIuOTAEMi45MAQyLjkwBDIuOTAEMi45MAQyLjkwBDIuOTAEMi45MAQyLjkwBDIuOTAEMi45MAQyLjkwBDIuOTAEMi45MAQyLjkwBDIuOTAEMi45MAQyLjkwBDIuOTAEMi45MAQyLjkwBDIuOTAEMi45MAQyLjkwBDIuOTAEMi45MAQyLjkwBDIuOTAEMi45MAQyLjkwBDIuOTAEMi45MAQyLjkwBDIuOTAEMi45MAQyLjkwBDIuOTAEMi45MAQyLjkwBDIuOTAEMi45MAQyLjkwBTAuMDAwBTAuMDAwBTAuMDAwBTAuMDAwBTAuMDAwBTAuMDAwBTAuMDAwBTAuMDAwBTAuMDAwBTAuMDAwBTAuMDAwBTAuMDAwBTAuMDAwBTAuMDAwBTAuMDAwBTAuMDAwBTAuMDAwBTAuMDAwBTAuMDAwBTAuMDAwBTAuMDAwBTAuMDAwBTAuMDAwBTAuMDAwBTAuMDAwBTAuMDAwBTAuMDAwBTAuMDAwBTAuMDAwBTAuMDAwBTAuMDAwBTAuMDAwBTAuMDAwBTAuMDAwBTAuMDAwBTAuMDAwBTAuMDAwBTAuMDAwBTAuMDAwBTAuMDAwBTAuMDAwBTAuMDAwBTAuMDAwBTAuMDAwBTAuMDAwBTAuMDAwBTAuMDAwBTAuMDAwBTAuMDAwBTAuMDAwBTAuMDAwBTAuMDAwBTAuMDAwBTAuMDAwBTAuMDAwBTAuMDAwBTAuMDAwBTAuMDAwBTAuMDAwBTAuMDAwBTAuMDAwBTAuMDAwBTAuMDAwBTAuMDAwBTAuMDAwBTAuMDAwBTAuMDAwBTAuMDAwBTAuMDAwBTAuMDAwBTAuMDAwBTAuMDAwBTAuMDAwBTAuMDAwBTAuMDAwBTAuMDAwBTAuMDAwBTAuMDAwBTAuMDAwBTAuMDAwBTAuMDAwBTAuMDAwBTAuMDAwBTAuMDAwBTAuMDAwBTAuMDAwBTAuMDAwBTAuMDAwBTAuMDAwBTAuMDAwBTAuMDAwBTAuMDAwBTAuMDAwBTAuMDAwBTAuMDAwBTAuMDAwBTAuMDAwBTAuMDAwBTAuMDAwBTAuMDAwBTAuMDAwBTAuMDAwBTAuMDAwBTAuMDAwBTAuMDAwBTAuMDAwBTAuMDAwBTAuMDAwBTAuMDAwBTAuMDAwBTAuMDAwBTAuMDAwBTAuMDAwBTAuMDAwBTAuMDAwBTAuMDAwBTAuMDAwBTAuMDAwBTAuMDAwBTAuMDAwBTAuMDAwBTAuMDAwBTAuMDAwBTAuMDAwBTAuMDAwBTAuMDAwBTAuMDAwBTAuMDAwgAAAAM3MjMAAAKDAAACgwAAAoMAAAKDAAACgwAAAoMAAAKDAAACgwAAAoMAAAKDAAACgwAAAoMAAAKDAAACgwAAAoMAAAKDAAACgwAAAoMAAAKDAAACgwAAAoMAAAKDAAACgwAAAoMAAAKDAAACgwAAAoMAAAKDAAACgwAAAoMAAAKDAAACgwAAAoMAAAKDAAACgwAAAoMAAAKDAAACgwAAAoMAAAKDAAACgwAAAoMAAAKDAAACgwAAAoMAAAKDAAACgwAAAoMAAAKDAAACgwAAAoMAAAKDAAACgwAAAoMAAAKDAAACgwAAAoMAAAKDAAACgwAAAoMAAAKDAAACgwAAAoMAAAKDAAACgwAAAoMAAAKDAAACgwAAAoMAAAKDAAACgwAAAoMAAAKDAAACgwAAAoMAAAKDAAACgwAAAoMAAAKDAAACgwAAAoMAAAKDAAACgwAAAoMAAAKDAAACgwAAAoMAAAKDAAACgwAAAoMAAAKDAAACgwAAAoMAAAKDAAACgwAAAoMAAAKDAAACgwAAAoMAAAKDAAACgwAAAoMAAAKDAAACgwAAAoMAAAKDAAACgwAAAoMAAAKDAAACgwAAAoMAAAKDAAACgwAAAoMAAAKDAAACgwAAAoMAAAKDAAACgwAAAoMAAAKDAAACgwAAAoMAAAKDAAACgwAAAoMAAAKDAgAAAAAAAAABoZRM6aGUTOmhlEzpoZRM6aGUTOmhlEzpoZRM6aGUTOmhlEzpoZRM6aGUTOmhlEzpoZRM6aGUTOmhlEzpoZRM6aGUTOmhlEzpoZRM6aGUTOmhlEzpoZRM6aGUTOmhlEzpoZRM6aGUTOmhlEzpoZRM6aGUTOmhlEzpoZRM6aGUTOmhlEzpoZRM6aGUTOmhlEzpoZRM6aGUTOmhlEzpoZRM6aGUTOmhlEzpoZRM6aGUTOmhlEzpoZRM6aGUTOmhlEzpoZRM6aGUTOmhlEzpoZRM6aGUTOmhlEzpoZRM6aGUTOmhlEzpoZRM6aGUTOmhlEzpoZRM6aGUTOmhlEzpoZRM6aGUTOmhlEzpoZRM6aGUTOmhlEzpoZRM6aGUTOmhlEzpoZRM6aGUTOmhlEzpoZRM6aGUTOmhlEzpoZRM6aGUTOmhlEzpoZRM6aGUTOmhlEzpoZRM6aGUTOmhlEzpoZRM6aGUTOmhlEzpoZRM6aGUTOmhlEzpoZRM6aGUTOmhlEzpoZRM6aGUTOmhlEzpoZRM6aGUTOmhlEzpoZRM6aGUTOmhlEzpoZRM6aGUTOmhlEzpoZRM6aGUTOmhlEzpoZRM6aGUTOmhlEzpoZRM6aGUTOmhlEzpoZRM6aGUTOmhlEzpoZRM6aGUTOmhlEzpoZRM6aGUTOmhlEzpoZRM6gAAAAFyPIkD8/78//P+/P/z/vz/8/78//P+/P/z/vz/8/78//P+/P/z/vz/8/78//P+/P/z/vz/8/78//P+/P/z/vz/8/78//P+/P/z/vz/8/78//P+/P/z/vz/8/78//P+/P/z/vz/8/78//P+/P/z/vz/8/78//P+/P/z/vz/8/78//P+/P/z/vz/8/78//P+/P/z/vz/8/78//P+/P/z/vz/8/78//P+/P/z/vz/8/78//P+/P/z/vz/8/78//P+/P/z/vz/8/78//P+/P/z/vz/8/78//P+/P/z/vz/8/78//P+/P/z/vz/8/78//P+/P/z/vz/8/78//P+/P/z/vz/8/78//P+/P/z/vz/8/78//P+/P/z/vz/8/78//P+/P/z/vz/8/78//P+/P/z/vz/8/78//P+/P/z/vz/8/78//P+/P/z/vz/8/78//P+/P/z/vz/8/78//P+/P/z/vz/8/78//P+/P/z/vz/8/78//P+/P/z/vz/8/78//P+/P/z/vz/8/78//P+/P/z/vz/8/78//P+/P/z/vz/8/78//P+/P/z/vz/8/78//P+/P/z/vz/8/78//P+/P/z/vz/8/78//P+/P/z/vz/8/78//P+/P/z/vz/8/78//P+/P/z/vz/8/78//P+/P/z/vz/8/78//P+/P/z/vz/8/78/gAAAAAAAAAAAAAAAAAAAAAAAAAAAAAAAAAAAAAAAAAAAAAAAAAAAAAAAAAAAAAAAAAAAAAAAAAAAAAAAAAAAAAAAAAAAAAAAAAAAAAAAAAAAAAAAAAAAAAAAAAAAAAAAAAAAAAAAAAAAAAAAAAAAAAAAAAAAAAAAAAAAAAAAAAAAAAAAAAAAAAAAAAAAAAAAAAAAAAAAAAAAAAAAAAAAAAAAAAAAAAAAAAAAAAAAAAAAAAAAAAAAAAAAAAAAAAAAAAAAAAAAAAAAAAAAAAAAAAAAAAAAAAAAAAAAAAAAAAAAAAAAAAAAAAAAAAAAAAAAAAAAAAAAAAAAAAAAAAAAAAAAAACAAAAAzMxMPWDDTD1gw0w9YMNMPWDDTD1gw0w9YMNMPWDDTD1gw0w9YMNMPWDDTD1gw0w9YMNMPWDDTD1gw0w9YMNMPWDDTD1gw0w9YMNMPWDDTD1gw0w9YMNMPWDDTD1gw0w9YMNMPWDDTD1gw0w9YMNMPWDDTD1gw0w9YMNMPWDDTD1gw0w9YMNMPWDDTD1gw0w9YMNMPWDDTD1gw0w9YMNMPWDDTD1gw0w9YMNMPWDDTD1gw0w9YMNMPWDDTD1gw0w9YMNMPWDDTD1gw0w9YMNMPWDDTD1gw0w9YMNMPWDDTD1gw0w9YMNMPWDDTD1gw0w9YMNMPWDDTD1gw0w9YMNMPWDDTD1gw0w9YMNMPWDDTD1gw0w9YMNMPWDDTD1gw0w9YMNMPWDDTD1gw0w9YMNMPWDDTD1gw0w9YMNMPWDDTD1gw0w9YMNMPWDDTD1gw0w9YMNMPWDDTD1gw0w9YMNMPWDDTD1gw0w9YMNMPWDDTD1gw0w9YMNMPWDDTD1gw0w9YMNMPWDDTD1gw0w9YMNMPWDDTD1gw0w9YMNMPWDDTD1gw0w9YMNMPWDDTD1gw0w9YMNMPWDDTD1gw0w9YMNMPWDDTD1gw0w9YMNMPWDDTD1gw0w9YMNMPWDDTD1gw0w9YMNMPWDDTD1gw0w9YMNMPWDDTD1gw0w9YMNMPWDDTD2AAAAAAAAgQQAAIEEAACBBAAAgQQAAIEEAACBBAAAgQQAAIEEAACBBAAAgQQAAIEEAACBBAAAgQQAAIEEAACBBAAAgQQAAIEEAACBBAAAgQQAAIEEAACBBAAAgQQAAIEEAACBBAAAgQQAAIEEAACBBAAAgQQAAIEEAACBBAAAgQQAAIEEAACBBAAAgQQAAIEEAACBBAAAgQQAAIEEAACBBAAAgQQAAIEEAACBBAAAgQQAAIEEAACBBAAAgQQAAIEEAACBBAAAgQQAAIEEAACBBAAAgQQAAIEEAACBBAAAgQQAAIEEAACBBAAAgQQAAIEEAACBBAAAgQQAAIEEAACBBAAAgQQAAIEEAACBBAAAgQQAAIEEAACBBAAAgQQAAIEEAACBBAAAgQQAAIEEAACBBAAAgQQAAIEEAACBBAAAgQQAAIEEAACBBAAAgQQAAIEEAACBBAAAgQQAAIEEAACBBAAAgQQAAIEEAACBBAAAgQQAAIEEAACBBAAAgQQAAIEEAACBBAAAgQQAAIEEAACBBAAAgQQAAIEEAACBBAAAgQQAAIEEAACBBAAAgQQAAIEEAACBBAAAgQQAAIEEAACBBAAAgQQAAIEEAACBBAAAgQQAAIEEAACBBAAAgQQAAIEEAACBBAAAgQQAAIEEAACBBAAAgQQAAIEEAACBBAAAgQQAAIEGAAAAAbxKDujnBL0E5wS9BOcEvQTnBL0E5wS9BOcEvQTnBL0E5wS9BOcEvQTnBL0E5wS9BOcEvQTnBL0E5wS9BOcEvQTnBL0E5wS9BOcEvQTnBL0E5wS9BOcEvQTnBL0E5wS9BOcEvQTnBL0E5wS9BOcEvQTnBL0E5wS9BOcEvQTnBL0E5wS9BOcEvQTnBL0E5wS9BOcEvQTnBL0E5wS9BOcEvQTnBL0E5wS9BOcEvQTnBL0E5wS9BOcEvQTnBL0E5wS9BOcEvQTnBL0E5wS9BOcEvQTnBL0E5wS9BOcEvQTnBL0E5wS9BOcEvQTnBL0E5wS9BOcEvQTnBL0E5wS9BOcEvQTnBL0E5wS9BOcEvQTnBL0E5wS9BOcEvQTnBL0E5wS9BOcEvQTnBL0E5wS9BOcEvQTnBL0E5wS9BOcEvQTnBL0E5wS9BOcEvQTnBL0E5wS9BOcEvQTnBL0E5wS9BOcEvQTnBL0E5wS9BOcEvQTnBL0E5wS9BOcEvQTnBL0E5wS9BOcEvQTnBL0E5wS9BOcEvQTnBL0E5wS9BOcEvQTnBL0E5wS9BOcEvQTnBL0E5wS9BOcEvQTnBL0E5wS9BOcEvQTnBL0E5wS9BOcEvQTnBL0E5wS9BOcEvQTnBL0E5wS9BOcEvQTnBL0E5wS9BOcEvQTnBL0E5wS9BOcEvQTnBL0E=" guivisible="1"/>
          </instrument>
          <eldata ftype="0" fwet="0" fres="0.5" fcut="14000">
            <elvol lspd="0.1" pdel="0" hold="0.5" lspd_syncmode="0" userwavefile="" rel="0.1" latt="0" lspd_denominator="4" dec="0.5" lpdel="0" lamt="0" ctlenvamt="0" att="0" lspd_numerator="4" amt="0" lshp="0" sustain="0.5" x100="0"/>
            <elcut lspd="0.1" pdel="0" hold="0.5" lspd_syncmode="0" userwavefile="" rel="0.1" latt="0" lspd_denominator="4" dec="0.5" lpdel="0" lamt="0" ctlenvamt="0" att="0" lspd_numerator="4" amt="0" lshp="0" sustain="0.5" x100="0"/>
            <elres lspd="0.1" pdel="0" hold="0.5" lspd_syncmode="0" userwavefile="" rel="0.1" latt="0" lspd_denominator="4" dec="0.5" lpdel="0" lamt="0" ctlenvamt="0" att="0" lspd_numerator="4" amt="0" lshp="0" sustain="0.5" x100="0"/>
          </eldata>
          <chordcreator chordrange="1" chord="0" chord-enabled="0"/>
          <arpeggiator arpmiss="0" arpmode="0" arptime_denominator="4" arpdir="0" arp="0" arpskip="0" arptime="200" arptime_numerator="4" arpgate="100" arpcycle="0" arp-enabled="0" arptime_syncmode="0" arprange="1"/>
          <midiport outputcontroller="0" fixedoutputvelocity="-1" basevelocity="63" fixedoutputnote="-1" readable="0" writable="0" outputchannel="1" fixedinputvelocity="-1" inputchannel="0" inputcontroller="0" outputprogram="1"/>
          <fxchain numofeffects="0" enabled="0"/>
        </instrumenttrack>
        <pattern muted="0" steps="16" type="1" name="DSK AsianZ DreamZ" pos="2688">
          <note len="12" key="21" vol="100" pos="0" pan="95"/>
          <note len="12" key="19" vol="100" pos="12" pan="95"/>
          <note len="12" key="21" vol="100" pos="24" pan="95"/>
          <note len="12" key="24" vol="100" pos="36" pan="95"/>
          <note len="12" key="24" vol="100" pos="60" pan="95"/>
          <note len="12" key="24" vol="100" pos="84" pan="95"/>
          <note len="12" key="23" vol="100" pos="96" pan="95"/>
          <note len="12" key="23" vol="100" pos="120" pan="95"/>
          <note len="12" key="21" vol="100" pos="132" pan="95"/>
          <note len="12" key="23" vol="100" pos="144" pan="95"/>
          <note len="12" key="21" vol="100" pos="156" pan="95"/>
          <note len="12" key="19" vol="100" pos="168" pan="95"/>
          <note len="12" key="16" vol="100" pos="180" pan="95"/>
          <note len="12" key="21" vol="100" pos="192" pan="95"/>
          <note len="12" key="19" vol="100" pos="204" pan="95"/>
          <note len="12" key="21" vol="100" pos="216" pan="95"/>
          <note len="12" key="24" vol="100" pos="228" pan="95"/>
          <note len="12" key="24" vol="100" pos="252" pan="95"/>
          <note len="12" key="24" vol="100" pos="276" pan="95"/>
          <note len="12" key="23" vol="100" pos="288" pan="95"/>
          <note len="12" key="23" vol="100" pos="312" pan="95"/>
          <note len="12" key="21" vol="100" pos="324" pan="95"/>
          <note len="12" key="23" vol="100" pos="336" pan="95"/>
          <note len="12" key="24" vol="100" pos="348" pan="95"/>
          <note len="12" key="26" vol="100" pos="360" pan="95"/>
          <note len="12" key="28" vol="100" pos="372" pan="95"/>
        </pattern>
        <pattern muted="0" steps="16" type="1" name="DSK AsianZ DreamZ" pos="3072">
          <note len="12" key="21" vol="100" pos="0" pan="95"/>
          <note len="12" key="19" vol="100" pos="12" pan="95"/>
          <note len="12" key="21" vol="100" pos="24" pan="95"/>
          <note len="12" key="24" vol="100" pos="36" pan="95"/>
          <note len="12" key="24" vol="100" pos="60" pan="95"/>
          <note len="12" key="24" vol="100" pos="84" pan="95"/>
          <note len="12" key="23" vol="100" pos="96" pan="95"/>
          <note len="12" key="23" vol="100" pos="120" pan="95"/>
          <note len="12" key="21" vol="100" pos="132" pan="95"/>
          <note len="12" key="23" vol="100" pos="144" pan="95"/>
          <note len="12" key="21" vol="100" pos="156" pan="95"/>
          <note len="12" key="19" vol="100" pos="168" pan="95"/>
          <note len="12" key="16" vol="100" pos="180" pan="95"/>
          <note len="12" key="21" vol="100" pos="192" pan="95"/>
          <note len="12" key="19" vol="100" pos="204" pan="95"/>
          <note len="12" key="21" vol="100" pos="216" pan="95"/>
          <note len="12" key="24" vol="100" pos="228" pan="95"/>
          <note len="12" key="24" vol="100" pos="252" pan="95"/>
          <note len="12" key="24" vol="100" pos="276" pan="95"/>
          <note len="12" key="23" vol="100" pos="288" pan="95"/>
          <note len="12" key="23" vol="100" pos="312" pan="95"/>
          <note len="12" key="21" vol="100" pos="324" pan="95"/>
          <note len="12" key="23" vol="100" pos="336" pan="95"/>
          <note len="12" key="24" vol="100" pos="348" pan="95"/>
          <note len="12" key="26" vol="100" pos="360" pan="95"/>
          <note len="12" key="28" vol="100" pos="372" pan="95"/>
        </pattern>
        <pattern muted="0" steps="16" type="1" name="Greippi - Krem Kaakkuja" pos="3456">
          <note len="12" key="8" vol="100" pos="0" pan="0"/>
          <note len="12" key="10" vol="100" pos="12" pan="0"/>
          <note len="12" key="10" vol="100" pos="36" pan="0"/>
          <note len="12" key="13" vol="100" pos="48" pan="0"/>
          <note len="12" key="13" vol="100" pos="72" pan="0"/>
          <note len="12" key="16" vol="100" pos="84" pan="0"/>
          <note len="12" key="16" vol="100" pos="108" pan="0"/>
          <note len="12" key="20" vol="100" pos="120" pan="0"/>
          <note len="12" key="13" vol="100" pos="144" pan="0"/>
          <note len="12" key="11" vol="100" pos="168" pan="0"/>
          <note len="12" key="8" vol="100" pos="192" pan="0"/>
          <note len="12" key="10" vol="100" pos="204" pan="0"/>
          <note len="12" key="10" vol="100" pos="228" pan="0"/>
          <note len="12" key="13" vol="100" pos="240" pan="0"/>
          <note len="12" key="13" vol="100" pos="264" pan="0"/>
          <note len="12" key="16" vol="100" pos="276" pan="0"/>
          <note len="12" key="16" vol="100" pos="300" pan="0"/>
          <note len="12" key="18" vol="100" pos="312" pan="0"/>
          <note len="12" key="13" vol="100" pos="336" pan="0"/>
          <note len="12" key="11" vol="100" pos="360" pan="0"/>
        </pattern>
        <pattern muted="0" steps="16" type="1" name="+8" pos="3840">
          <note len="12" key="20" vol="100" pos="0" pan="0"/>
          <note len="12" key="22" vol="100" pos="12" pan="0"/>
          <note len="12" key="22" vol="100" pos="36" pan="0"/>
          <note len="12" key="25" vol="100" pos="48" pan="0"/>
          <note len="12" key="25" vol="100" pos="72" pan="0"/>
          <note len="12" key="28" vol="100" pos="84" pan="0"/>
          <note len="12" key="28" vol="100" pos="108" pan="0"/>
          <note len="12" key="32" vol="100" pos="120" pan="0"/>
          <note len="12" key="25" vol="100" pos="144" pan="0"/>
          <note len="12" key="23" vol="100" pos="168" pan="0"/>
          <note len="12" key="20" vol="100" pos="192" pan="0"/>
          <note len="12" key="22" vol="100" pos="204" pan="0"/>
          <note len="12" key="22" vol="100" pos="228" pan="0"/>
          <note len="12" key="25" vol="100" pos="240" pan="0"/>
          <note len="12" key="25" vol="100" pos="264" pan="0"/>
          <note len="12" key="28" vol="100" pos="276" pan="0"/>
          <note len="12" key="28" vol="100" pos="300" pan="0"/>
          <note len="12" key="30" vol="100" pos="312" pan="0"/>
          <note len="12" key="25" vol="100" pos="336" pan="0"/>
          <note len="12" key="23" vol="100" pos="360" pan="0"/>
        </pattern>
        <pattern muted="0" steps="16" type="1" name="origin" pos="4224">
          <note len="12" key="8" vol="100" pos="0" pan="0"/>
          <note len="12" key="10" vol="100" pos="12" pan="0"/>
          <note len="12" key="10" vol="100" pos="36" pan="0"/>
          <note len="12" key="13" vol="100" pos="48" pan="0"/>
          <note len="12" key="13" vol="100" pos="72" pan="0"/>
          <note len="12" key="16" vol="100" pos="84" pan="0"/>
          <note len="12" key="16" vol="100" pos="108" pan="0"/>
          <note len="12" key="20" vol="100" pos="120" pan="0"/>
          <note len="12" key="13" vol="100" pos="144" pan="0"/>
          <note len="12" key="11" vol="100" pos="168" pan="0"/>
          <note len="12" key="8" vol="100" pos="192" pan="0"/>
          <note len="12" key="10" vol="100" pos="204" pan="0"/>
          <note len="12" key="10" vol="100" pos="228" pan="0"/>
          <note len="12" key="13" vol="100" pos="240" pan="0"/>
          <note len="12" key="13" vol="100" pos="264" pan="0"/>
          <note len="12" key="16" vol="100" pos="276" pan="0"/>
          <note len="12" key="16" vol="100" pos="300" pan="0"/>
          <note len="12" key="18" vol="100" pos="312" pan="0"/>
          <note len="12" key="13" vol="100" pos="336" pan="0"/>
          <note len="12" key="11" vol="100" pos="360" pan="0"/>
        </pattern>
        <pattern muted="0" steps="16" type="1" name="+8" pos="4608">
          <note len="12" key="20" vol="100" pos="0" pan="0"/>
          <note len="12" key="22" vol="100" pos="12" pan="0"/>
          <note len="12" key="22" vol="100" pos="36" pan="0"/>
          <note len="12" key="25" vol="100" pos="48" pan="0"/>
          <note len="12" key="25" vol="100" pos="72" pan="0"/>
          <note len="12" key="28" vol="100" pos="84" pan="0"/>
          <note len="12" key="28" vol="100" pos="108" pan="0"/>
          <note len="12" key="32" vol="100" pos="120" pan="0"/>
          <note len="12" key="25" vol="100" pos="144" pan="0"/>
          <note len="12" key="23" vol="100" pos="168" pan="0"/>
          <note len="12" key="20" vol="100" pos="192" pan="0"/>
          <note len="12" key="22" vol="100" pos="204" pan="0"/>
          <note len="12" key="22" vol="100" pos="228" pan="0"/>
          <note len="12" key="25" vol="100" pos="240" pan="0"/>
          <note len="12" key="25" vol="100" pos="264" pan="0"/>
          <note len="12" key="28" vol="100" pos="276" pan="0"/>
          <note len="12" key="28" vol="100" pos="300" pan="0"/>
          <note len="12" key="30" vol="100" pos="312" pan="0"/>
          <note len="12" key="25" vol="100" pos="336" pan="0"/>
          <note len="12" key="23" vol="100" pos="360" pan="0"/>
        </pattern>
        <pattern muted="0" steps="16" type="1" name="origin" pos="4992">
          <note len="12" key="8" vol="100" pos="0" pan="0"/>
          <note len="12" key="10" vol="100" pos="12" pan="0"/>
          <note len="12" key="10" vol="100" pos="36" pan="0"/>
          <note len="12" key="13" vol="100" pos="48" pan="0"/>
          <note len="12" key="13" vol="100" pos="72" pan="0"/>
          <note len="12" key="16" vol="100" pos="84" pan="0"/>
          <note len="12" key="16" vol="100" pos="108" pan="0"/>
          <note len="12" key="20" vol="100" pos="120" pan="0"/>
          <note len="12" key="13" vol="100" pos="144" pan="0"/>
          <note len="12" key="11" vol="100" pos="168" pan="0"/>
          <note len="12" key="8" vol="100" pos="192" pan="0"/>
          <note len="12" key="10" vol="100" pos="204" pan="0"/>
          <note len="12" key="10" vol="100" pos="228" pan="0"/>
          <note len="12" key="13" vol="100" pos="240" pan="0"/>
          <note len="12" key="13" vol="100" pos="264" pan="0"/>
          <note len="12" key="16" vol="100" pos="276" pan="0"/>
          <note len="12" key="16" vol="100" pos="300" pan="0"/>
          <note len="12" key="18" vol="100" pos="312" pan="0"/>
          <note len="12" key="13" vol="100" pos="336" pan="0"/>
          <note len="12" key="11" vol="100" pos="360" pan="0"/>
        </pattern>
        <pattern muted="0" steps="16" type="1" name="+8" pos="5376">
          <note len="12" key="20" vol="100" pos="0" pan="0"/>
          <note len="12" key="22" vol="100" pos="12" pan="0"/>
          <note len="12" key="22" vol="100" pos="36" pan="0"/>
          <note len="12" key="25" vol="100" pos="48" pan="0"/>
          <note len="12" key="25" vol="100" pos="72" pan="0"/>
          <note len="12" key="28" vol="100" pos="84" pan="0"/>
          <note len="12" key="28" vol="100" pos="108" pan="0"/>
          <note len="12" key="32" vol="100" pos="120" pan="0"/>
          <note len="12" key="25" vol="100" pos="144" pan="0"/>
          <note len="12" key="23" vol="100" pos="168" pan="0"/>
          <note len="12" key="20" vol="100" pos="192" pan="0"/>
          <note len="12" key="22" vol="100" pos="204" pan="0"/>
          <note len="12" key="22" vol="100" pos="228" pan="0"/>
          <note len="12" key="25" vol="100" pos="240" pan="0"/>
          <note len="12" key="25" vol="100" pos="264" pan="0"/>
          <note len="12" key="28" vol="100" pos="276" pan="0"/>
          <note len="12" key="28" vol="100" pos="300" pan="0"/>
          <note len="12" key="30" vol="100" pos="312" pan="0"/>
          <note len="12" key="25" vol="100" pos="336" pan="0"/>
          <note len="12" key="23" vol="100" pos="360" pan="0"/>
        </pattern>
        <pattern muted="0" steps="16" type="1" name="+8" pos="6144">
          <note len="12" key="20" vol="100" pos="0" pan="0"/>
          <note len="12" key="22" vol="100" pos="12" pan="0"/>
          <note len="12" key="22" vol="100" pos="36" pan="0"/>
          <note len="12" key="25" vol="100" pos="48" pan="0"/>
          <note len="12" key="25" vol="100" pos="72" pan="0"/>
          <note len="12" key="28" vol="100" pos="84" pan="0"/>
          <note len="12" key="28" vol="100" pos="108" pan="0"/>
          <note len="12" key="32" vol="100" pos="120" pan="0"/>
          <note len="12" key="25" vol="100" pos="144" pan="0"/>
          <note len="12" key="23" vol="100" pos="168" pan="0"/>
          <note len="12" key="20" vol="100" pos="192" pan="0"/>
          <note len="12" key="22" vol="100" pos="204" pan="0"/>
          <note len="12" key="22" vol="100" pos="228" pan="0"/>
          <note len="12" key="25" vol="100" pos="240" pan="0"/>
          <note len="12" key="25" vol="100" pos="264" pan="0"/>
          <note len="12" key="28" vol="100" pos="276" pan="0"/>
          <note len="12" key="28" vol="100" pos="300" pan="0"/>
          <note len="12" key="30" vol="100" pos="312" pan="0"/>
          <note len="12" key="25" vol="100" pos="336" pan="0"/>
          <note len="12" key="23" vol="100" pos="360" pan="0"/>
        </pattern>
        <pattern muted="0" steps="16" type="1" name="+8" pos="6912">
          <note len="12" key="20" vol="100" pos="0" pan="0"/>
          <note len="12" key="22" vol="100" pos="12" pan="0"/>
          <note len="12" key="22" vol="100" pos="36" pan="0"/>
          <note len="12" key="25" vol="100" pos="48" pan="0"/>
          <note len="12" key="25" vol="100" pos="72" pan="0"/>
          <note len="12" key="28" vol="100" pos="84" pan="0"/>
          <note len="12" key="28" vol="100" pos="108" pan="0"/>
          <note len="12" key="32" vol="100" pos="120" pan="0"/>
          <note len="12" key="25" vol="100" pos="144" pan="0"/>
          <note len="12" key="23" vol="100" pos="168" pan="0"/>
          <note len="12" key="20" vol="100" pos="192" pan="0"/>
          <note len="12" key="22" vol="100" pos="204" pan="0"/>
          <note len="12" key="22" vol="100" pos="228" pan="0"/>
          <note len="12" key="25" vol="100" pos="240" pan="0"/>
          <note len="12" key="25" vol="100" pos="264" pan="0"/>
          <note len="12" key="28" vol="100" pos="276" pan="0"/>
          <note len="12" key="28" vol="100" pos="300" pan="0"/>
          <note len="12" key="30" vol="100" pos="312" pan="0"/>
          <note len="12" key="25" vol="100" pos="336" pan="0"/>
          <note len="12" key="23" vol="100" pos="360" pan="0"/>
        </pattern>
        <pattern muted="0" steps="16" type="1" name="origin" pos="5760">
          <note len="12" key="8" vol="100" pos="0" pan="0"/>
          <note len="12" key="10" vol="100" pos="12" pan="0"/>
          <note len="12" key="10" vol="100" pos="36" pan="0"/>
          <note len="12" key="13" vol="100" pos="48" pan="0"/>
          <note len="12" key="13" vol="100" pos="72" pan="0"/>
          <note len="12" key="16" vol="100" pos="84" pan="0"/>
          <note len="12" key="16" vol="100" pos="108" pan="0"/>
          <note len="12" key="20" vol="100" pos="120" pan="0"/>
          <note len="12" key="13" vol="100" pos="144" pan="0"/>
          <note len="12" key="11" vol="100" pos="168" pan="0"/>
          <note len="12" key="8" vol="100" pos="192" pan="0"/>
          <note len="12" key="10" vol="100" pos="204" pan="0"/>
          <note len="12" key="10" vol="100" pos="228" pan="0"/>
          <note len="12" key="13" vol="100" pos="240" pan="0"/>
          <note len="12" key="13" vol="100" pos="264" pan="0"/>
          <note len="12" key="16" vol="100" pos="276" pan="0"/>
          <note len="12" key="16" vol="100" pos="300" pan="0"/>
          <note len="12" key="18" vol="100" pos="312" pan="0"/>
          <note len="12" key="13" vol="100" pos="336" pan="0"/>
          <note len="12" key="11" vol="100" pos="360" pan="0"/>
        </pattern>
        <pattern muted="0" steps="16" type="0" name="Mini_DiZi" pos="6720"/>
        <pattern muted="0" steps="16" type="1" name="origin" pos="6528">
          <note len="12" key="8" vol="100" pos="0" pan="0"/>
          <note len="12" key="10" vol="100" pos="12" pan="0"/>
          <note len="12" key="10" vol="100" pos="36" pan="0"/>
          <note len="12" key="13" vol="100" pos="48" pan="0"/>
          <note len="12" key="13" vol="100" pos="72" pan="0"/>
          <note len="12" key="16" vol="100" pos="84" pan="0"/>
          <note len="12" key="16" vol="100" pos="108" pan="0"/>
          <note len="12" key="20" vol="100" pos="120" pan="0"/>
          <note len="12" key="13" vol="100" pos="144" pan="0"/>
          <note len="12" key="11" vol="100" pos="168" pan="0"/>
          <note len="12" key="8" vol="100" pos="192" pan="0"/>
          <note len="12" key="10" vol="100" pos="204" pan="0"/>
          <note len="12" key="10" vol="100" pos="228" pan="0"/>
          <note len="12" key="13" vol="100" pos="240" pan="0"/>
          <note len="12" key="13" vol="100" pos="264" pan="0"/>
          <note len="12" key="16" vol="100" pos="276" pan="0"/>
          <note len="12" key="16" vol="100" pos="300" pan="0"/>
          <note len="12" key="18" vol="100" pos="312" pan="0"/>
          <note len="12" key="13" vol="100" pos="336" pan="0"/>
          <note len="12" key="11" vol="100" pos="360" pan="0"/>
        </pattern>
        <pattern muted="0" steps="16" type="1" name="+8" pos="7680">
          <note len="12" key="20" vol="100" pos="0" pan="0"/>
          <note len="12" key="22" vol="100" pos="12" pan="0"/>
          <note len="12" key="22" vol="100" pos="36" pan="0"/>
          <note len="12" key="25" vol="100" pos="48" pan="0"/>
          <note len="12" key="25" vol="100" pos="72" pan="0"/>
          <note len="12" key="28" vol="100" pos="84" pan="0"/>
          <note len="12" key="28" vol="100" pos="108" pan="0"/>
          <note len="12" key="32" vol="100" pos="120" pan="0"/>
          <note len="12" key="25" vol="100" pos="144" pan="0"/>
          <note len="12" key="23" vol="100" pos="168" pan="0"/>
          <note len="12" key="20" vol="100" pos="192" pan="0"/>
          <note len="12" key="22" vol="100" pos="204" pan="0"/>
          <note len="12" key="22" vol="100" pos="228" pan="0"/>
          <note len="12" key="25" vol="100" pos="240" pan="0"/>
          <note len="12" key="25" vol="100" pos="264" pan="0"/>
          <note len="12" key="28" vol="100" pos="276" pan="0"/>
          <note len="12" key="28" vol="100" pos="300" pan="0"/>
          <note len="12" key="30" vol="100" pos="312" pan="0"/>
          <note len="12" key="25" vol="100" pos="336" pan="0"/>
          <note len="12" key="23" vol="100" pos="360" pan="0"/>
        </pattern>
        <pattern muted="0" steps="16" type="1" name="origin" pos="7296">
          <note len="12" key="8" vol="100" pos="0" pan="0"/>
          <note len="12" key="10" vol="100" pos="12" pan="0"/>
          <note len="12" key="10" vol="100" pos="36" pan="0"/>
          <note len="12" key="13" vol="100" pos="48" pan="0"/>
          <note len="12" key="13" vol="100" pos="72" pan="0"/>
          <note len="12" key="16" vol="100" pos="84" pan="0"/>
          <note len="12" key="16" vol="100" pos="108" pan="0"/>
          <note len="12" key="20" vol="100" pos="120" pan="0"/>
          <note len="12" key="13" vol="100" pos="144" pan="0"/>
          <note len="12" key="11" vol="100" pos="168" pan="0"/>
          <note len="12" key="8" vol="100" pos="192" pan="0"/>
          <note len="12" key="10" vol="100" pos="204" pan="0"/>
          <note len="12" key="10" vol="100" pos="228" pan="0"/>
          <note len="12" key="13" vol="100" pos="240" pan="0"/>
          <note len="12" key="13" vol="100" pos="264" pan="0"/>
          <note len="12" key="16" vol="100" pos="276" pan="0"/>
          <note len="12" key="16" vol="100" pos="300" pan="0"/>
          <note len="12" key="18" vol="100" pos="312" pan="0"/>
          <note len="12" key="13" vol="100" pos="336" pan="0"/>
          <note len="12" key="11" vol="100" pos="360" pan="0"/>
        </pattern>
      </track>
      <track muted="0" type="0" name="DSK AsianZ DreamZ" solo="0">
        <instrumenttrack pitch="0" usemasterpitch="1" fxch="0" pitchrange="1" basenote="57" pan="0">
          <vol id="7032658" scale_type="linear" value="50"/>
          <instrument name="vestige">
            <vestige program="0" plugin="/home/fxzjshm/lmms/plugins/vst/DSK Asian DreamZ.dll" chunk="zgANAAsAAAAGTQAA4UoAALtmAADWLAAA3lQAACkAAABDZAAAi0IAAGs2AACQXwAAAAAAAIAAAAD//v8EUABpAHAAYQD//v8MUABpAHAAYQAgAHQAcgBlAG0AbwBsAG8A//7/BEwAdQBhAG4A//7/BkcAdQB6AGgAZQBuAP/+/wRFAHIAaAB1AP/+/wZCAGEAbgAgAGQAaQD//v8KUABlAHIAYwB1AHMAcwBpAG8AbgD//v8A//7/CVAAYQB0AGMAaAAgACAAIAA5AP/+/wlQAGEAdABjAGgAIAAgADEAMAD//v8JUABhAHQAYwBoACAAIAAxADEA//7/CVAAYQB0AGMAaAAgACAAMQAyAP/+/wlQAGEAdABjAGgAIAAgADEAMwD//v8JUABhAHQAYwBoACAAIAAxADQA//7/CVAAYQB0AGMAaAAgACAAMQA1AP/+/wlQAGEAdABjAGgAIAAgADEANgD//v8JUABhAHQAYwBoACAAIAAxADcA//7/CVAAYQB0AGMAaAAgACAAMQA4AP/+/wlQAGEAdABjAGgAIAAgADEAOQD//v8JUABhAHQAYwBoACAAIAAyADAA//7/CVAAYQB0AGMAaAAgACAAMgAxAP/+/wlQAGEAdABjAGgAIAAgADIAMgD//v8JUABhAHQAYwBoACAAIAAyADMA//7/CVAAYQB0AGMAaAAgACAAMgA0AP/+/wlQAGEAdABjAGgAIAAgADIANQD//v8JUABhAHQAYwBoACAAIAAyADYA//7/CVAAYQB0AGMAaAAgACAAMgA3AP/+/wlQAGEAdABjAGgAIAAgADIAOAD//v8JUABhAHQAYwBoACAAIAAyADkA//7/CVAAYQB0AGMAaAAgACAAMwAwAP/+/wlQAGEAdABjAGgAIAAgADMAMQD//v8JUABhAHQAYwBoACAAIAAzADIA//7/CVAAYQB0AGMAaAAgACAAMwAzAP/+/wlQAGEAdABjAGgAIAAgADMANAD//v8JUABhAHQAYwBoACAAIAAzADUA//7/CVAAYQB0AGMAaAAgACAAMwA2AP/+/wlQAGEAdABjAGgAIAAgADMANwD//v8JUABhAHQAYwBoACAAIAAzADgA//7/CVAAYQB0AGMAaAAgACAAMwA5AP/+/wlQAGEAdABjAGgAIAAgADQAMAD//v8JUABhAHQAYwBoACAAIAA0ADEA//7/CVAAYQB0AGMAaAAgACAANAAyAP/+/wlQAGEAdABjAGgAIAAgADQAMwD//v8JUABhAHQAYwBoACAAIAA0ADQA//7/CVAAYQB0AGMAaAAgACAANAA1AP/+/wlQAGEAdABjAGgAIAAgADQANgD//v8JUABhAHQAYwBoACAAIAA0ADcA//7/CVAAYQB0AGMAaAAgACAANAA4AP/+/wlQAGEAdABjAGgAIAAgADQAOQD//v8JUABhAHQAYwBoACAAIAA1ADAA//7/CVAAYQB0AGMAaAAgACAANQAxAP/+/wlQAGEAdABjAGgAIAAgADUAMgD//v8JUABhAHQAYwBoACAAIAA1ADMA//7/CVAAYQB0AGMAaAAgACAANQA0AP/+/wlQAGEAdABjAGgAIAAgADUANQD//v8JUABhAHQAYwBoACAAIAA1ADYA//7/CVAAYQB0AGMAaAAgACAANQA3AP/+/wlQAGEAdABjAGgAIAAgADUAOAD//v8JUABhAHQAYwBoACAAIAA1ADkA//7/CVAAYQB0AGMAaAAgACAANgAwAP/+/wlQAGEAdABjAGgAIAAgADYAMQD//v8JUABhAHQAYwBoACAAIAA2ADIA//7/CVAAYQB0AGMAaAAgACAANgAzAP/+/wlQAGEAdABjAGgAIAAgADYANAD//v8JUABhAHQAYwBoACAAIAA2ADUA//7/CVAAYQB0AGMAaAAgACAANgA2AP/+/wlQAGEAdABjAGgAIAAgADYANwD//v8JUABhAHQAYwBoACAAIAA2ADgA//7/CVAAYQB0AGMAaAAgACAANgA5AP/+/wlQAGEAdABjAGgAIAAgADcAMAD//v8JUABhAHQAYwBoACAAIAA3ADEA//7/CVAAYQB0AGMAaAAgACAANwAyAP/+/wlQAGEAdABjAGgAIAAgADcAMwD//v8JUABhAHQAYwBoACAAIAA3ADQA//7/CVAAYQB0AGMAaAAgACAANwA1AP/+/wlQAGEAdABjAGgAIAAgADcANgD//v8JUABhAHQAYwBoACAAIAA3ADcA//7/CVAAYQB0AGMAaAAgACAANwA4AP/+/wlQAGEAdABjAGgAIAAgADcAOQD//v8JUABhAHQAYwBoACAAIAA4ADAA//7/CVAAYQB0AGMAaAAgACAAOAAxAP/+/wlQAGEAdABjAGgAIAAgADgAMgD//v8JUABhAHQAYwBoACAAIAA4ADMA//7/CVAAYQB0AGMAaAAgACAAOAA0AP/+/wlQAGEAdABjAGgAIAAgADgANQD//v8JUABhAHQAYwBoACAAIAA4ADYA//7/CVAAYQB0AGMAaAAgACAAOAA3AP/+/wlQAGEAdABjAGgAIAAgADgAOAD//v8JUABhAHQAYwBoACAAIAA4ADkA//7/CVAAYQB0AGMAaAAgACAAOQAwAP/+/wlQAGEAdABjAGgAIAAgADkAMQD//v8JUABhAHQAYwBoACAAIAA5ADIA//7/CVAAYQB0AGMAaAAgACAAOQAzAP/+/wlQAGEAdABjAGgAIAAgADkANAD//v8JUABhAHQAYwBoACAAIAA5ADUA//7/CVAAYQB0AGMAaAAgACAAOQA2AP/+/wlQAGEAdABjAGgAIAAgADkANwD//v8JUABhAHQAYwBoACAAIAA5ADgA//7/CVAAYQB0AGMAaAAgACAAOQA5AP/+/wlQAGEAdABjAGgAIAAxADAAMAD//v8JUABhAHQAYwBoACAAMQAwADEA//7/CVAAYQB0AGMAaAAgADEAMAAyAP/+/wlQAGEAdABjAGgAIAAxADAAMwD//v8JUABhAHQAYwBoACAAMQAwADQA//7/CVAAYQB0AGMAaAAgADEAMAA1AP/+/wlQAGEAdABjAGgAIAAxADAANgD//v8JUABhAHQAYwBoACAAMQAwADcA//7/CVAAYQB0AGMAaAAgADEAMAA4AP/+/wlQAGEAdABjAGgAIAAxADAAOQD//v8JUABhAHQAYwBoACAAMQAxADAA//7/CVAAYQB0AGMAaAAgADEAMQAxAP/+/wlQAGEAdABjAGgAIAAxADEAMgD//v8JUABhAHQAYwBoACAAMQAxADMA//7/CVAAYQB0AGMAaAAgADEAMQA0AP/+/wlQAGEAdABjAGgAIAAxADEANQD//v8JUABhAHQAYwBoACAAMQAxADYA//7/CVAAYQB0AGMAaAAgADEAMQA3AP/+/wlQAGEAdABjAGgAIAAxADEAOAD//v8JUABhAHQAYwBoACAAMQAxADkA//7/CVAAYQB0AGMAaAAgADEAMgAwAP/+/wlQAGEAdABjAGgAIAAxADIAMQD//v8JUABhAHQAYwBoACAAMQAyADIA//7/CVAAYQB0AGMAaAAgADEAMgAzAP/+/wlQAGEAdABjAGgAIAAxADIANAD//v8JUABhAHQAYwBoACAAMQAyADUA//7/CVAAYQB0AGMAaAAgADEAMgA2AP/+/wlQAGEAdABjAGgAIAAxADIANwD//v8JUABhAHQAYwBoACAAMQAyADgABgAAAIAAAAAAAAAAAAAAAAAAAAAAAAAAAAAAAAAAAAAAAAAAAAAAAAAAAAAAAAAAAAAAAAAAAAAAAAAAAAAAAAAAAAAAAAAAAAAAAAAAAAAAAAAAAAAAAAAAAAAAAAAAAAAAAAAAAAAAAAAAAAAAAAAAAAAAAAAAAAAAAAAAAAAAAAAAAAAAAAAAAAAAAAAAAAAAAAAAAAAAAAAAAAAAAAAAAAAAAAAAAAAAAAAAAAAAAAAAAAAAAAAAAAAAAAAAAAAAAAAAAAAAAAAAAAAAAAAAAAAAAAAAAAAAAAAAAAAAAAAAAAAAAAAAAAAAAAAAAAAAAAAAAAAAAAAAAAAAAAAAAAAAAAAAAAAAAAAAAAAAAAAAAAAAAAAAAAAAAAAAAAAAAAAAAAAAAAAAAAAAAAAAAAAAAAAAAAAAAAAAAAAAAAAAAAAAAAAAAAAAAAAAAAAAAAAAAAAAAAAAAAAAAAAAAAAAAAAAAAAAAAAAAAAAAAAAAAAAAAAAAAAAAAAAAAAAAAAAAAAAAAAAAAAAAAAAAAAAAAAAAAAAAAAAAAAAAAAAAAAAAAAAAAAAAAAAAAAAAAAAAAAAAAAAAAAAAAAAAAAAAAAAAAAAAAAAAAAAAAAAAAAAAAAAAAAAAAAAAAAAAAAAAAAAAAAAAAAAAAAAAAAAAAAAAAAAAAAAAAAAAAAAAAAAAP///////v8ABgAAAIAAAADEzLxACDPrQAgz60AIM+tACDPrQAgz60AHM+tACDPrQAgz60AIM+tACDPrQAgz60AIM+tACDPrQAgz60AIM+tACDPrQAgz60AIM+tACDPrQAgz60AIM+tACDPrQAgz60AIM+tACDPrQAgz60AIM+tACDPrQAgz60AIM+tACDPrQAgz60AIM+tACDPrQAgz60AIM+tACDPrQAgz60AIM+tACDPrQAgz60AIM+tACDPrQAgz60AIM+tACDPrQAgz60AIM+tACDPrQAgz60AIM+tACDPrQAgz60AIM+tACDPrQAgz60AIM+tACDPrQAgz60AIM+tACDPrQAgz60AIM+tACDPrQAgz60AIM+tACDPrQAgz60AIM+tACDPrQAgz60AIM+tACDPrQAgz60AIM+tACDPrQAgz60AIM+tACDPrQAgz60AIM+tACDPrQAgz60AIM+tACDPrQAgz60AIM+tACDPrQAgz60AIM+tACDPrQAgz60AIM+tACDPrQAgz60AIM+tACDPrQAgz60AIM+tACDPrQAgz60AIM+tACDPrQAgz60AIM+tACDPrQAgz60AIM+tACDPrQAgz60AIM+tACDPrQAgz60AIM+tACDPrQAgz60AIM+tACDPrQAgz60AIM+tACDPrQAgz60AIM+tACDPrQAgz60AIM+tACDPrQP///////v8ABgAAAIAAAAB0q4xAdKuMQHSrjEB0q4xAdKuMQHSrjEBzq4xAdKuMQHSrjEB0q4xAdKuMQHSrjEB0q4xAdKuMQHSrjEB0q4xAdKuMQHSrjEB0q4xAdKuMQHSrjEB0q4xAdKuMQHSrjEB0q4xAdKuMQHSrjEB0q4xAdKuMQHSrjEB0q4xAdKuMQHSrjEB0q4xAdKuMQHSrjEB0q4xAdKuMQHSrjEB0q4xAdKuMQHSrjEB0q4xAdKuMQHSrjEB0q4xAdKuMQHSrjEB0q4xAdKuMQHSrjEB0q4xAdKuMQHSrjEB0q4xAdKuMQHSrjEB0q4xAdKuMQHSrjEB0q4xAdKuMQHSrjEB0q4xAdKuMQHSrjEB0q4xAdKuMQHSrjEB0q4xAdKuMQHSrjEB0q4xAdKuMQHSrjEB0q4xAdKuMQHSrjEB0q4xAdKuMQHSrjEB0q4xAdKuMQHSrjEB0q4xAdKuMQHSrjEB0q4xAdKuMQHSrjEB0q4xAdKuMQHSrjEB0q4xAdKuMQHSrjEB0q4xAdKuMQHSrjEB0q4xAdKuMQHSrjEB0q4xAdKuMQHSrjEB0q4xAdKuMQHSrjEB0q4xAdKuMQHSrjEB0q4xAdKuMQHSrjEB0q4xAdKuMQHSrjEB0q4xAdKuMQHSrjEB0q4xAdKuMQHSrjEB0q4xAdKuMQHSrjEB0q4xAdKuMQP///////v8ABgAAAIAAAABWVVVA////P///f0AAAKBAMjPTQM3MBEEAACBBAAAgQQAAIEEAACBBAAAgQQAAIEEAACBBAAAgQQAAIEEAACBBAAAgQQAAIEEAACBBAAAgQQAAIEEAACBBAAAgQQAAIEEAACBBAAAgQQAAIEEAACBBAAAgQQAAIEEAACBBAAAgQQAAIEEAACBBAAAgQQAAIEEAACBBAAAgQQAAIEEAACBBAAAgQQAAIEEAACBBAAAgQQAAIEEAACBBAAAgQQAAIEEAACBBAAAgQQAAIEEAACBBAAAgQQAAIEEAACBBAAAgQQAAIEEAACBBAAAgQQAAIEEAACBBAAAgQQAAIEEAACBBAAAgQQAAIEEAACBBAAAgQQAAIEEAACBBAAAgQQAAIEEAACBBAAAgQQAAIEEAACBBAAAgQQAAIEEAACBBAAAgQQAAIEEAACBBAAAgQQAAIEEAACBBAAAgQQAAIEEAACBBAAAgQQAAIEEAACBBAAAgQQAAIEEAACBBAAAgQQAAIEEAACBBAAAgQQAAIEEAACBBAAAgQQAAIEEAACBBAAAgQQAAIEEAACBBAAAgQQAAIEEAACBBAAAgQQAAIEEAACBBAAAgQQAAIEEAACBBAAAgQQAAIEEAACBBAAAgQQAAIEEAACBBAAAgQQAAIEEAACBBAAAgQQAAIEEAACBBAAAgQf///////v8ABgAAAIAAAAD+/69A/v+vQP7/r0D+/69A/v+vQP7/r0D+/69A/v+vQP7/r0D+/69A/v+vQP7/r0D+/69A/v+vQP7/r0D+/69A/v+vQP7/r0D+/69A/v+vQP7/r0D+/69A/v+vQP7/r0D+/69A/v+vQP7/r0D+/69A/v+vQP7/r0D+/69A/v+vQP7/r0D+/69A/v+vQP7/r0D+/69A/v+vQP7/r0D+/69A/v+vQP7/r0D+/69A/v+vQP7/r0D+/69A/v+vQP7/r0D+/69A/v+vQP7/r0D+/69A/v+vQP7/r0D+/69A/v+vQP7/r0D+/69A/v+vQP7/r0D+/69A/v+vQP7/r0D+/69A/v+vQP7/r0D+/69A/v+vQP7/r0D+/69A/v+vQP7/r0D+/69A/v+vQP7/r0D+/69A/v+vQP7/r0D+/69A/v+vQP7/r0D+/69A/v+vQP7/r0D+/69A/v+vQP7/r0D+/69A/v+vQP7/r0D+/69A/v+vQP7/r0D+/69A/v+vQP7/r0D+/69A/v+vQP7/r0D+/69A/v+vQP7/r0D+/69A/v+vQP7/r0D+/69A/v+vQP7/r0D+/69A/v+vQP7/r0D+/69A/v+vQP7/r0D+/69A/v+vQP7/r0D+/69A/v+vQP7/r0D+/69A/v+vQP7/r0D+/69A/v+vQP7/r0D+/69A/v+vQP///////v8ABgAAAIAAAAAyM7M+MjOzPjIzsz4yM7M+MjOzPjIzsz4zM7M+MjOzPjIzsz4yM7M+MjOzPjIzsz4yM7M+MjOzPjIzsz4yM7M+MjOzPjIzsz4yM7M+MjOzPjIzsz4yM7M+MjOzPjIzsz4yM7M+MjOzPjIzsz4yM7M+MjOzPjIzsz4yM7M+MjOzPjIzsz4yM7M+MjOzPjIzsz4yM7M+MjOzPjIzsz4yM7M+MjOzPjIzsz4yM7M+MjOzPjIzsz4yM7M+MjOzPjIzsz4yM7M+MjOzPjIzsz4yM7M+MjOzPjIzsz4yM7M+MjOzPjIzsz4yM7M+MjOzPjIzsz4yM7M+MjOzPjIzsz4yM7M+MjOzPjIzsz4yM7M+MjOzPjIzsz4yM7M+MjOzPjIzsz4yM7M+MjOzPjIzsz4yM7M+MjOzPjIzsz4yM7M+MjOzPjIzsz4yM7M+MjOzPjIzsz4yM7M+MjOzPjIzsz4yM7M+MjOzPjIzsz4yM7M+MjOzPjIzsz4yM7M+MjOzPjIzsz4yM7M+MjOzPjIzsz4yM7M+MjOzPjIzsz4yM7M+MjOzPjIzsz4yM7M+MjOzPjIzsz4yM7M+MjOzPjIzsz4yM7M+MjOzPjIzsz4yM7M+MjOzPjIzsz4yM7M+MjOzPjIzsz4yM7M+MjOzPjIzsz4yM7M+MjOzPjIzsz4yM7M+MjOzPv///////v8ABgAAAIAAAAA6+K1ASPitQEj4rUBI+K1ASPitQEj4rUBI+K1ASPitQEj4rUBI+K1ASPitQEj4rUBI+K1ASPitQEj4rUBI+K1ASPitQEj4rUBI+K1ASPitQEj4rUBI+K1ASPitQEj4rUBI+K1ASPitQEj4rUBI+K1ASPitQEj4rUBI+K1ASPitQEj4rUBI+K1ASPitQEj4rUBI+K1ASPitQEj4rUBI+K1ASPitQEj4rUBI+K1ASPitQEj4rUBI+K1ASPitQEj4rUBI+K1ASPitQEj4rUBI+K1ASPitQEj4rUBI+K1ASPitQEj4rUBI+K1ASPitQEj4rUBI+K1ASPitQEj4rUBI+K1ASPitQEj4rUBI+K1ASPitQEj4rUBI+K1ASPitQEj4rUBI+K1ASPitQEj4rUBI+K1ASPitQEj4rUBI+K1ASPitQEj4rUBI+K1ASPitQEj4rUBI+K1ASPitQEj4rUBI+K1ASPitQEj4rUBI+K1ASPitQEj4rUBI+K1ASPitQEj4rUBI+K1ASPitQEj4rUBI+K1ASPitQEj4rUBI+K1ASPitQEj4rUBI+K1ASPitQEj4rUBI+K1ASPitQEj4rUBI+K1ASPitQEj4rUBI+K1ASPitQEj4rUBI+K1ASPitQEj4rUBI+K1ASPitQEj4rUBI+K1ASPitQEj4rUBI+K1ASPitQP///////v8AAQAAAAEAAAD//v/cRAA6AFwAVgBhAHIAaQBvAHMAXABTAHkAbgB0AGgAZQBkAGkAdABcAHMAawBpAG4AcwBcAEQAUwBLACAAQQBzAGkAYQBuAFoAIABEAHIAZQBhAG0AWgBcAF8ARABTAEsAIABBAHMAaQBhAG4AWgAuAFMARgAyACwAIAAgADAAIAAgACAAMgAgADEALAAyADUANQAgACAALQAxACAAMQAsADIANQA1ACAAIAAtADEAIAAxACwAMgA1ADUAIAAgAC0AMQAgADEALAAyADUANQAgACAALQAxACAAMQAsADIANQA1ACAAIAAtADEAIAAxACwAMgA1ADUAIAAgAC0AMQAgADEALAAyADUANQAgACAALQAxACAAMQAsADIANQA1ACAAIAAtADEAIAAxACwAMQAyADgAIAAgAC0AMQAgADEALAAyADUANQAgACAALQAxACAAMQAsADIANQA1ACAAIAAtADEAIAAxACwAMgA1ADUAIAAgAC0AMQAgADEALAAyADUANQAgACAALQAxACAAMQAsADIANQA1ACAAIAAtADEAIAAxACwAMgA1ADUAIAAgAC0AMQAgADEALAD///////7/AAYAAACAAAAAvTeGtQAAAAAAAAAAAAAAAAAAAAAAAAAAAAAAAAAAAAAAAAAAAAAAAAAAAAAAAAAAAAAAAAAAAAAAAAAAAAAAAAAAAAAAAAAAAAAAAAAAAAAAAAAAAAAAAAAAAAAAAAAAAAAAAAAAAAAAAAAAAAAAAAAAAAAAAAAAAAAAAAAAAAAAAAAAAAAAAAAAAAAAAAAAAAAAAAAAAAAAAAAAAAAAAAAAAAAAAAAAAAAAAAAAAAAAAAAAAAAAAAAAAAAAAAAAAAAAAAAAAAAAAAAAAAAAAAAAAAAAAAAAAAAAAAAAAAAAAAAAAAAAAAAAAAAAAAAAAAAAAAAAAAAAAAAAAAAAAAAAAAAAAAAAAAAAAAAAAAAAAAAAAAAAAAAAAAAAAAAAAAAAAAAAAAAAAAAAAAAAAAAAAAAAAAAAAAAAAAAAAAAAAAAAAAAAAAAAAAAAAAAAAAAAAAAAAAAAAAAAAAAAAAAAAAAAAAAAAAAAAAAAAAAAAAAAAAAAAAAAAAAAAAAAAAAAAAAAAAAAAAAAAAAAAAAAAAAAAAAAAAAAAAAAAAAAAAAAAAAAAAAAAAAAAAAAAAAAAAAAAAAAAAAAAAAAAAAAAAAAAAAAAAAAAAAAAAAAAAAAAAAAAAAAAAAAAAAAAAAAAAAAAAAAAAAAAAAAAAAAAAAAAAAAAAAAAAAAAAD///////7/AAYAAACAAAAA9v/nQK4yc0CuMnNArjJzQK4yc0CuMnNArTJzQK4yc0CuMnNArjJzQK4yc0CuMnNArjJzQK4yc0CuMnNArjJzQK4yc0CuMnNArjJzQK4yc0CuMnNArjJzQK4yc0CuMnNArjJzQK4yc0CuMnNArjJzQK4yc0CuMnNArjJzQK4yc0CuMnNArjJzQK4yc0CuMnNArjJzQK4yc0CuMnNArjJzQK4yc0CuMnNArjJzQK4yc0CuMnNArjJzQK4yc0CuMnNArjJzQK4yc0CuMnNArjJzQK4yc0CuMnNArjJzQK4yc0CuMnNArjJzQK4yc0CuMnNArjJzQK4yc0CuMnNArjJzQK4yc0CuMnNArjJzQK4yc0CuMnNArjJzQK4yc0CuMnNArjJzQK4yc0CuMnNArjJzQK4yc0CuMnNArjJzQK4yc0CuMnNArjJzQK4yc0CuMnNArjJzQK4yc0CuMnNArjJzQK4yc0CuMnNArjJzQK4yc0CuMnNArjJzQK4yc0CuMnNArjJzQK4yc0CuMnNArjJzQK4yc0CuMnNArjJzQK4yc0CuMnNArjJzQK4yc0CuMnNArjJzQK4yc0CuMnNArjJzQK4yc0CuMnNArjJzQK4yc0CuMnNArjJzQK4yc0CuMnNArjJzQK4yc0CuMnNArjJzQK4yc0CuMnNArjJzQK4yc0D///////7/AAAAAACAAAAAAAAAAAAAAAAAAAAAAAAAAAAAAAAAAAAAAAAAAAAAAAAAAAAAAAAAAAAAAAAAAAAAAAAAAAAAAAAAAAAAAAAAAAAAAAAAAAAAAAAAAAAAAAAAAAAAAAAAAAAAAAAAAAAAAAAAAAAAAAAAAAAAAAAAAAAAAAAAAAAAAAAAAAAAAAAAAAAAAAAAAAAAAAAAAAAAAAAAAAAAAAAAAAAAAAAAAAAAAAAAAAAAAAAAAAAAAAAAAAAAAAAAAAAAAAAAAAAAAAAAAAAAAAAAAAAAAAAAAAAAAAAAAAAAAAAAAAAAAAAAAAAAAAAAAAAAAAAAAAAAAAAAAAAAAAAAAAAAAAAAAAAAAAAAAAAAAAAAAAAAAAAAAAAAAAAAAAAAAAAAAAAAAAAAAAAAAAAAAAAAAAAAAAAAAAAAAAAAAAAAAAAAAAAAAAAAAAAAAAAAAAAAAAAAAAAAAAAAAAAAAAAAAAAAAAAAAAAAAAAAAAAAAAAAAAAAAAAAAAAAAAAAAAAAAAAAAAAAAAAAAAAAAAAAAAAAAAAAAAAAAAAAAAAAAAAAAAAAAAAAAAAAAAAAAAAAAAAAAAAAAAAAAAAAAAAAAAAAAAAAAAAAAAAAAAAAAAAAAAAAAAAAAAAAAAAAAAAAAAAAAAAAAAAAAAAAAAAAAAAAAAAAAAAAAAAAAAAAAAAAAAD///////7/AA==" guivisible="1"/>
          </instrument>
          <eldata ftype="0" fwet="0" fres="0.5" fcut="14000">
            <elvol lspd="0.1" pdel="0" hold="0.5" lspd_syncmode="0" userwavefile="" rel="0.1" latt="0" lspd_denominator="4" dec="0.5" lpdel="0" lamt="0" ctlenvamt="0" att="0" lspd_numerator="4" amt="0" lshp="0" sustain="0.5" x100="0"/>
            <elcut lspd="0.1" pdel="0" hold="0.5" lspd_syncmode="0" userwavefile="" rel="0.1" latt="0" lspd_denominator="4" dec="0.5" lpdel="0" lamt="0" ctlenvamt="0" att="0" lspd_numerator="4" amt="0" lshp="0" sustain="0.5" x100="0"/>
            <elres lspd="0.1" pdel="0" hold="0.5" lspd_syncmode="0" userwavefile="" rel="0.1" latt="0" lspd_denominator="4" dec="0.5" lpdel="0" lamt="0" ctlenvamt="0" att="0" lspd_numerator="4" amt="0" lshp="0" sustain="0.5" x100="0"/>
          </eldata>
          <chordcreator chordrange="1" chord="0" chord-enabled="0"/>
          <arpeggiator arpmiss="0" arpmode="0" arptime_denominator="4" arpdir="0" arp="0" arpskip="0" arptime="200" arptime_numerator="4" arpgate="100" arpcycle="0" arp-enabled="0" arptime_syncmode="0" arprange="1"/>
          <midiport outputcontroller="0" fixedoutputvelocity="-1" basevelocity="63" fixedoutputnote="-1" readable="0" writable="0" outputchannel="1" fixedinputvelocity="-1" inputchannel="0" inputcontroller="0" outputprogram="1"/>
          <fxchain numofeffects="0" enabled="0"/>
        </instrumenttrack>
        <pattern muted="0" steps="16" type="1" name="origin" pos="4224">
          <note len="12" key="56" vol="100" pos="0" pan="0"/>
          <note len="12" key="58" vol="100" pos="12" pan="0"/>
          <note len="12" key="58" vol="100" pos="36" pan="0"/>
          <note len="12" key="61" vol="100" pos="48" pan="0"/>
          <note len="12" key="61" vol="100" pos="72" pan="0"/>
          <note len="12" key="64" vol="100" pos="84" pan="0"/>
          <note len="12" key="64" vol="100" pos="108" pan="0"/>
          <note len="12" key="68" vol="100" pos="120" pan="0"/>
          <note len="12" key="61" vol="100" pos="144" pan="0"/>
          <note len="12" key="59" vol="100" pos="168" pan="0"/>
          <note len="12" key="56" vol="100" pos="192" pan="0"/>
          <note len="12" key="58" vol="100" pos="204" pan="0"/>
          <note len="12" key="58" vol="100" pos="228" pan="0"/>
          <note len="12" key="61" vol="100" pos="240" pan="0"/>
          <note len="12" key="61" vol="100" pos="264" pan="0"/>
          <note len="12" key="64" vol="100" pos="276" pan="0"/>
          <note len="12" key="64" vol="100" pos="300" pan="0"/>
          <note len="12" key="66" vol="100" pos="312" pan="0"/>
          <note len="12" key="61" vol="100" pos="336" pan="0"/>
          <note len="12" key="59" vol="100" pos="360" pan="0"/>
        </pattern>
        <pattern muted="0" steps="16" type="1" name="+8" pos="4608">
          <note len="12" key="68" vol="100" pos="0" pan="0"/>
          <note len="12" key="70" vol="100" pos="12" pan="0"/>
          <note len="12" key="70" vol="100" pos="36" pan="0"/>
          <note len="12" key="73" vol="100" pos="48" pan="0"/>
          <note len="12" key="73" vol="100" pos="72" pan="0"/>
          <note len="12" key="76" vol="100" pos="84" pan="0"/>
          <note len="12" key="76" vol="100" pos="108" pan="0"/>
          <note len="12" key="80" vol="100" pos="120" pan="0"/>
          <note len="12" key="73" vol="100" pos="144" pan="0"/>
          <note len="12" key="71" vol="100" pos="168" pan="0"/>
          <note len="12" key="68" vol="100" pos="192" pan="0"/>
          <note len="12" key="70" vol="100" pos="204" pan="0"/>
          <note len="12" key="70" vol="100" pos="228" pan="0"/>
          <note len="12" key="73" vol="100" pos="240" pan="0"/>
          <note len="12" key="73" vol="100" pos="264" pan="0"/>
          <note len="12" key="76" vol="100" pos="276" pan="0"/>
          <note len="12" key="76" vol="100" pos="300" pan="0"/>
          <note len="12" key="78" vol="100" pos="312" pan="0"/>
          <note len="12" key="73" vol="100" pos="336" pan="0"/>
          <note len="12" key="71" vol="100" pos="360" pan="0"/>
        </pattern>
        <pattern muted="0" steps="16" type="1" name="origin" pos="6528">
          <note len="12" key="56" vol="100" pos="0" pan="0"/>
          <note len="12" key="58" vol="100" pos="12" pan="0"/>
          <note len="12" key="58" vol="100" pos="36" pan="0"/>
          <note len="12" key="61" vol="100" pos="48" pan="0"/>
          <note len="12" key="61" vol="100" pos="72" pan="0"/>
          <note len="12" key="64" vol="100" pos="84" pan="0"/>
          <note len="12" key="64" vol="100" pos="108" pan="0"/>
          <note len="12" key="68" vol="100" pos="120" pan="0"/>
          <note len="12" key="61" vol="100" pos="144" pan="0"/>
          <note len="12" key="59" vol="100" pos="168" pan="0"/>
          <note len="12" key="56" vol="100" pos="192" pan="0"/>
          <note len="12" key="58" vol="100" pos="204" pan="0"/>
          <note len="12" key="58" vol="100" pos="228" pan="0"/>
          <note len="12" key="61" vol="100" pos="240" pan="0"/>
          <note len="12" key="61" vol="100" pos="264" pan="0"/>
          <note len="12" key="64" vol="100" pos="276" pan="0"/>
          <note len="12" key="64" vol="100" pos="300" pan="0"/>
          <note len="12" key="66" vol="100" pos="312" pan="0"/>
          <note len="12" key="61" vol="100" pos="336" pan="0"/>
          <note len="12" key="59" vol="100" pos="360" pan="0"/>
        </pattern>
        <pattern muted="0" steps="16" type="1" name="+8" pos="6912">
          <note len="12" key="68" vol="100" pos="0" pan="0"/>
          <note len="12" key="70" vol="100" pos="12" pan="0"/>
          <note len="12" key="70" vol="100" pos="36" pan="0"/>
          <note len="12" key="73" vol="100" pos="48" pan="0"/>
          <note len="12" key="73" vol="100" pos="72" pan="0"/>
          <note len="12" key="76" vol="100" pos="84" pan="0"/>
          <note len="12" key="76" vol="100" pos="108" pan="0"/>
          <note len="12" key="80" vol="100" pos="120" pan="0"/>
          <note len="12" key="73" vol="100" pos="144" pan="0"/>
          <note len="12" key="71" vol="100" pos="168" pan="0"/>
          <note len="12" key="68" vol="100" pos="192" pan="0"/>
          <note len="12" key="70" vol="100" pos="204" pan="0"/>
          <note len="12" key="70" vol="100" pos="228" pan="0"/>
          <note len="12" key="73" vol="100" pos="240" pan="0"/>
          <note len="12" key="73" vol="100" pos="264" pan="0"/>
          <note len="12" key="76" vol="100" pos="276" pan="0"/>
          <note len="12" key="76" vol="100" pos="300" pan="0"/>
          <note len="12" key="78" vol="100" pos="312" pan="0"/>
          <note len="12" key="73" vol="100" pos="336" pan="0"/>
          <note len="12" key="71" vol="100" pos="360" pan="0"/>
        </pattern>
        <pattern muted="0" steps="16" type="1" name="DSK AsianZ DreamZ" pos="4992">
          <note len="12" key="60" vol="100" pos="0" pan="0"/>
          <note len="12" key="60" vol="100" pos="12" pan="0"/>
          <note len="12" key="59" vol="100" pos="24" pan="0"/>
          <note len="12" key="60" vol="100" pos="36" pan="0"/>
          <note len="12" key="60" vol="100" pos="60" pan="0"/>
          <note len="12" key="59" vol="100" pos="72" pan="0"/>
          <note len="12" key="60" vol="100" pos="84" pan="0"/>
          <note len="12" key="59" vol="100" pos="96" pan="0"/>
          <note len="12" key="59" vol="100" pos="108" pan="0"/>
          <note len="12" key="60" vol="100" pos="120" pan="0"/>
          <note len="12" key="59" vol="100" pos="132" pan="0"/>
          <note len="12" key="59" vol="100" pos="156" pan="0"/>
          <note len="12" key="60" vol="100" pos="168" pan="0"/>
          <note len="12" key="57" vol="100" pos="180" pan="0"/>
          <note len="12" key="55" vol="100" pos="192" pan="0"/>
          <note len="12" key="55" vol="100" pos="204" pan="0"/>
          <note len="12" key="53" vol="100" pos="216" pan="0"/>
          <note len="12" key="55" vol="100" pos="228" pan="0"/>
          <note len="12" key="55" vol="100" pos="252" pan="0"/>
          <note len="12" key="53" vol="100" pos="264" pan="0"/>
          <note len="12" key="55" vol="100" pos="276" pan="0"/>
          <note len="12" key="53" vol="100" pos="288" pan="0"/>
          <note len="12" key="53" vol="100" pos="300" pan="0"/>
          <note len="12" key="55" vol="100" pos="312" pan="0"/>
          <note len="12" key="53" vol="100" pos="324" pan="0"/>
          <note len="12" key="53" vol="100" pos="348" pan="0"/>
          <note len="12" key="55" vol="100" pos="360" pan="0"/>
          <note len="12" key="57" vol="100" pos="372" pan="0"/>
          <note len="12" key="60" vol="100" pos="384" pan="0"/>
          <note len="12" key="60" vol="100" pos="396" pan="0"/>
          <note len="12" key="59" vol="100" pos="408" pan="0"/>
          <note len="12" key="60" vol="100" pos="420" pan="0"/>
          <note len="12" key="60" vol="100" pos="444" pan="0"/>
          <note len="12" key="59" vol="100" pos="456" pan="0"/>
          <note len="12" key="60" vol="100" pos="468" pan="0"/>
          <note len="12" key="59" vol="100" pos="480" pan="0"/>
          <note len="12" key="59" vol="100" pos="492" pan="0"/>
          <note len="12" key="60" vol="100" pos="504" pan="0"/>
          <note len="12" key="59" vol="100" pos="516" pan="0"/>
          <note len="12" key="59" vol="100" pos="540" pan="0"/>
          <note len="12" key="60" vol="100" pos="552" pan="0"/>
          <note len="12" key="64" vol="100" pos="564" pan="0"/>
          <note len="12" key="62" vol="100" pos="576" pan="0"/>
          <note len="12" key="62" vol="100" pos="588" pan="0"/>
          <note len="12" key="59" vol="100" pos="600" pan="0"/>
          <note len="12" key="62" vol="100" pos="612" pan="0"/>
          <note len="12" key="62" vol="100" pos="636" pan="0"/>
          <note len="12" key="64" vol="100" pos="648" pan="0"/>
          <note len="12" key="57" vol="100" pos="660" pan="0"/>
          <note len="12" key="59" vol="100" pos="672" pan="0"/>
          <note len="12" key="59" vol="100" pos="684" pan="0"/>
          <note len="12" key="57" vol="100" pos="696" pan="0"/>
          <note len="12" key="59" vol="100" pos="708" pan="0"/>
          <note len="12" key="59" vol="100" pos="732" pan="0"/>
          <note len="12" key="60" vol="100" pos="744" pan="0"/>
          <note len="12" key="59" vol="100" pos="756" pan="0"/>
        </pattern>
        <pattern muted="0" steps="16" type="1" name="DSK AsianZ DreamZ" pos="5760">
          <note len="12" key="60" vol="100" pos="0" pan="0"/>
          <note len="12" key="60" vol="100" pos="12" pan="0"/>
          <note len="12" key="59" vol="100" pos="24" pan="0"/>
          <note len="12" key="60" vol="100" pos="36" pan="0"/>
          <note len="12" key="60" vol="100" pos="60" pan="0"/>
          <note len="12" key="59" vol="100" pos="72" pan="0"/>
          <note len="12" key="60" vol="100" pos="84" pan="0"/>
          <note len="12" key="59" vol="100" pos="96" pan="0"/>
          <note len="12" key="59" vol="100" pos="108" pan="0"/>
          <note len="12" key="60" vol="100" pos="120" pan="0"/>
          <note len="12" key="59" vol="100" pos="132" pan="0"/>
          <note len="12" key="59" vol="100" pos="156" pan="0"/>
          <note len="12" key="60" vol="100" pos="168" pan="0"/>
          <note len="12" key="57" vol="100" pos="180" pan="0"/>
          <note len="12" key="55" vol="100" pos="192" pan="0"/>
          <note len="12" key="55" vol="100" pos="204" pan="0"/>
          <note len="12" key="53" vol="100" pos="216" pan="0"/>
          <note len="12" key="55" vol="100" pos="228" pan="0"/>
          <note len="12" key="55" vol="100" pos="252" pan="0"/>
          <note len="12" key="53" vol="100" pos="264" pan="0"/>
          <note len="12" key="55" vol="100" pos="276" pan="0"/>
          <note len="12" key="53" vol="100" pos="288" pan="0"/>
          <note len="12" key="53" vol="100" pos="300" pan="0"/>
          <note len="12" key="55" vol="100" pos="312" pan="0"/>
          <note len="12" key="53" vol="100" pos="324" pan="0"/>
          <note len="12" key="53" vol="100" pos="348" pan="0"/>
          <note len="12" key="55" vol="100" pos="360" pan="0"/>
          <note len="12" key="57" vol="100" pos="372" pan="0"/>
          <note len="12" key="60" vol="100" pos="384" pan="0"/>
          <note len="12" key="60" vol="100" pos="396" pan="0"/>
          <note len="12" key="59" vol="100" pos="408" pan="0"/>
          <note len="12" key="60" vol="100" pos="420" pan="0"/>
          <note len="12" key="60" vol="100" pos="444" pan="0"/>
          <note len="12" key="59" vol="100" pos="456" pan="0"/>
          <note len="12" key="60" vol="100" pos="468" pan="0"/>
          <note len="12" key="59" vol="100" pos="480" pan="0"/>
          <note len="12" key="59" vol="100" pos="492" pan="0"/>
          <note len="12" key="60" vol="100" pos="504" pan="0"/>
          <note len="12" key="59" vol="100" pos="516" pan="0"/>
          <note len="12" key="59" vol="100" pos="540" pan="0"/>
          <note len="12" key="60" vol="100" pos="552" pan="0"/>
          <note len="12" key="64" vol="100" pos="564" pan="0"/>
          <note len="12" key="62" vol="100" pos="576" pan="0"/>
          <note len="12" key="62" vol="100" pos="588" pan="0"/>
          <note len="12" key="59" vol="100" pos="600" pan="0"/>
          <note len="12" key="62" vol="100" pos="612" pan="0"/>
          <note len="12" key="62" vol="100" pos="636" pan="0"/>
          <note len="12" key="64" vol="100" pos="648" pan="0"/>
          <note len="12" key="65" vol="100" pos="660" pan="0"/>
          <note len="12" key="65" vol="100" pos="672" pan="0"/>
          <note len="12" key="69" vol="100" pos="684" pan="0"/>
          <note len="12" key="67" vol="100" pos="696" pan="0"/>
          <note len="12" key="65" vol="100" pos="708" pan="0"/>
          <note len="12" key="69" vol="100" pos="732" pan="0"/>
          <note len="12" key="67" vol="100" pos="744" pan="0"/>
          <note len="12" key="65" vol="100" pos="756" pan="0"/>
        </pattern>
      </track>
      <track muted="0" type="0" name="DSK AsianZ DreamZ" solo="0">
        <instrumenttrack pitch="0" usemasterpitch="1" fxch="0" pitchrange="1" basenote="57" pan="0">
          <vol id="908249" scale_type="linear" value="50"/>
          <instrument name="vestige">
            <vestige program="0" plugin="/home/fxzjshm/lmms/plugins/vst/DSK Asian DreamZ.dll" chunk="zgANAAsAAAAGTQAA4UoAALtmAADWLAAA3lQAACkAAABDZAAAi0IAAGs2AACQXwAAAAAAAIAAAAD//v8EUABpAHAAYQD//v8MUABpAHAAYQAgAHQAcgBlAG0AbwBsAG8A//7/BEwAdQBhAG4A//7/BkcAdQB6AGgAZQBuAP/+/wRFAHIAaAB1AP/+/wZCAGEAbgAgAGQAaQD//v8KUABlAHIAYwB1AHMAcwBpAG8AbgD//v8A//7/CVAAYQB0AGMAaAAgACAAIAA5AP/+/wlQAGEAdABjAGgAIAAgADEAMAD//v8JUABhAHQAYwBoACAAIAAxADEA//7/CVAAYQB0AGMAaAAgACAAMQAyAP/+/wlQAGEAdABjAGgAIAAgADEAMwD//v8JUABhAHQAYwBoACAAIAAxADQA//7/CVAAYQB0AGMAaAAgACAAMQA1AP/+/wlQAGEAdABjAGgAIAAgADEANgD//v8JUABhAHQAYwBoACAAIAAxADcA//7/CVAAYQB0AGMAaAAgACAAMQA4AP/+/wlQAGEAdABjAGgAIAAgADEAOQD//v8JUABhAHQAYwBoACAAIAAyADAA//7/CVAAYQB0AGMAaAAgACAAMgAxAP/+/wlQAGEAdABjAGgAIAAgADIAMgD//v8JUABhAHQAYwBoACAAIAAyADMA//7/CVAAYQB0AGMAaAAgACAAMgA0AP/+/wlQAGEAdABjAGgAIAAgADIANQD//v8JUABhAHQAYwBoACAAIAAyADYA//7/CVAAYQB0AGMAaAAgACAAMgA3AP/+/wlQAGEAdABjAGgAIAAgADIAOAD//v8JUABhAHQAYwBoACAAIAAyADkA//7/CVAAYQB0AGMAaAAgACAAMwAwAP/+/wlQAGEAdABjAGgAIAAgADMAMQD//v8JUABhAHQAYwBoACAAIAAzADIA//7/CVAAYQB0AGMAaAAgACAAMwAzAP/+/wlQAGEAdABjAGgAIAAgADMANAD//v8JUABhAHQAYwBoACAAIAAzADUA//7/CVAAYQB0AGMAaAAgACAAMwA2AP/+/wlQAGEAdABjAGgAIAAgADMANwD//v8JUABhAHQAYwBoACAAIAAzADgA//7/CVAAYQB0AGMAaAAgACAAMwA5AP/+/wlQAGEAdABjAGgAIAAgADQAMAD//v8JUABhAHQAYwBoACAAIAA0ADEA//7/CVAAYQB0AGMAaAAgACAANAAyAP/+/wlQAGEAdABjAGgAIAAgADQAMwD//v8JUABhAHQAYwBoACAAIAA0ADQA//7/CVAAYQB0AGMAaAAgACAANAA1AP/+/wlQAGEAdABjAGgAIAAgADQANgD//v8JUABhAHQAYwBoACAAIAA0ADcA//7/CVAAYQB0AGMAaAAgACAANAA4AP/+/wlQAGEAdABjAGgAIAAgADQAOQD//v8JUABhAHQAYwBoACAAIAA1ADAA//7/CVAAYQB0AGMAaAAgACAANQAxAP/+/wlQAGEAdABjAGgAIAAgADUAMgD//v8JUABhAHQAYwBoACAAIAA1ADMA//7/CVAAYQB0AGMAaAAgACAANQA0AP/+/wlQAGEAdABjAGgAIAAgADUANQD//v8JUABhAHQAYwBoACAAIAA1ADYA//7/CVAAYQB0AGMAaAAgACAANQA3AP/+/wlQAGEAdABjAGgAIAAgADUAOAD//v8JUABhAHQAYwBoACAAIAA1ADkA//7/CVAAYQB0AGMAaAAgACAANgAwAP/+/wlQAGEAdABjAGgAIAAgADYAMQD//v8JUABhAHQAYwBoACAAIAA2ADIA//7/CVAAYQB0AGMAaAAgACAANgAzAP/+/wlQAGEAdABjAGgAIAAgADYANAD//v8JUABhAHQAYwBoACAAIAA2ADUA//7/CVAAYQB0AGMAaAAgACAANgA2AP/+/wlQAGEAdABjAGgAIAAgADYANwD//v8JUABhAHQAYwBoACAAIAA2ADgA//7/CVAAYQB0AGMAaAAgACAANgA5AP/+/wlQAGEAdABjAGgAIAAgADcAMAD//v8JUABhAHQAYwBoACAAIAA3ADEA//7/CVAAYQB0AGMAaAAgACAANwAyAP/+/wlQAGEAdABjAGgAIAAgADcAMwD//v8JUABhAHQAYwBoACAAIAA3ADQA//7/CVAAYQB0AGMAaAAgACAANwA1AP/+/wlQAGEAdABjAGgAIAAgADcANgD//v8JUABhAHQAYwBoACAAIAA3ADcA//7/CVAAYQB0AGMAaAAgACAANwA4AP/+/wlQAGEAdABjAGgAIAAgADcAOQD//v8JUABhAHQAYwBoACAAIAA4ADAA//7/CVAAYQB0AGMAaAAgACAAOAAxAP/+/wlQAGEAdABjAGgAIAAgADgAMgD//v8JUABhAHQAYwBoACAAIAA4ADMA//7/CVAAYQB0AGMAaAAgACAAOAA0AP/+/wlQAGEAdABjAGgAIAAgADgANQD//v8JUABhAHQAYwBoACAAIAA4ADYA//7/CVAAYQB0AGMAaAAgACAAOAA3AP/+/wlQAGEAdABjAGgAIAAgADgAOAD//v8JUABhAHQAYwBoACAAIAA4ADkA//7/CVAAYQB0AGMAaAAgACAAOQAwAP/+/wlQAGEAdABjAGgAIAAgADkAMQD//v8JUABhAHQAYwBoACAAIAA5ADIA//7/CVAAYQB0AGMAaAAgACAAOQAzAP/+/wlQAGEAdABjAGgAIAAgADkANAD//v8JUABhAHQAYwBoACAAIAA5ADUA//7/CVAAYQB0AGMAaAAgACAAOQA2AP/+/wlQAGEAdABjAGgAIAAgADkANwD//v8JUABhAHQAYwBoACAAIAA5ADgA//7/CVAAYQB0AGMAaAAgACAAOQA5AP/+/wlQAGEAdABjAGgAIAAxADAAMAD//v8JUABhAHQAYwBoACAAMQAwADEA//7/CVAAYQB0AGMAaAAgADEAMAAyAP/+/wlQAGEAdABjAGgAIAAxADAAMwD//v8JUABhAHQAYwBoACAAMQAwADQA//7/CVAAYQB0AGMAaAAgADEAMAA1AP/+/wlQAGEAdABjAGgAIAAxADAANgD//v8JUABhAHQAYwBoACAAMQAwADcA//7/CVAAYQB0AGMAaAAgADEAMAA4AP/+/wlQAGEAdABjAGgAIAAxADAAOQD//v8JUABhAHQAYwBoACAAMQAxADAA//7/CVAAYQB0AGMAaAAgADEAMQAxAP/+/wlQAGEAdABjAGgAIAAxADEAMgD//v8JUABhAHQAYwBoACAAMQAxADMA//7/CVAAYQB0AGMAaAAgADEAMQA0AP/+/wlQAGEAdABjAGgAIAAxADEANQD//v8JUABhAHQAYwBoACAAMQAxADYA//7/CVAAYQB0AGMAaAAgADEAMQA3AP/+/wlQAGEAdABjAGgAIAAxADEAOAD//v8JUABhAHQAYwBoACAAMQAxADkA//7/CVAAYQB0AGMAaAAgADEAMgAwAP/+/wlQAGEAdABjAGgAIAAxADIAMQD//v8JUABhAHQAYwBoACAAMQAyADIA//7/CVAAYQB0AGMAaAAgADEAMgAzAP/+/wlQAGEAdABjAGgAIAAxADIANAD//v8JUABhAHQAYwBoACAAMQAyADUA//7/CVAAYQB0AGMAaAAgADEAMgA2AP/+/wlQAGEAdABjAGgAIAAxADIANwD//v8JUABhAHQAYwBoACAAMQAyADgABgAAAIAAAAAAAAAAAAAAAAAAAAAAAAAAAAAAAAAAAAAAAAAAAAAAAAAAAAAAAAAAAAAAAAAAAAAAAAAAAAAAAAAAAAAAAAAAAAAAAAAAAAAAAAAAAAAAAAAAAAAAAAAAAAAAAAAAAAAAAAAAAAAAAAAAAAAAAAAAAAAAAAAAAAAAAAAAAAAAAAAAAAAAAAAAAAAAAAAAAAAAAAAAAAAAAAAAAAAAAAAAAAAAAAAAAAAAAAAAAAAAAAAAAAAAAAAAAAAAAAAAAAAAAAAAAAAAAAAAAAAAAAAAAAAAAAAAAAAAAAAAAAAAAAAAAAAAAAAAAAAAAAAAAAAAAAAAAAAAAAAAAAAAAAAAAAAAAAAAAAAAAAAAAAAAAAAAAAAAAAAAAAAAAAAAAAAAAAAAAAAAAAAAAAAAAAAAAAAAAAAAAAAAAAAAAAAAAAAAAAAAAAAAAAAAAAAAAAAAAAAAAAAAAAAAAAAAAAAAAAAAAAAAAAAAAAAAAAAAAAAAAAAAAAAAAAAAAAAAAAAAAAAAAAAAAAAAAAAAAAAAAAAAAAAAAAAAAAAAAAAAAAAAAAAAAAAAAAAAAAAAAAAAAAAAAAAAAAAAAAAAAAAAAAAAAAAAAAAAAAAAAAAAAAAAAAAAAAAAAAAAAAAAAAAAAAAAAAAAAAAAAAAAAAAAAAAAAAAAAAAAAAAAAAAAAP///////v8ABgAAAIAAAADEzLxACDPrQAgz60AIM+tACDPrQAgz60AHM+tACDPrQAgz60AIM+tACDPrQAgz60AIM+tACDPrQAgz60AIM+tACDPrQAgz60AIM+tACDPrQAgz60AIM+tACDPrQAgz60AIM+tACDPrQAgz60AIM+tACDPrQAgz60AIM+tACDPrQAgz60AIM+tACDPrQAgz60AIM+tACDPrQAgz60AIM+tACDPrQAgz60AIM+tACDPrQAgz60AIM+tACDPrQAgz60AIM+tACDPrQAgz60AIM+tACDPrQAgz60AIM+tACDPrQAgz60AIM+tACDPrQAgz60AIM+tACDPrQAgz60AIM+tACDPrQAgz60AIM+tACDPrQAgz60AIM+tACDPrQAgz60AIM+tACDPrQAgz60AIM+tACDPrQAgz60AIM+tACDPrQAgz60AIM+tACDPrQAgz60AIM+tACDPrQAgz60AIM+tACDPrQAgz60AIM+tACDPrQAgz60AIM+tACDPrQAgz60AIM+tACDPrQAgz60AIM+tACDPrQAgz60AIM+tACDPrQAgz60AIM+tACDPrQAgz60AIM+tACDPrQAgz60AIM+tACDPrQAgz60AIM+tACDPrQAgz60AIM+tACDPrQAgz60AIM+tACDPrQAgz60AIM+tACDPrQAgz60AIM+tACDPrQP///////v8ABgAAAIAAAAB0q4xAdKuMQHSrjEB0q4xAdKuMQHSrjEBzq4xAdKuMQHSrjEB0q4xAdKuMQHSrjEB0q4xAdKuMQHSrjEB0q4xAdKuMQHSrjEB0q4xAdKuMQHSrjEB0q4xAdKuMQHSrjEB0q4xAdKuMQHSrjEB0q4xAdKuMQHSrjEB0q4xAdKuMQHSrjEB0q4xAdKuMQHSrjEB0q4xAdKuMQHSrjEB0q4xAdKuMQHSrjEB0q4xAdKuMQHSrjEB0q4xAdKuMQHSrjEB0q4xAdKuMQHSrjEB0q4xAdKuMQHSrjEB0q4xAdKuMQHSrjEB0q4xAdKuMQHSrjEB0q4xAdKuMQHSrjEB0q4xAdKuMQHSrjEB0q4xAdKuMQHSrjEB0q4xAdKuMQHSrjEB0q4xAdKuMQHSrjEB0q4xAdKuMQHSrjEB0q4xAdKuMQHSrjEB0q4xAdKuMQHSrjEB0q4xAdKuMQHSrjEB0q4xAdKuMQHSrjEB0q4xAdKuMQHSrjEB0q4xAdKuMQHSrjEB0q4xAdKuMQHSrjEB0q4xAdKuMQHSrjEB0q4xAdKuMQHSrjEB0q4xAdKuMQHSrjEB0q4xAdKuMQHSrjEB0q4xAdKuMQHSrjEB0q4xAdKuMQHSrjEB0q4xAdKuMQHSrjEB0q4xAdKuMQHSrjEB0q4xAdKuMQHSrjEB0q4xAdKuMQP///////v8ABgAAAIAAAABVVQVB////P///f0AAAKBAMjPTQM3MBEEAACBBAAAgQQAAIEEAACBBAAAgQQAAIEEAACBBAAAgQQAAIEEAACBBAAAgQQAAIEEAACBBAAAgQQAAIEEAACBBAAAgQQAAIEEAACBBAAAgQQAAIEEAACBBAAAgQQAAIEEAACBBAAAgQQAAIEEAACBBAAAgQQAAIEEAACBBAAAgQQAAIEEAACBBAAAgQQAAIEEAACBBAAAgQQAAIEEAACBBAAAgQQAAIEEAACBBAAAgQQAAIEEAACBBAAAgQQAAIEEAACBBAAAgQQAAIEEAACBBAAAgQQAAIEEAACBBAAAgQQAAIEEAACBBAAAgQQAAIEEAACBBAAAgQQAAIEEAACBBAAAgQQAAIEEAACBBAAAgQQAAIEEAACBBAAAgQQAAIEEAACBBAAAgQQAAIEEAACBBAAAgQQAAIEEAACBBAAAgQQAAIEEAACBBAAAgQQAAIEEAACBBAAAgQQAAIEEAACBBAAAgQQAAIEEAACBBAAAgQQAAIEEAACBBAAAgQQAAIEEAACBBAAAgQQAAIEEAACBBAAAgQQAAIEEAACBBAAAgQQAAIEEAACBBAAAgQQAAIEEAACBBAAAgQQAAIEEAACBBAAAgQQAAIEEAACBBAAAgQQAAIEEAACBBAAAgQQAAIEEAACBBAAAgQf///////v8ABgAAAIAAAAD+/69A/v+vQP7/r0D+/69A/v+vQP7/r0D+/69A/v+vQP7/r0D+/69A/v+vQP7/r0D+/69A/v+vQP7/r0D+/69A/v+vQP7/r0D+/69A/v+vQP7/r0D+/69A/v+vQP7/r0D+/69A/v+vQP7/r0D+/69A/v+vQP7/r0D+/69A/v+vQP7/r0D+/69A/v+vQP7/r0D+/69A/v+vQP7/r0D+/69A/v+vQP7/r0D+/69A/v+vQP7/r0D+/69A/v+vQP7/r0D+/69A/v+vQP7/r0D+/69A/v+vQP7/r0D+/69A/v+vQP7/r0D+/69A/v+vQP7/r0D+/69A/v+vQP7/r0D+/69A/v+vQP7/r0D+/69A/v+vQP7/r0D+/69A/v+vQP7/r0D+/69A/v+vQP7/r0D+/69A/v+vQP7/r0D+/69A/v+vQP7/r0D+/69A/v+vQP7/r0D+/69A/v+vQP7/r0D+/69A/v+vQP7/r0D+/69A/v+vQP7/r0D+/69A/v+vQP7/r0D+/69A/v+vQP7/r0D+/69A/v+vQP7/r0D+/69A/v+vQP7/r0D+/69A/v+vQP7/r0D+/69A/v+vQP7/r0D+/69A/v+vQP7/r0D+/69A/v+vQP7/r0D+/69A/v+vQP7/r0D+/69A/v+vQP7/r0D+/69A/v+vQP7/r0D+/69A/v+vQP///////v8ABgAAAIAAAAAyM7M+MjOzPjIzsz4yM7M+MjOzPjIzsz4zM7M+MjOzPjIzsz4yM7M+MjOzPjIzsz4yM7M+MjOzPjIzsz4yM7M+MjOzPjIzsz4yM7M+MjOzPjIzsz4yM7M+MjOzPjIzsz4yM7M+MjOzPjIzsz4yM7M+MjOzPjIzsz4yM7M+MjOzPjIzsz4yM7M+MjOzPjIzsz4yM7M+MjOzPjIzsz4yM7M+MjOzPjIzsz4yM7M+MjOzPjIzsz4yM7M+MjOzPjIzsz4yM7M+MjOzPjIzsz4yM7M+MjOzPjIzsz4yM7M+MjOzPjIzsz4yM7M+MjOzPjIzsz4yM7M+MjOzPjIzsz4yM7M+MjOzPjIzsz4yM7M+MjOzPjIzsz4yM7M+MjOzPjIzsz4yM7M+MjOzPjIzsz4yM7M+MjOzPjIzsz4yM7M+MjOzPjIzsz4yM7M+MjOzPjIzsz4yM7M+MjOzPjIzsz4yM7M+MjOzPjIzsz4yM7M+MjOzPjIzsz4yM7M+MjOzPjIzsz4yM7M+MjOzPjIzsz4yM7M+MjOzPjIzsz4yM7M+MjOzPjIzsz4yM7M+MjOzPjIzsz4yM7M+MjOzPjIzsz4yM7M+MjOzPjIzsz4yM7M+MjOzPjIzsz4yM7M+MjOzPjIzsz4yM7M+MjOzPjIzsz4yM7M+MjOzPjIzsz4yM7M+MjOzPv///////v8ABgAAAIAAAAA6+K1ASPitQEj4rUBI+K1ASPitQEj4rUBI+K1ASPitQEj4rUBI+K1ASPitQEj4rUBI+K1ASPitQEj4rUBI+K1ASPitQEj4rUBI+K1ASPitQEj4rUBI+K1ASPitQEj4rUBI+K1ASPitQEj4rUBI+K1ASPitQEj4rUBI+K1ASPitQEj4rUBI+K1ASPitQEj4rUBI+K1ASPitQEj4rUBI+K1ASPitQEj4rUBI+K1ASPitQEj4rUBI+K1ASPitQEj4rUBI+K1ASPitQEj4rUBI+K1ASPitQEj4rUBI+K1ASPitQEj4rUBI+K1ASPitQEj4rUBI+K1ASPitQEj4rUBI+K1ASPitQEj4rUBI+K1ASPitQEj4rUBI+K1ASPitQEj4rUBI+K1ASPitQEj4rUBI+K1ASPitQEj4rUBI+K1ASPitQEj4rUBI+K1ASPitQEj4rUBI+K1ASPitQEj4rUBI+K1ASPitQEj4rUBI+K1ASPitQEj4rUBI+K1ASPitQEj4rUBI+K1ASPitQEj4rUBI+K1ASPitQEj4rUBI+K1ASPitQEj4rUBI+K1ASPitQEj4rUBI+K1ASPitQEj4rUBI+K1ASPitQEj4rUBI+K1ASPitQEj4rUBI+K1ASPitQEj4rUBI+K1ASPitQEj4rUBI+K1ASPitQEj4rUBI+K1ASPitQP///////v8AAQAAAAEAAAD//v/cRAA6AFwAVgBhAHIAaQBvAHMAXABTAHkAbgB0AGgAZQBkAGkAdABcAHMAawBpAG4AcwBcAEQAUwBLACAAQQBzAGkAYQBuAFoAIABEAHIAZQBhAG0AWgBcAF8ARABTAEsAIABBAHMAaQBhAG4AWgAuAFMARgAyACwAIAAgADAAIAAgACAAMAAgADEALAAyADUANQAgACAALQAxACAAMQAsADIANQA1ACAAIAAtADEAIAAxACwAMgA1ADUAIAAgAC0AMQAgADEALAAyADUANQAgACAALQAxACAAMQAsADIANQA1ACAAIAAtADEAIAAxACwAMgA1ADUAIAAgAC0AMQAgADEALAAyADUANQAgACAALQAxACAAMQAsADIANQA1ACAAIAAtADEAIAAxACwAMQAyADgAIAAgAC0AMQAgADEALAAyADUANQAgACAALQAxACAAMQAsADIANQA1ACAAIAAtADEAIAAxACwAMgA1ADUAIAAgAC0AMQAgADEALAAyADUANQAgACAALQAxACAAMQAsADIANQA1ACAAIAAtADEAIAAxACwAMgA1ADUAIAAgAC0AMQAgADEALAD///////7/AAYAAACAAAAAvTeGtQAAAAAAAAAAAAAAAAAAAAAAAAAAAAAAAAAAAAAAAAAAAAAAAAAAAAAAAAAAAAAAAAAAAAAAAAAAAAAAAAAAAAAAAAAAAAAAAAAAAAAAAAAAAAAAAAAAAAAAAAAAAAAAAAAAAAAAAAAAAAAAAAAAAAAAAAAAAAAAAAAAAAAAAAAAAAAAAAAAAAAAAAAAAAAAAAAAAAAAAAAAAAAAAAAAAAAAAAAAAAAAAAAAAAAAAAAAAAAAAAAAAAAAAAAAAAAAAAAAAAAAAAAAAAAAAAAAAAAAAAAAAAAAAAAAAAAAAAAAAAAAAAAAAAAAAAAAAAAAAAAAAAAAAAAAAAAAAAAAAAAAAAAAAAAAAAAAAAAAAAAAAAAAAAAAAAAAAAAAAAAAAAAAAAAAAAAAAAAAAAAAAAAAAAAAAAAAAAAAAAAAAAAAAAAAAAAAAAAAAAAAAAAAAAAAAAAAAAAAAAAAAAAAAAAAAAAAAAAAAAAAAAAAAAAAAAAAAAAAAAAAAAAAAAAAAAAAAAAAAAAAAAAAAAAAAAAAAAAAAAAAAAAAAAAAAAAAAAAAAAAAAAAAAAAAAAAAAAAAAAAAAAAAAAAAAAAAAAAAAAAAAAAAAAAAAAAAAAAAAAAAAAAAAAAAAAAAAAAAAAAAAAAAAAAAAAAAAAAAAAAAAAAAAAAAAAAAAAD///////7/AAYAAACAAAAA9v/nQK4yc0CuMnNArjJzQK4yc0CuMnNArTJzQK4yc0CuMnNArjJzQK4yc0CuMnNArjJzQK4yc0CuMnNArjJzQK4yc0CuMnNArjJzQK4yc0CuMnNArjJzQK4yc0CuMnNArjJzQK4yc0CuMnNArjJzQK4yc0CuMnNArjJzQK4yc0CuMnNArjJzQK4yc0CuMnNArjJzQK4yc0CuMnNArjJzQK4yc0CuMnNArjJzQK4yc0CuMnNArjJzQK4yc0CuMnNArjJzQK4yc0CuMnNArjJzQK4yc0CuMnNArjJzQK4yc0CuMnNArjJzQK4yc0CuMnNArjJzQK4yc0CuMnNArjJzQK4yc0CuMnNArjJzQK4yc0CuMnNArjJzQK4yc0CuMnNArjJzQK4yc0CuMnNArjJzQK4yc0CuMnNArjJzQK4yc0CuMnNArjJzQK4yc0CuMnNArjJzQK4yc0CuMnNArjJzQK4yc0CuMnNArjJzQK4yc0CuMnNArjJzQK4yc0CuMnNArjJzQK4yc0CuMnNArjJzQK4yc0CuMnNArjJzQK4yc0CuMnNArjJzQK4yc0CuMnNArjJzQK4yc0CuMnNArjJzQK4yc0CuMnNArjJzQK4yc0CuMnNArjJzQK4yc0CuMnNArjJzQK4yc0CuMnNArjJzQK4yc0CuMnNArjJzQK4yc0D///////7/AAAAAACAAAAAAAAAAAAAAAAAAAAAAAAAAAAAAAAAAAAAAAAAAAAAAAAAAAAAAAAAAAAAAAAAAAAAAAAAAAAAAAAAAAAAAAAAAAAAAAAAAAAAAAAAAAAAAAAAAAAAAAAAAAAAAAAAAAAAAAAAAAAAAAAAAAAAAAAAAAAAAAAAAAAAAAAAAAAAAAAAAAAAAAAAAAAAAAAAAAAAAAAAAAAAAAAAAAAAAAAAAAAAAAAAAAAAAAAAAAAAAAAAAAAAAAAAAAAAAAAAAAAAAAAAAAAAAAAAAAAAAAAAAAAAAAAAAAAAAAAAAAAAAAAAAAAAAAAAAAAAAAAAAAAAAAAAAAAAAAAAAAAAAAAAAAAAAAAAAAAAAAAAAAAAAAAAAAAAAAAAAAAAAAAAAAAAAAAAAAAAAAAAAAAAAAAAAAAAAAAAAAAAAAAAAAAAAAAAAAAAAAAAAAAAAAAAAAAAAAAAAAAAAAAAAAAAAAAAAAAAAAAAAAAAAAAAAAAAAAAAAAAAAAAAAAAAAAAAAAAAAAAAAAAAAAAAAAAAAAAAAAAAAAAAAAAAAAAAAAAAAAAAAAAAAAAAAAAAAAAAAAAAAAAAAAAAAAAAAAAAAAAAAAAAAAAAAAAAAAAAAAAAAAAAAAAAAAAAAAAAAAAAAAAAAAAAAAAAAAAAAAAAAAAAAAAAAAAAAAAAAAAAAAAAAAD///////7/AA==" guivisible="1"/>
          </instrument>
          <eldata ftype="0" fwet="0" fres="0.5" fcut="14000">
            <elvol lspd="0.1" pdel="0" hold="0.5" lspd_syncmode="0" userwavefile="" rel="0.1" latt="0" lspd_denominator="4" dec="0.5" lpdel="0" lamt="0" ctlenvamt="0" att="0" lspd_numerator="4" amt="0" lshp="0" sustain="0.5" x100="0"/>
            <elcut lspd="0.1" pdel="0" hold="0.5" lspd_syncmode="0" userwavefile="" rel="0.1" latt="0" lspd_denominator="4" dec="0.5" lpdel="0" lamt="0" ctlenvamt="0" att="0" lspd_numerator="4" amt="0" lshp="0" sustain="0.5" x100="0"/>
            <elres lspd="0.1" pdel="0" hold="0.5" lspd_syncmode="0" userwavefile="" rel="0.1" latt="0" lspd_denominator="4" dec="0.5" lpdel="0" lamt="0" ctlenvamt="0" att="0" lspd_numerator="4" amt="0" lshp="0" sustain="0.5" x100="0"/>
          </eldata>
          <chordcreator chordrange="1" chord="0" chord-enabled="0"/>
          <arpeggiator arpmiss="0" arpmode="0" arptime_denominator="4" arpdir="0" arp="0" arpskip="0" arptime="200" arptime_numerator="4" arpgate="100" arpcycle="0" arp-enabled="0" arptime_syncmode="0" arprange="1"/>
          <midiport outputcontroller="0" fixedoutputvelocity="-1" basevelocity="63" fixedoutputnote="-1" readable="0" writable="0" outputchannel="1" fixedinputvelocity="-1" inputchannel="0" inputcontroller="0" outputprogram="1"/>
          <fxchain numofeffects="0" enabled="0"/>
        </instrumenttrack>
        <pattern muted="0" steps="16" type="1" name="DSK AsianZ DreamZ" pos="4992">
          <note len="192" key="60" vol="100" pos="0" pan="100"/>
          <note len="192" key="55" vol="100" pos="192" pan="100"/>
          <note len="192" key="60" vol="100" pos="384" pan="100"/>
          <note len="96" key="62" vol="100" pos="576" pan="100"/>
          <note len="96" key="59" vol="100" pos="672" pan="100"/>
          <note len="192" key="60" vol="100" pos="768" pan="100"/>
          <note len="192" key="55" vol="100" pos="960" pan="100"/>
          <note len="192" key="60" vol="100" pos="1152" pan="100"/>
          <note len="96" key="62" vol="100" pos="1344" pan="100"/>
          <note len="96" key="64" vol="100" pos="1440" pan="100"/>
        </pattern>
      </track>
      <track muted="0" type="5" name="-" solo="0">
        <automationtrack/>
        <automationpattern len="384" prog="2" mute="0" name="FX 3>Volume" pos="1152" tens="1">
          <time pos="0" value="0.25"/>
          <time pos="384" value="1"/>
          <object id="4099858"/>
        </automationpattern>
        <automationpattern len="384" prog="2" mute="0" name="FX 3>Volume" pos="1536" tens="1">
          <time pos="0" value="1"/>
          <time pos="144" value="1.2"/>
          <time pos="384" value="0.4"/>
          <object id="4099858"/>
          <object id="2366751"/>
        </automationpattern>
        <automationpattern len="192" prog="0" mute="0" name="bassdrum04.ogg>" pos="768" tens="1">
          <time pos="0" value="75"/>
          <object id="2366751"/>
        </automationpattern>
        <automationpattern len="192" prog="2" mute="0" name="DSK AsianZ DreamZ>" pos="4224" tens="1">
          <time pos="0" value="15"/>
          <time pos="192" value="50"/>
          <object id="7032658"/>
        </automationpattern>
      </track>
      <track muted="0" type="5" name="-vst" solo="0">
        <automationtrack/>
        <automationpattern len="768" prog="2" mute="0" name="mda Piano>" pos="0" tens="1">
          <time pos="0" value="10"/>
          <time pos="96" value="75"/>
          <time pos="768" value="100"/>
          <object id="4449149"/>
        </automationpattern>
        <automationpattern len="1536" prog="2" mute="0" name="DSK AsianZ DreamZ>" pos="4992" tens="1">
          <time pos="0" value="20"/>
          <time pos="192" value="100"/>
          <time pos="1152" value="100"/>
          <time pos="1536" value="50"/>
          <object id="908249"/>
          <object id="908249"/>
          <object id="908249"/>
        </automationpattern>
        <automationpattern len="384" prog="2" mute="0" name="Mini_DiZi>" pos="2688" tens="1">
          <time pos="0" value="9.4"/>
          <time pos="384" value="25"/>
          <object id="6945345"/>
        </automationpattern>
        <automationpattern len="384" prog="2" mute="0" name="DSK AsianZ DreamZ>" pos="3072" tens="1">
          <time pos="0" value="60"/>
          <time pos="384" value="30.6"/>
          <object id="6407387"/>
        </automationpattern>
        <automationpattern len="192" prog="2" mute="0" name="DSK AsianZ DreamZ>" pos="1920" tens="1">
          <time pos="0" value="15"/>
          <time pos="192" value="60"/>
          <object id="6407387"/>
        </automationpattern>
        <automationpattern len="192" prog="2" mute="0" name="mda Piano>" pos="2112" tens="1">
          <time pos="0" value="100"/>
          <time pos="192" value="60"/>
          <object id="4449149"/>
        </automationpattern>
        <automationpattern len="384" prog="2" mute="0" name="bassdrum04.ogg>" pos="1536" tens="1">
          <time pos="0" value="75"/>
          <time pos="384" value="25"/>
          <object id="2366751"/>
        </automationpattern>
        <automationpattern len="768" prog="2" mute="0" name="Mini_DiZi>" pos="4224" tens="1">
          <time pos="0" value="25"/>
          <time pos="768" value="10"/>
          <object id="6945345"/>
        </automationpattern>
      </track>
    </trackcontainer>
    <track muted="0" type="6" name="Automation track" solo="0">
      <automationtrack/>
      <automationpattern len="192" prog="0" mute="0" name="Numerator" pos="0" tens="1"/>
      <automationpattern len="192" prog="0" mute="0" name="Denominator" pos="0" tens="1"/>
      <automationpattern len="192" prog="0" mute="0" name="Tempo" pos="0" tens="1"/>
      <automationpattern len="192" prog="0" mute="0" name="Master volume" pos="0" tens="1"/>
      <automationpattern len="192" prog="0" mute="0" name="Master pitch" pos="0" tens="1"/>
    </track>
    <fxmixer height="333" visible="1" x="1" maximized="0" y="303" minimized="0" width="543">
      <fxchannel muted="0" num="0" volume="1" soloed="0" name="Master">
        <fxchain numofeffects="0" enabled="0"/>
        <connection>
          <muted>
            <Midicontroller outputcontroller="0" fixedoutputvelocity="-1" type="2" basevelocity="127" fixedoutputnote="-1" inports="" readable="1" name="MIDI ch1 ctrl37" writable="0" outputchannel="1" fixedinputvelocity="-1" inputchannel="1" inputcontroller="37" outputprogram="1"/>
          </muted>
        </connection>
      </fxchannel>
      <fxchannel muted="0" num="1" volume="1" soloed="0" name="FX 1">
        <fxchain numofeffects="0" enabled="0"/>
        <send amount="1" channel="0"/>
      </fxchannel>
      <fxchannel muted="0" num="2" volume="1" soloed="0" name="FX 2">
        <fxchain numofeffects="0" enabled="0"/>
        <send amount="1" channel="0"/>
      </fxchannel>
      <fxchannel muted="0" num="3" soloed="0" name="claps">
        <fxchain numofeffects="0" enabled="0"/>
        <volume id="4099858" scale_type="linear" value="0.4"/>
        <send amount="1" channel="0"/>
      </fxchannel>
    </fxmixer>
    <ControllerRackView height="200" visible="0" x="689" maximized="0" y="178" minimized="0" width="350"/>
    <pianoroll height="480" visible="1" x="148" maximized="0" y="101" minimized="0" width="860"/>
    <automationeditor height="486" visible="1" x="157" maximized="0" y="123" minimized="0" width="860"/>
    <projectnotes height="400" visible="0" x="700" maximized="0" y="10" minimized="0" width="712"><![CDATA[<!DOCTYPE HTML PUBLIC "-//W3C//DTD HTML 4.0//EN" "http://www.w3.org/TR/REC-html40/strict.dtd">
<html><head><meta name="qrichtext" content="1" /><style type="text/css">
p, li { white-space: pre-wrap; }
</style></head><body style=" font-family:'Sans Serif'; font-size:9pt; font-weight:400; font-style:normal;">
<p style="-qt-paragraph-type:empty; margin-top:0px; margin-bottom:0px; margin-left:0px; margin-right:0px; -qt-block-indent:0; text-indent:0px;"><br /></p></body></html>]]></projectnotes>
    <timeline lpstate="0" lp0pos="0" lp1pos="4992"/>
    <controllers/>
  </song>
</lmms-project>
